<?xml version="1.0" encoding="UTF-8" standalone="no"?>
<!DOCTYPE svg PUBLIC "-//W3C//DTD SVG 1.1//EN"
 "http://www.w3.org/Graphics/SVG/1.1/DTD/svg11.dtd">
<!-- Generated by graphviz version 2.36.0 (20140111.2315)
 -->
<!-- Title: G Pages: 1 -->
<svg width="463pt" height="1258pt"
 viewBox="0.00 0.00 463.00 1258.00" xmlns="http://www.w3.org/2000/svg" xmlns:xlink="http://www.w3.org/1999/xlink">
<g id="graph0" class="graph" transform="scale(1 1) rotate(0) translate(4 1254)">
<title>G</title>
<polygon fill="white" stroke="none" points="-4,4 -4,-1254 459,-1254 459,4 -4,4"/>
<!-- n1 -->
<g id="node1" class="node"><title>n1</title>
<g id="a_node1"><a xlink:title="[[C]]:&#45;1_">
<ellipse fill="none" stroke="black" cx="248" cy="-1212" rx="77.1743" ry="37.4533"/>
<text text-anchor="middle" x="248" y="-1223.3" font-family="Times,serif" font-size="14.00">Node1</text>
<text text-anchor="start" x="201" y="-1208.3" font-family="Times,serif" font-size="14.00">input = {}</text>
<text text-anchor="middle" x="248" y="-1193.3" font-family="Times,serif" font-size="14.00">reverseMap = {}</text>
</a>
</g>
</g>
<!-- n2 -->
<g id="node2" class="node"><title>n2</title>
<g id="a_node2"><a xlink:title="[./LanguageModelSkipCon.lua]:123_">
<ellipse fill="none" stroke="black" cx="248" cy="-1100" rx="94.0678" ry="37.4533"/>
<text text-anchor="middle" x="248" y="-1111.3" font-family="Times,serif" font-size="14.00">Node2</text>
<text text-anchor="start" x="189.5" y="-1096.3" font-family="Times,serif" font-size="14.00">module = nn.Identity</text>
<text text-anchor="middle" x="248" y="-1081.3" font-family="Times,serif" font-size="14.00">reverseMap = {}</text>
</a>
</g>
</g>
<!-- n1&#45;&gt;n2 -->
<g id="edge1" class="edge"><title>n1&#45;&gt;n2</title>
<path fill="none" stroke="black" d="M248,-1174.37C248,-1165.93 248,-1156.83 248,-1148.01"/>
<polygon fill="black" stroke="black" points="251.5,-1147.84 248,-1137.84 244.5,-1147.84 251.5,-1147.84"/>
</g>
<!-- n3 -->
<g id="node3" class="node"><title>n3</title>
<g id="a_node3"><a xlink:title="[./LanguageModelSkipCon.lua]:123_">
<ellipse fill="none" stroke="black" cx="248" cy="-935" rx="158.088" ry="90.5193"/>
<text text-anchor="middle" x="248" y="-983.8" font-family="Times,serif" font-size="14.00">Node3</text>
<text text-anchor="start" x="144" y="-968.8" font-family="Times,serif" font-size="14.00">module = nn.Sequential {</text>
<text text-anchor="start" x="144" y="-953.8" font-family="Times,serif" font-size="14.00"> &#160;[input &#45;&gt; (1) &#45;&gt; (2) &#45;&gt; (3) &#45;&gt; output]</text>
<text text-anchor="start" x="144" y="-938.8" font-family="Times,serif" font-size="14.00"> &#160;(1): nn.View(1,1,&#45;1)</text>
<text text-anchor="start" x="144" y="-923.8" font-family="Times,serif" font-size="14.00"> &#160;(2): nn.Linear(512 &#45;&gt; 65)</text>
<text text-anchor="start" x="144" y="-908.8" font-family="Times,serif" font-size="14.00"> &#160;(3): nn.View(1,&#45;1)</text>
<text text-anchor="start" x="144" y="-893.8" font-family="Times,serif" font-size="14.00">}</text>
<text text-anchor="middle" x="248" y="-878.8" font-family="Times,serif" font-size="14.00">reverseMap = {}</text>
</a>
</g>
</g>
<!-- n2&#45;&gt;n3 -->
<g id="edge2" class="edge"><title>n2&#45;&gt;n3</title>
<path fill="none" stroke="black" d="M248,-1062.42C248,-1054.29 248,-1045.28 248,-1035.94"/>
<polygon fill="black" stroke="black" points="251.5,-1035.69 248,-1025.69 244.5,-1035.69 251.5,-1035.69"/>
</g>
<!-- n4 -->
<g id="node4" class="node"><title>n4</title>
<g id="a_node4"><a xlink:title="[./LanguageModelSkipCon.lua]:84_">
<ellipse fill="none" stroke="black" cx="248" cy="-760" rx="124.176" ry="48.1667"/>
<text text-anchor="middle" x="248" y="-778.8" font-family="Times,serif" font-size="14.00">Node4</text>
<text text-anchor="start" x="168" y="-763.8" font-family="Times,serif" font-size="14.00">module = nn.JoinTable</text>
<text text-anchor="start" x="168" y="-748.8" font-family="Times,serif" font-size="14.00">reverseMap = {}</text>
<text text-anchor="middle" x="248" y="-733.8" font-family="Times,serif" font-size="14.00">mapindex = {Node5,Node6}</text>
</a>
</g>
</g>
<!-- n3&#45;&gt;n4 -->
<g id="edge3" class="edge"><title>n3&#45;&gt;n4</title>
<path fill="none" stroke="black" d="M248,-844.46C248,-835.55 248,-826.684 248,-818.239"/>
<polygon fill="black" stroke="black" points="251.5,-818.173 248,-808.173 244.5,-818.173 251.5,-818.173"/>
</g>
<!-- n5 -->
<g id="node5" class="node"><title>n5</title>
<g id="a_node5"><a xlink:title="[./LanguageModelSkipCon.lua]:84_">
<ellipse fill="none" stroke="black" cx="132" cy="-628" rx="124.176" ry="48.1667"/>
<text text-anchor="middle" x="132" y="-646.8" font-family="Times,serif" font-size="14.00">Node5</text>
<text text-anchor="start" x="52" y="-631.8" font-family="Times,serif" font-size="14.00">module = nn.JoinTable</text>
<text text-anchor="start" x="52" y="-616.8" font-family="Times,serif" font-size="14.00">reverseMap = {}</text>
<text text-anchor="middle" x="132" y="-601.8" font-family="Times,serif" font-size="14.00">mapindex = {Node7,Node8}</text>
</a>
</g>
</g>
<!-- n4&#45;&gt;n5 -->
<g id="edge4" class="edge"><title>n4&#45;&gt;n5</title>
<path fill="none" stroke="black" d="M208.079,-714.261C198.601,-703.639 188.407,-692.215 178.658,-681.289"/>
<polygon fill="black" stroke="black" points="181.264,-678.952 171.994,-673.821 176.041,-683.613 181.264,-678.952"/>
</g>
<!-- n6 -->
<g id="node6" class="node"><title>n6</title>
<g id="a_node6"><a xlink:title="[./LanguageModelSkipCon.lua]:78_">
<ellipse fill="none" stroke="black" cx="365" cy="-628" rx="90.2645" ry="37.4533"/>
<text text-anchor="middle" x="365" y="-639.3" font-family="Times,serif" font-size="14.00">Node6</text>
<text text-anchor="start" x="309" y="-624.3" font-family="Times,serif" font-size="14.00">module = nn.LSTM</text>
<text text-anchor="middle" x="365" y="-609.3" font-family="Times,serif" font-size="14.00">reverseMap = {}</text>
</a>
</g>
</g>
<!-- n4&#45;&gt;n6 -->
<g id="edge5" class="edge"><title>n4&#45;&gt;n6</title>
<path fill="none" stroke="black" d="M288.265,-714.261C300.869,-700.256 314.729,-684.857 327.161,-671.044"/>
<polygon fill="black" stroke="black" points="329.815,-673.327 333.903,-663.552 324.612,-668.644 329.815,-673.327"/>
</g>
<!-- n7 -->
<g id="node7" class="node"><title>n7</title>
<g id="a_node7"><a xlink:title="[./LanguageModelSkipCon.lua]:84_">
<ellipse fill="none" stroke="black" cx="128" cy="-496" rx="128.54" ry="48.1667"/>
<text text-anchor="middle" x="128" y="-514.8" font-family="Times,serif" font-size="14.00">Node7</text>
<text text-anchor="start" x="45" y="-499.8" font-family="Times,serif" font-size="14.00">module = nn.JoinTable</text>
<text text-anchor="start" x="45" y="-484.8" font-family="Times,serif" font-size="14.00">reverseMap = {}</text>
<text text-anchor="middle" x="128" y="-469.8" font-family="Times,serif" font-size="14.00">mapindex = {Node9,Node10}</text>
</a>
</g>
</g>
<!-- n5&#45;&gt;n7 -->
<g id="edge6" class="edge"><title>n5&#45;&gt;n7</title>
<path fill="none" stroke="black" d="M130.545,-579.699C130.294,-571.544 130.03,-562.987 129.772,-554.597"/>
<polygon fill="black" stroke="black" points="133.267,-554.371 129.461,-544.483 126.27,-554.586 133.267,-554.371"/>
</g>
<!-- n8 -->
<g id="node8" class="node"><title>n8</title>
<g id="a_node8"><a xlink:title="[./LanguageModelSkipCon.lua]:78_">
<ellipse fill="none" stroke="black" cx="365" cy="-496" rx="90.2645" ry="37.4533"/>
<text text-anchor="middle" x="365" y="-507.3" font-family="Times,serif" font-size="14.00">Node8</text>
<text text-anchor="start" x="309" y="-492.3" font-family="Times,serif" font-size="14.00">module = nn.LSTM</text>
<text text-anchor="middle" x="365" y="-477.3" font-family="Times,serif" font-size="14.00">reverseMap = {}</text>
</a>
</g>
</g>
<!-- n5&#45;&gt;n8 -->
<g id="edge7" class="edge"><title>n5&#45;&gt;n8</title>
<path fill="none" stroke="black" d="M201.908,-587.996C234.116,-570.025 272.014,-548.881 303.167,-531.499"/>
<polygon fill="black" stroke="black" points="305.156,-534.397 312.183,-526.469 301.745,-528.284 305.156,-534.397"/>
</g>
<!-- n6&#45;&gt;n8 -->
<g id="edge8" class="edge"><title>n6&#45;&gt;n8</title>
<path fill="none" stroke="black" d="M365,-590.442C365,-576.042 365,-559.321 365,-544.039"/>
<polygon fill="black" stroke="black" points="368.5,-543.734 365,-533.734 361.5,-543.734 368.5,-543.734"/>
</g>
<!-- n9 -->
<g id="node9" class="node"><title>n9</title>
<g id="a_node9"><a xlink:title="[./LanguageModelSkipCon.lua]:63_">
<ellipse fill="none" stroke="black" cx="128" cy="-374" rx="94.0678" ry="37.4533"/>
<text text-anchor="middle" x="128" y="-385.3" font-family="Times,serif" font-size="14.00">Node9</text>
<text text-anchor="start" x="69.5" y="-370.3" font-family="Times,serif" font-size="14.00">module = nn.Identity</text>
<text text-anchor="middle" x="128" y="-355.3" font-family="Times,serif" font-size="14.00">reverseMap = {}</text>
</a>
</g>
</g>
<!-- n7&#45;&gt;n9 -->
<g id="edge9" class="edge"><title>n7&#45;&gt;n9</title>
<path fill="none" stroke="black" d="M128,-447.573C128,-439.096 128,-430.269 128,-421.81"/>
<polygon fill="black" stroke="black" points="131.5,-421.722 128,-411.722 124.5,-421.722 131.5,-421.722"/>
</g>
<!-- n10 -->
<g id="node10" class="node"><title>n10</title>
<g id="a_node10"><a xlink:title="[./LanguageModelSkipCon.lua]:78_">
<ellipse fill="none" stroke="black" cx="331" cy="-374" rx="90.2645" ry="37.4533"/>
<text text-anchor="middle" x="331" y="-385.3" font-family="Times,serif" font-size="14.00">Node10</text>
<text text-anchor="start" x="275" y="-370.3" font-family="Times,serif" font-size="14.00">module = nn.LSTM</text>
<text text-anchor="middle" x="331" y="-355.3" font-family="Times,serif" font-size="14.00">reverseMap = {}</text>
</a>
</g>
</g>
<!-- n7&#45;&gt;n10 -->
<g id="edge10" class="edge"><title>n7&#45;&gt;n10</title>
<path fill="none" stroke="black" d="M195.596,-455.042C220.039,-440.593 247.446,-424.392 271.175,-410.365"/>
<polygon fill="black" stroke="black" points="273.248,-413.205 280.075,-405.103 269.686,-407.179 273.248,-413.205"/>
</g>
<!-- n8&#45;&gt;n10 -->
<g id="edge11" class="edge"><title>n8&#45;&gt;n10</title>
<path fill="none" stroke="black" d="M354.707,-458.67C351.375,-446.913 347.635,-433.712 344.127,-421.331"/>
<polygon fill="black" stroke="black" points="347.469,-420.287 341.376,-411.62 340.734,-422.196 347.469,-420.287"/>
</g>
<!-- n11 -->
<g id="node11" class="node"><title>n11</title>
<g id="a_node11"><a xlink:title="[./LanguageModelSkipCon.lua]:57_">
<ellipse fill="none" stroke="black" cx="229" cy="-262" rx="90.2645" ry="37.4533"/>
<text text-anchor="middle" x="229" y="-273.3" font-family="Times,serif" font-size="14.00">Node11</text>
<text text-anchor="start" x="173" y="-258.3" font-family="Times,serif" font-size="14.00">module = nn.LSTM</text>
<text text-anchor="middle" x="229" y="-243.3" font-family="Times,serif" font-size="14.00">reverseMap = {}</text>
</a>
</g>
</g>
<!-- n9&#45;&gt;n11 -->
<g id="edge12" class="edge"><title>n9&#45;&gt;n11</title>
<path fill="none" stroke="black" d="M159.68,-338.497C169.457,-327.849 180.332,-316.005 190.515,-304.914"/>
<polygon fill="black" stroke="black" points="193.247,-307.114 197.432,-297.38 188.091,-302.379 193.247,-307.114"/>
</g>
<!-- n10&#45;&gt;n11 -->
<g id="edge13" class="edge"><title>n10&#45;&gt;n11</title>
<path fill="none" stroke="black" d="M299.286,-338.798C289.307,-328.037 278.174,-316.031 267.763,-304.804"/>
<polygon fill="black" stroke="black" points="270.061,-302.133 260.695,-297.181 264.928,-306.893 270.061,-302.133"/>
</g>
<!-- n12 -->
<g id="node12" class="node"><title>n12</title>
<g id="a_node12"><a xlink:title="[./LanguageModelSkipCon.lua]:41_">
<ellipse fill="none" stroke="black" cx="229" cy="-150" rx="115.448" ry="37.4533"/>
<text text-anchor="middle" x="229" y="-161.3" font-family="Times,serif" font-size="14.00">Node12</text>
<text text-anchor="start" x="155" y="-146.3" font-family="Times,serif" font-size="14.00">module = nn.LookupTable</text>
<text text-anchor="middle" x="229" y="-131.3" font-family="Times,serif" font-size="14.00">reverseMap = {}</text>
</a>
</g>
</g>
<!-- n11&#45;&gt;n12 -->
<g id="edge14" class="edge"><title>n11&#45;&gt;n12</title>
<path fill="none" stroke="black" d="M229,-224.372C229,-215.927 229,-206.829 229,-198.011"/>
<polygon fill="black" stroke="black" points="232.5,-197.843 229,-187.844 225.5,-197.844 232.5,-197.843"/>
</g>
<!-- n13 -->
<g id="node13" class="node"><title>n13</title>
<g id="a_node13"><a xlink:title="[[C]]:&#45;1_">
<ellipse fill="none" stroke="black" cx="229" cy="-38" rx="77.1743" ry="37.4533"/>
<text text-anchor="middle" x="229" y="-49.3" font-family="Times,serif" font-size="14.00">Node13</text>
<text text-anchor="start" x="182" y="-34.3" font-family="Times,serif" font-size="14.00">input = {}</text>
<text text-anchor="middle" x="229" y="-19.3" font-family="Times,serif" font-size="14.00">reverseMap = {}</text>
</a>
</g>
</g>
<!-- n12&#45;&gt;n13 -->
<g id="edge15" class="edge"><title>n12&#45;&gt;n13</title>
<path fill="none" stroke="black" d="M229,-112.372C229,-103.927 229,-94.8286 229,-86.0106"/>
<polygon fill="black" stroke="black" points="232.5,-85.8435 229,-75.8435 225.5,-85.8435 232.5,-85.8435"/>
</g>
</g>
</svg>
