<?xml version="1.0" encoding="UTF-8" standalone="no"?>
<!DOCTYPE svg PUBLIC "-//W3C//DTD SVG 1.1//EN"
 "http://www.w3.org/Graphics/SVG/1.1/DTD/svg11.dtd">
<!-- Generated by graphviz version 2.36.0 (20140111.2315)
 -->
<!-- Title: G Pages: 1 -->
<svg width="464pt" height="1258pt"
 viewBox="0.00 0.00 464.00 1258.00" xmlns="http://www.w3.org/2000/svg" xmlns:xlink="http://www.w3.org/1999/xlink">
<g id="graph0" class="graph" transform="scale(1 1) rotate(0) translate(4 1254)">
<title>G</title>
<polygon fill="white" stroke="none" points="-4,4 -4,-1254 460,-1254 460,4 -4,4"/>
<!-- n1 -->
<g id="node1" class="node"><title>n1</title>
<g id="a_node1"><a xlink:title="[./LanguageModelSkipCon.lua]:123_">
<ellipse fill="none" stroke="black" cx="248" cy="-150" rx="94.0678" ry="37.4533"/>
<text text-anchor="middle" x="248" y="-161.3" font-family="Times,serif" font-size="14.00">Node1</text>
<text text-anchor="start" x="189.5" y="-146.3" font-family="Times,serif" font-size="14.00">module = nn.Identity</text>
<text text-anchor="middle" x="248" y="-131.3" font-family="Times,serif" font-size="14.00">reverseMap = {}</text>
</a>
</g>
</g>
<!-- n2 -->
<g id="node2" class="node"><title>n2</title>
<g id="a_node2"><a xlink:title="[[C]]:&#45;1_">
<ellipse fill="none" stroke="black" cx="248" cy="-38" rx="77.1743" ry="37.4533"/>
<text text-anchor="middle" x="248" y="-49.3" font-family="Times,serif" font-size="14.00">Node2</text>
<text text-anchor="start" x="201" y="-34.3" font-family="Times,serif" font-size="14.00">input = {}</text>
<text text-anchor="middle" x="248" y="-19.3" font-family="Times,serif" font-size="14.00">reverseMap = {}</text>
</a>
</g>
</g>
<!-- n1&#45;&gt;n2 -->
<g id="edge1" class="edge"><title>n1&#45;&gt;n2</title>
<path fill="none" stroke="black" d="M248,-112.372C248,-103.927 248,-94.8286 248,-86.0106"/>
<polygon fill="black" stroke="black" points="251.5,-85.8435 248,-75.8435 244.5,-85.8435 251.5,-85.8435"/>
</g>
<!-- n3 -->
<g id="node3" class="node"><title>n3</title>
<g id="a_node3"><a xlink:title="[./LanguageModelSkipCon.lua]:123_">
<ellipse fill="none" stroke="black" cx="248" cy="-315" rx="158.088" ry="90.5193"/>
<text text-anchor="middle" x="248" y="-363.8" font-family="Times,serif" font-size="14.00">Node3</text>
<text text-anchor="start" x="144" y="-348.8" font-family="Times,serif" font-size="14.00">module = nn.Sequential {</text>
<text text-anchor="start" x="144" y="-333.8" font-family="Times,serif" font-size="14.00"> &#160;[input &#45;&gt; (1) &#45;&gt; (2) &#45;&gt; (3) &#45;&gt; output]</text>
<text text-anchor="start" x="144" y="-318.8" font-family="Times,serif" font-size="14.00"> &#160;(1): nn.View(1,1,&#45;1)</text>
<text text-anchor="start" x="144" y="-303.8" font-family="Times,serif" font-size="14.00"> &#160;(2): nn.Linear(512 &#45;&gt; 65)</text>
<text text-anchor="start" x="144" y="-288.8" font-family="Times,serif" font-size="14.00"> &#160;(3): nn.View(1,&#45;1)</text>
<text text-anchor="start" x="144" y="-273.8" font-family="Times,serif" font-size="14.00">}</text>
<text text-anchor="middle" x="248" y="-258.8" font-family="Times,serif" font-size="14.00">reverseMap = {}</text>
</a>
</g>
</g>
<!-- n3&#45;&gt;n1 -->
<g id="edge2" class="edge"><title>n3&#45;&gt;n1</title>
<path fill="none" stroke="black" d="M248,-224.394C248,-215.137 248,-206.022 248,-197.531"/>
<polygon fill="black" stroke="black" points="251.5,-197.517 248,-187.517 244.5,-197.517 251.5,-197.517"/>
</g>
<!-- n4 -->
<g id="node4" class="node"><title>n4</title>
<g id="a_node4"><a xlink:title="[./LanguageModelSkipCon.lua]:84_">
<ellipse fill="none" stroke="black" cx="248" cy="-490" rx="124.176" ry="48.1667"/>
<text text-anchor="middle" x="248" y="-508.8" font-family="Times,serif" font-size="14.00">Node4</text>
<text text-anchor="start" x="168" y="-493.8" font-family="Times,serif" font-size="14.00">module = nn.JoinTable</text>
<text text-anchor="start" x="168" y="-478.8" font-family="Times,serif" font-size="14.00">reverseMap = {}</text>
<text text-anchor="middle" x="248" y="-463.8" font-family="Times,serif" font-size="14.00">mapindex = {Node5,Node6}</text>
</a>
</g>
</g>
<!-- n4&#45;&gt;n3 -->
<g id="edge3" class="edge"><title>n4&#45;&gt;n3</title>
<path fill="none" stroke="black" d="M248,-441.727C248,-433.586 248,-424.857 248,-415.932"/>
<polygon fill="black" stroke="black" points="251.5,-415.794 248,-405.794 244.5,-415.794 251.5,-415.794"/>
</g>
<!-- n5 -->
<g id="node5" class="node"><title>n5</title>
<g id="a_node5"><a xlink:title="[./LanguageModelSkipCon.lua]:84_">
<ellipse fill="none" stroke="black" cx="132" cy="-622" rx="124.176" ry="48.1667"/>
<text text-anchor="middle" x="132" y="-640.8" font-family="Times,serif" font-size="14.00">Node5</text>
<text text-anchor="start" x="52" y="-625.8" font-family="Times,serif" font-size="14.00">module = nn.JoinTable</text>
<text text-anchor="start" x="52" y="-610.8" font-family="Times,serif" font-size="14.00">reverseMap = {}</text>
<text text-anchor="middle" x="132" y="-595.8" font-family="Times,serif" font-size="14.00">mapindex = {Node7,Node8}</text>
</a>
</g>
</g>
<!-- n5&#45;&gt;n4 -->
<g id="edge4" class="edge"><title>n5&#45;&gt;n4</title>
<path fill="none" stroke="black" d="M171.921,-576.261C181.399,-565.639 191.593,-554.215 201.342,-543.289"/>
<polygon fill="black" stroke="black" points="203.959,-545.613 208.006,-535.821 198.736,-540.952 203.959,-545.613"/>
</g>
<!-- n6 -->
<g id="node6" class="node"><title>n6</title>
<g id="a_node6"><a xlink:title="[./LanguageModelSkipCon.lua]:78_">
<ellipse fill="none" stroke="black" cx="365" cy="-622" rx="90.2645" ry="37.4533"/>
<text text-anchor="middle" x="365" y="-633.3" font-family="Times,serif" font-size="14.00">Node6</text>
<text text-anchor="start" x="309" y="-618.3" font-family="Times,serif" font-size="14.00">module = nn.LSTM</text>
<text text-anchor="middle" x="365" y="-603.3" font-family="Times,serif" font-size="14.00">reverseMap = {}</text>
</a>
</g>
</g>
<!-- n6&#45;&gt;n4 -->
<g id="edge5" class="edge"><title>n6&#45;&gt;n4</title>
<path fill="none" stroke="black" d="M333.953,-586.504C322.077,-573.308 308.249,-557.944 295.201,-543.446"/>
<polygon fill="black" stroke="black" points="297.754,-541.051 288.463,-535.959 292.551,-545.733 297.754,-541.051"/>
</g>
<!-- n7 -->
<g id="node7" class="node"><title>n7</title>
<g id="a_node7"><a xlink:title="[./LanguageModelSkipCon.lua]:84_">
<ellipse fill="none" stroke="black" cx="128" cy="-754" rx="128.54" ry="48.1667"/>
<text text-anchor="middle" x="128" y="-772.8" font-family="Times,serif" font-size="14.00">Node7</text>
<text text-anchor="start" x="45" y="-757.8" font-family="Times,serif" font-size="14.00">module = nn.JoinTable</text>
<text text-anchor="start" x="45" y="-742.8" font-family="Times,serif" font-size="14.00">reverseMap = {}</text>
<text text-anchor="middle" x="128" y="-727.8" font-family="Times,serif" font-size="14.00">mapindex = {Node9,Node10}</text>
</a>
</g>
</g>
<!-- n7&#45;&gt;n5 -->
<g id="edge6" class="edge"><title>n7&#45;&gt;n5</title>
<path fill="none" stroke="black" d="M129.455,-705.699C129.706,-697.544 129.97,-688.987 130.228,-680.597"/>
<polygon fill="black" stroke="black" points="133.73,-680.586 130.539,-670.483 126.733,-680.371 133.73,-680.586"/>
</g>
<!-- n8 -->
<g id="node8" class="node"><title>n8</title>
<g id="a_node8"><a xlink:title="[./LanguageModelSkipCon.lua]:78_">
<ellipse fill="none" stroke="black" cx="365" cy="-754" rx="90.2645" ry="37.4533"/>
<text text-anchor="middle" x="365" y="-765.3" font-family="Times,serif" font-size="14.00">Node8</text>
<text text-anchor="start" x="309" y="-750.3" font-family="Times,serif" font-size="14.00">module = nn.LSTM</text>
<text text-anchor="middle" x="365" y="-735.3" font-family="Times,serif" font-size="14.00">reverseMap = {}</text>
</a>
</g>
</g>
<!-- n8&#45;&gt;n5 -->
<g id="edge7" class="edge"><title>n8&#45;&gt;n5</title>
<path fill="none" stroke="black" d="M312.129,-723.501C282.178,-706.79 244.134,-685.564 210.734,-666.929"/>
<polygon fill="black" stroke="black" points="212.338,-663.816 201.9,-662 208.928,-669.929 212.338,-663.816"/>
</g>
<!-- n8&#45;&gt;n6 -->
<g id="edge8" class="edge"><title>n8&#45;&gt;n6</title>
<path fill="none" stroke="black" d="M365,-716.442C365,-702.042 365,-685.321 365,-670.039"/>
<polygon fill="black" stroke="black" points="368.5,-669.734 365,-659.734 361.5,-669.734 368.5,-669.734"/>
</g>
<!-- n9 -->
<g id="node9" class="node"><title>n9</title>
<g id="a_node9"><a xlink:title="[./LanguageModelSkipCon.lua]:63_">
<ellipse fill="none" stroke="black" cx="128" cy="-876" rx="94.0678" ry="37.4533"/>
<text text-anchor="middle" x="128" y="-887.3" font-family="Times,serif" font-size="14.00">Node9</text>
<text text-anchor="start" x="69.5" y="-872.3" font-family="Times,serif" font-size="14.00">module = nn.Identity</text>
<text text-anchor="middle" x="128" y="-857.3" font-family="Times,serif" font-size="14.00">reverseMap = {}</text>
</a>
</g>
</g>
<!-- n9&#45;&gt;n7 -->
<g id="edge9" class="edge"><title>n9&#45;&gt;n7</title>
<path fill="none" stroke="black" d="M128,-838.344C128,-830.219 128,-821.418 128,-812.683"/>
<polygon fill="black" stroke="black" points="131.5,-812.503 128,-802.503 124.5,-812.503 131.5,-812.503"/>
</g>
<!-- n10 -->
<g id="node10" class="node"><title>n10</title>
<g id="a_node10"><a xlink:title="[./LanguageModelSkipCon.lua]:78_">
<ellipse fill="none" stroke="black" cx="331" cy="-876" rx="90.2645" ry="37.4533"/>
<text text-anchor="middle" x="331" y="-887.3" font-family="Times,serif" font-size="14.00">Node10</text>
<text text-anchor="start" x="275" y="-872.3" font-family="Times,serif" font-size="14.00">module = nn.LSTM</text>
<text text-anchor="middle" x="331" y="-857.3" font-family="Times,serif" font-size="14.00">reverseMap = {}</text>
</a>
</g>
</g>
<!-- n10&#45;&gt;n7 -->
<g id="edge10" class="edge"><title>n10&#45;&gt;n7</title>
<path fill="none" stroke="black" d="M280.037,-844.874C257.239,-831.397 229.874,-815.221 204.682,-800.329"/>
<polygon fill="black" stroke="black" points="206.263,-797.198 195.873,-795.122 202.701,-803.224 206.263,-797.198"/>
</g>
<!-- n10&#45;&gt;n8 -->
<g id="edge11" class="edge"><title>n10&#45;&gt;n8</title>
<path fill="none" stroke="black" d="M341.293,-838.67C344.625,-826.913 348.365,-813.712 351.873,-801.331"/>
<polygon fill="black" stroke="black" points="355.266,-802.196 354.624,-791.62 348.531,-800.287 355.266,-802.196"/>
</g>
<!-- n11 -->
<g id="node11" class="node"><title>n11</title>
<g id="a_node11"><a xlink:title="[./LanguageModelSkipCon.lua]:57_">
<ellipse fill="none" stroke="black" cx="229" cy="-988" rx="90.2645" ry="37.4533"/>
<text text-anchor="middle" x="229" y="-999.3" font-family="Times,serif" font-size="14.00">Node11</text>
<text text-anchor="start" x="173" y="-984.3" font-family="Times,serif" font-size="14.00">module = nn.LSTM</text>
<text text-anchor="middle" x="229" y="-969.3" font-family="Times,serif" font-size="14.00">reverseMap = {}</text>
</a>
</g>
</g>
<!-- n11&#45;&gt;n9 -->
<g id="edge12" class="edge"><title>n11&#45;&gt;n9</title>
<path fill="none" stroke="black" d="M197.597,-952.798C187.81,-942.14 176.902,-930.259 166.678,-919.125"/>
<polygon fill="black" stroke="black" points="169.073,-916.558 159.732,-911.559 163.917,-921.293 169.073,-916.558"/>
</g>
<!-- n11&#45;&gt;n10 -->
<g id="edge13" class="edge"><title>n11&#45;&gt;n10</title>
<path fill="none" stroke="black" d="M260.714,-952.798C270.693,-942.037 281.826,-930.031 292.237,-918.804"/>
<polygon fill="black" stroke="black" points="295.072,-920.893 299.305,-911.181 289.939,-916.133 295.072,-920.893"/>
</g>
<!-- n12 -->
<g id="node12" class="node"><title>n12</title>
<g id="a_node12"><a xlink:title="[./LanguageModelSkipCon.lua]:41_">
<ellipse fill="none" stroke="black" cx="229" cy="-1100" rx="115.448" ry="37.4533"/>
<text text-anchor="middle" x="229" y="-1111.3" font-family="Times,serif" font-size="14.00">Node12</text>
<text text-anchor="start" x="155" y="-1096.3" font-family="Times,serif" font-size="14.00">module = nn.LookupTable</text>
<text text-anchor="middle" x="229" y="-1081.3" font-family="Times,serif" font-size="14.00">reverseMap = {}</text>
</a>
</g>
</g>
<!-- n12&#45;&gt;n11 -->
<g id="edge14" class="edge"><title>n12&#45;&gt;n11</title>
<path fill="none" stroke="black" d="M229,-1062.37C229,-1053.93 229,-1044.83 229,-1036.01"/>
<polygon fill="black" stroke="black" points="232.5,-1035.84 229,-1025.84 225.5,-1035.84 232.5,-1035.84"/>
</g>
<!-- n13 -->
<g id="node13" class="node"><title>n13</title>
<g id="a_node13"><a xlink:title="[[C]]:&#45;1_">
<ellipse fill="none" stroke="black" cx="229" cy="-1212" rx="77.1743" ry="37.4533"/>
<text text-anchor="middle" x="229" y="-1223.3" font-family="Times,serif" font-size="14.00">Node13</text>
<text text-anchor="start" x="182" y="-1208.3" font-family="Times,serif" font-size="14.00">input = {}</text>
<text text-anchor="middle" x="229" y="-1193.3" font-family="Times,serif" font-size="14.00">reverseMap = {}</text>
</a>
</g>
</g>
<!-- n13&#45;&gt;n12 -->
<g id="edge15" class="edge"><title>n13&#45;&gt;n12</title>
<path fill="none" stroke="black" d="M229,-1174.37C229,-1165.93 229,-1156.83 229,-1148.01"/>
<polygon fill="black" stroke="black" points="232.5,-1147.84 229,-1137.84 225.5,-1147.84 232.5,-1147.84"/>
</g>
</g>
</svg>
