<?xml version="1.0" encoding="UTF-8" standalone="no"?>
<!DOCTYPE svg PUBLIC "-//W3C//DTD SVG 1.1//EN"
 "http://www.w3.org/Graphics/SVG/1.1/DTD/svg11.dtd">
<!-- Generated by graphviz version 2.36.0 (20140111.2315)
 -->
<!-- Title: G Pages: 1 -->
<svg width="967pt" height="1487pt"
 viewBox="0.00 0.00 967.00 1487.00" xmlns="http://www.w3.org/2000/svg" xmlns:xlink="http://www.w3.org/1999/xlink">
<g id="graph0" class="graph" transform="scale(1 1) rotate(0) translate(4 1483)">
<title>G</title>
<polygon fill="white" stroke="none" points="-4,4 -4,-1483 963,-1483 963,4 -4,4"/>
<text text-anchor="middle" x="479.5" y="-1463.8" font-family="Times,serif" font-size="14.00">nngraph_1in_1out_lua_VIBIQu</text>
<!-- n1 -->
<g id="node1" class="node"><title>n1</title>
<g id="a_node1"><a xlink:title="[./LanguageModelSkipCon.lua]:123_">
<ellipse fill="none" stroke="black" cx="525" cy="-191" rx="184.332" ry="58.8803"/>
<text text-anchor="middle" x="525" y="-217.3" font-family="Times,serif" font-size="14.00">Node1</text>
<text text-anchor="start" x="402.5" y="-202.3" font-family="Times,serif" font-size="14.00">input = {torch.CudaTensor[2x50x65]}</text>
<text text-anchor="start" x="402.5" y="-187.3" font-family="Times,serif" font-size="14.00">module = nn.Identity</text>
<text text-anchor="start" x="402.5" y="-172.3" font-family="Times,serif" font-size="14.00">reverseMap = {}</text>
<text text-anchor="middle" x="525" y="-157.3" font-family="Times,serif" font-size="14.00">gradOutput = {torch.CudaTensor[2x50x65]}</text>
</a>
</g>
</g>
<!-- n2 -->
<g id="node2" class="node"><title>n2</title>
<g id="a_node2"><a xlink:title="[[C]]:&#45;1_">
<ellipse fill="none" stroke="black" cx="525" cy="-48" rx="184.332" ry="48.1667"/>
<text text-anchor="middle" x="525" y="-66.8" font-family="Times,serif" font-size="14.00">Node2</text>
<text text-anchor="start" x="402.5" y="-51.8" font-family="Times,serif" font-size="14.00">input = {torch.CudaTensor[2x50x65]}</text>
<text text-anchor="start" x="402.5" y="-36.8" font-family="Times,serif" font-size="14.00">reverseMap = {}</text>
<text text-anchor="middle" x="525" y="-21.8" font-family="Times,serif" font-size="14.00">gradOutput = {torch.CudaTensor[2x50x65]}</text>
</a>
</g>
</g>
<!-- n1&#45;&gt;n2 -->
<g id="edge1" class="edge"><title>n1&#45;&gt;n2</title>
<path fill="none" stroke="black" d="M525,-132.243C525,-123.7 525,-114.899 525,-106.364"/>
<polygon fill="black" stroke="black" points="528.5,-106.121 525,-96.1209 521.5,-106.121 528.5,-106.121"/>
</g>
<!-- n3 -->
<g id="node3" class="node"><title>n3</title>
<g id="a_node3"><a xlink:title="[./LanguageModelSkipCon.lua]:123_">
<ellipse fill="none" stroke="black" cx="525" cy="-398" rx="184.332" ry="111.946"/>
<text text-anchor="middle" x="525" y="-461.8" font-family="Times,serif" font-size="14.00">Node3</text>
<text text-anchor="start" x="402.5" y="-446.8" font-family="Times,serif" font-size="14.00">input = {torch.CudaTensor[2x50x384]}</text>
<text text-anchor="start" x="402.5" y="-431.8" font-family="Times,serif" font-size="14.00">module = nn.Sequential {</text>
<text text-anchor="start" x="402.5" y="-416.8" font-family="Times,serif" font-size="14.00"> &#160;[input &#45;&gt; (1) &#45;&gt; (2) &#45;&gt; (3) &#45;&gt; output]</text>
<text text-anchor="start" x="402.5" y="-401.8" font-family="Times,serif" font-size="14.00"> &#160;(1): nn.View(100,&#45;1)</text>
<text text-anchor="start" x="402.5" y="-386.8" font-family="Times,serif" font-size="14.00"> &#160;(2): nn.Linear(384 &#45;&gt; 65)</text>
<text text-anchor="start" x="402.5" y="-371.8" font-family="Times,serif" font-size="14.00"> &#160;(3): nn.View(2,50,&#45;1)</text>
<text text-anchor="start" x="402.5" y="-356.8" font-family="Times,serif" font-size="14.00">}</text>
<text text-anchor="start" x="402.5" y="-341.8" font-family="Times,serif" font-size="14.00">reverseMap = {}</text>
<text text-anchor="middle" x="525" y="-326.8" font-family="Times,serif" font-size="14.00">gradOutput = {torch.CudaTensor[2x50x65]}</text>
</a>
</g>
</g>
<!-- n3&#45;&gt;n1 -->
<g id="edge2" class="edge"><title>n3&#45;&gt;n1</title>
<path fill="none" stroke="black" d="M525,-286.1C525,-277.18 525,-268.345 525,-259.868"/>
<polygon fill="black" stroke="black" points="528.5,-259.724 525,-249.724 521.5,-259.724 528.5,-259.724"/>
</g>
<!-- n4 -->
<g id="node4" class="node"><title>n4</title>
<g id="a_node4"><a xlink:title="[./LanguageModelSkipCon.lua]:84_">
<ellipse fill="none" stroke="black" cx="525" cy="-616" rx="281.143" ry="69.0935"/>
<text text-anchor="middle" x="525" y="-649.8" font-family="Times,serif" font-size="14.00">Node4</text>
<text text-anchor="start" x="334" y="-634.8" font-family="Times,serif" font-size="14.00">input = {torch.CudaTensor[2x50x256],torch.CudaTensor[2x50x128]}</text>
<text text-anchor="start" x="334" y="-619.8" font-family="Times,serif" font-size="14.00">mapindex = {Node5,Node6}</text>
<text text-anchor="start" x="334" y="-604.8" font-family="Times,serif" font-size="14.00">module = nn.JoinTable</text>
<text text-anchor="start" x="334" y="-589.8" font-family="Times,serif" font-size="14.00">reverseMap = {}</text>
<text text-anchor="middle" x="525" y="-574.8" font-family="Times,serif" font-size="14.00">gradOutput = {torch.CudaTensor[2x50x384]}</text>
</a>
</g>
</g>
<!-- n4&#45;&gt;n3 -->
<g id="edge3" class="edge"><title>n4&#45;&gt;n3</title>
<path fill="none" stroke="black" d="M525,-546.656C525,-538.125 525,-529.211 525,-520.171"/>
<polygon fill="black" stroke="black" points="528.5,-519.926 525,-509.926 521.5,-519.926 528.5,-519.926"/>
</g>
<!-- n5 -->
<g id="node5" class="node"><title>n5</title>
<g id="a_node5"><a xlink:title="[./LanguageModelSkipCon.lua]:84_">
<ellipse fill="none" stroke="black" cx="281" cy="-792" rx="281.143" ry="69.0935"/>
<text text-anchor="middle" x="281" y="-825.8" font-family="Times,serif" font-size="14.00">Node5</text>
<text text-anchor="start" x="90" y="-810.8" font-family="Times,serif" font-size="14.00">input = {torch.CudaTensor[2x50x128],torch.CudaTensor[2x50x128]}</text>
<text text-anchor="start" x="90" y="-795.8" font-family="Times,serif" font-size="14.00">mapindex = {Node7,Node8}</text>
<text text-anchor="start" x="90" y="-780.8" font-family="Times,serif" font-size="14.00">module = nn.JoinTable</text>
<text text-anchor="start" x="90" y="-765.8" font-family="Times,serif" font-size="14.00">reverseMap = {}</text>
<text text-anchor="middle" x="281" y="-750.8" font-family="Times,serif" font-size="14.00">gradOutput = {torch.CudaTensor[2x50x256]}</text>
</a>
</g>
</g>
<!-- n5&#45;&gt;n4 -->
<g id="edge4" class="edge"><title>n5&#45;&gt;n4</title>
<path fill="none" stroke="black" d="M371.857,-726.209C389.481,-713.64 408.035,-700.409 425.909,-687.663"/>
<polygon fill="black" stroke="black" points="427.958,-690.501 434.068,-681.845 423.894,-684.802 427.958,-690.501"/>
</g>
<!-- n6 -->
<g id="node6" class="node"><title>n6</title>
<g id="a_node6"><a xlink:title="[./LanguageModelSkipCon.lua]:78_">
<ellipse fill="none" stroke="black" cx="770" cy="-792" rx="189.257" ry="58.8803"/>
<text text-anchor="middle" x="770" y="-818.3" font-family="Times,serif" font-size="14.00">Node6</text>
<text text-anchor="start" x="644" y="-803.3" font-family="Times,serif" font-size="14.00">input = {torch.CudaTensor[2x50x128]}</text>
<text text-anchor="start" x="644" y="-788.3" font-family="Times,serif" font-size="14.00">module = nn.LSTM</text>
<text text-anchor="start" x="644" y="-773.3" font-family="Times,serif" font-size="14.00">reverseMap = {}</text>
<text text-anchor="middle" x="770" y="-758.3" font-family="Times,serif" font-size="14.00">gradOutput = {torch.CudaTensor[2x50x128]}</text>
</a>
</g>
</g>
<!-- n6&#45;&gt;n4 -->
<g id="edge5" class="edge"><title>n6&#45;&gt;n4</title>
<path fill="none" stroke="black" d="M695.161,-737.849C672.88,-722.025 648.107,-704.431 624.513,-687.675"/>
<polygon fill="black" stroke="black" points="626.403,-684.724 616.224,-681.787 622.35,-690.431 626.403,-684.724"/>
</g>
<!-- n7 -->
<g id="node7" class="node"><title>n7</title>
<g id="a_node7"><a xlink:title="[./LanguageModelSkipCon.lua]:63_">
<ellipse fill="none" stroke="black" cx="281" cy="-957" rx="189.257" ry="58.8803"/>
<text text-anchor="middle" x="281" y="-983.3" font-family="Times,serif" font-size="14.00">Node7</text>
<text text-anchor="start" x="155" y="-968.3" font-family="Times,serif" font-size="14.00">input = {torch.CudaTensor[2x50x128]}</text>
<text text-anchor="start" x="155" y="-953.3" font-family="Times,serif" font-size="14.00">module = nn.Identity</text>
<text text-anchor="start" x="155" y="-938.3" font-family="Times,serif" font-size="14.00">reverseMap = {}</text>
<text text-anchor="middle" x="281" y="-923.3" font-family="Times,serif" font-size="14.00">gradOutput = {torch.CudaTensor[2x50x128]}</text>
</a>
</g>
</g>
<!-- n7&#45;&gt;n5 -->
<g id="edge6" class="edge"><title>n7&#45;&gt;n5</title>
<path fill="none" stroke="black" d="M281,-898.073C281,-889.43 281,-880.4 281,-871.42"/>
<polygon fill="black" stroke="black" points="284.5,-871.326 281,-861.326 277.5,-871.326 284.5,-871.326"/>
</g>
<!-- n8 -->
<g id="node8" class="node"><title>n8</title>
<g id="a_node8"><a xlink:title="[./LanguageModelSkipCon.lua]:78_">
<ellipse fill="none" stroke="black" cx="678" cy="-957" rx="189.257" ry="58.8803"/>
<text text-anchor="middle" x="678" y="-983.3" font-family="Times,serif" font-size="14.00">Node8</text>
<text text-anchor="start" x="552" y="-968.3" font-family="Times,serif" font-size="14.00">input = {torch.CudaTensor[2x50x128]}</text>
<text text-anchor="start" x="552" y="-953.3" font-family="Times,serif" font-size="14.00">module = nn.LSTM</text>
<text text-anchor="start" x="552" y="-938.3" font-family="Times,serif" font-size="14.00">reverseMap = {}</text>
<text text-anchor="middle" x="678" y="-923.3" font-family="Times,serif" font-size="14.00">gradOutput = {torch.CudaTensor[2x50x128]}</text>
</a>
</g>
</g>
<!-- n8&#45;&gt;n5 -->
<g id="edge7" class="edge"><title>n8&#45;&gt;n5</title>
<path fill="none" stroke="black" d="M565.298,-909.727C524.313,-892.899 477.287,-873.591 433.435,-855.587"/>
<polygon fill="black" stroke="black" points="434.709,-852.326 424.129,-851.766 432.05,-858.802 434.709,-852.326"/>
</g>
<!-- n8&#45;&gt;n6 -->
<g id="edge8" class="edge"><title>n8&#45;&gt;n6</title>
<path fill="none" stroke="black" d="M710.177,-898.991C717.461,-886.086 725.254,-872.279 732.728,-859.037"/>
<polygon fill="black" stroke="black" points="735.974,-860.406 737.841,-849.977 729.878,-856.966 735.974,-860.406"/>
</g>
<!-- n9 -->
<g id="node9" class="node"><title>n9</title>
<g id="a_node9"><a xlink:title="[./LanguageModelSkipCon.lua]:57_">
<ellipse fill="none" stroke="black" cx="479" cy="-1111" rx="189.257" ry="58.8803"/>
<text text-anchor="middle" x="479" y="-1137.3" font-family="Times,serif" font-size="14.00">Node9</text>
<text text-anchor="start" x="353" y="-1122.3" font-family="Times,serif" font-size="14.00">input = {torch.CudaTensor[2x50x64]}</text>
<text text-anchor="start" x="353" y="-1107.3" font-family="Times,serif" font-size="14.00">module = nn.LSTM</text>
<text text-anchor="start" x="353" y="-1092.3" font-family="Times,serif" font-size="14.00">reverseMap = {}</text>
<text text-anchor="middle" x="479" y="-1077.3" font-family="Times,serif" font-size="14.00">gradOutput = {torch.CudaTensor[2x50x128]}</text>
</a>
</g>
</g>
<!-- n9&#45;&gt;n7 -->
<g id="edge9" class="edge"><title>n9&#45;&gt;n7</title>
<path fill="none" stroke="black" d="M409.193,-1056.41C392.927,-1043.92 375.506,-1030.55 358.914,-1017.81"/>
<polygon fill="black" stroke="black" points="360.908,-1014.93 350.844,-1011.62 356.645,-1020.48 360.908,-1014.93"/>
</g>
<!-- n9&#45;&gt;n8 -->
<g id="edge10" class="edge"><title>n9&#45;&gt;n8</title>
<path fill="none" stroke="black" d="M549.16,-1056.41C565.508,-1043.92 583.017,-1030.55 599.692,-1017.81"/>
<polygon fill="black" stroke="black" points="601.98,-1020.47 607.803,-1011.62 597.731,-1014.91 601.98,-1020.47"/>
</g>
<!-- n10 -->
<g id="node10" class="node"><title>n10</title>
<g id="a_node10"><a xlink:title="[./LanguageModelSkipCon.lua]:41_">
<ellipse fill="red" stroke="black" cx="479" cy="-1265" rx="146.057" ry="58.8803"/>
<text text-anchor="middle" x="479" y="-1291.3" font-family="Times,serif" font-size="14.00">Node10</text>
<text text-anchor="start" x="383.5" y="-1276.3" font-family="Times,serif" font-size="14.00">input = {torch.CudaTensor[2x50]}</text>
<text text-anchor="start" x="383.5" y="-1261.3" font-family="Times,serif" font-size="14.00">module = nn.LookupTable</text>
<text text-anchor="start" x="383.5" y="-1246.3" font-family="Times,serif" font-size="14.00">reverseMap = {}</text>
<text text-anchor="middle" x="479" y="-1231.3" font-family="Times,serif" font-size="14.00">gradOutput = {}</text>
</a>
</g>
</g>
<!-- n10&#45;&gt;n9 -->
<g id="edge11" class="edge"><title>n10&#45;&gt;n9</title>
<path fill="none" stroke="black" d="M479,-1206.1C479,-1197.54 479,-1188.65 479,-1179.91"/>
<polygon fill="black" stroke="black" points="482.5,-1179.74 479,-1169.74 475.5,-1179.74 482.5,-1179.74"/>
</g>
<!-- n11 -->
<g id="node11" class="node"><title>n11</title>
<g id="a_node11"><a xlink:title="[[C]]:&#45;1_">
<ellipse fill="none" stroke="black" cx="479" cy="-1408" rx="150.982" ry="48.1667"/>
<text text-anchor="middle" x="479" y="-1426.8" font-family="Times,serif" font-size="14.00">Node11</text>
<text text-anchor="start" x="380" y="-1411.8" font-family="Times,serif" font-size="14.00">input = {torch.CudaTensor[2x50]}</text>
<text text-anchor="start" x="380" y="-1396.8" font-family="Times,serif" font-size="14.00">reverseMap = {}</text>
<text text-anchor="middle" x="479" y="-1381.8" font-family="Times,serif" font-size="14.00">gradOutput = {torch.CudaTensor[]}</text>
</a>
</g>
</g>
<!-- n11&#45;&gt;n10 -->
<g id="edge12" class="edge"><title>n11&#45;&gt;n10</title>
<path fill="none" stroke="black" d="M479,-1359.66C479,-1351.38 479,-1342.62 479,-1333.91"/>
<polygon fill="black" stroke="black" points="482.5,-1333.74 479,-1323.74 475.5,-1333.74 482.5,-1333.74"/>
</g>
</g>
</svg>
