<?xml version="1.0" encoding="UTF-8" standalone="no"?>
<!DOCTYPE svg PUBLIC "-//W3C//DTD SVG 1.1//EN"
 "http://www.w3.org/Graphics/SVG/1.1/DTD/svg11.dtd">
<!-- Generated by graphviz version 2.36.0 (20140111.2315)
 -->
<!-- Title: G Pages: 1 -->
<svg width="687pt" height="1359pt"
 viewBox="0.00 0.00 687.00 1359.00" xmlns="http://www.w3.org/2000/svg" xmlns:xlink="http://www.w3.org/1999/xlink">
<g id="graph0" class="graph" transform="scale(1 1) rotate(0) translate(4 1355)">
<title>G</title>
<polygon fill="white" stroke="none" points="-4,4 -4,-1355 683,-1355 683,4 -4,4"/>
<text text-anchor="middle" x="339.5" y="-1335.8" font-family="Times,serif" font-size="14.00">nngraph_1in_1out</text>
<!-- n1 -->
<g id="node1" class="node"><title>n1</title>
<g id="a_node1"><a xlink:title="[./LanguageModelSkipCon.lua]:122_">
<ellipse fill="none" stroke="black" cx="339" cy="-150" rx="94.0678" ry="37.4533"/>
<text text-anchor="middle" x="339" y="-161.3" font-family="Times,serif" font-size="14.00">Node1</text>
<text text-anchor="start" x="280.5" y="-146.3" font-family="Times,serif" font-size="14.00">module = nn.Identity</text>
<text text-anchor="middle" x="339" y="-131.3" font-family="Times,serif" font-size="14.00">reverseMap = {}</text>
</a>
</g>
</g>
<!-- n2 -->
<g id="node2" class="node"><title>n2</title>
<g id="a_node2"><a xlink:title="[[C]]:&#45;1_">
<ellipse fill="none" stroke="black" cx="339" cy="-38" rx="77.1743" ry="37.4533"/>
<text text-anchor="middle" x="339" y="-49.3" font-family="Times,serif" font-size="14.00">Node2</text>
<text text-anchor="start" x="292" y="-34.3" font-family="Times,serif" font-size="14.00">input = {}</text>
<text text-anchor="middle" x="339" y="-19.3" font-family="Times,serif" font-size="14.00">reverseMap = {}</text>
</a>
</g>
</g>
<!-- n1&#45;&gt;n2 -->
<g id="edge1" class="edge"><title>n1&#45;&gt;n2</title>
<path fill="none" stroke="black" d="M339,-112.372C339,-103.927 339,-94.8286 339,-86.0106"/>
<polygon fill="black" stroke="black" points="342.5,-85.8435 339,-75.8435 335.5,-85.8435 342.5,-85.8435"/>
</g>
<!-- n3 -->
<g id="node3" class="node"><title>n3</title>
<g id="a_node3"><a xlink:title="[./LanguageModelSkipCon.lua]:122_">
<ellipse fill="none" stroke="black" cx="339" cy="-315" rx="158.088" ry="90.5193"/>
<text text-anchor="middle" x="339" y="-363.8" font-family="Times,serif" font-size="14.00">Node3</text>
<text text-anchor="start" x="235" y="-348.8" font-family="Times,serif" font-size="14.00">module = nn.Sequential {</text>
<text text-anchor="start" x="235" y="-333.8" font-family="Times,serif" font-size="14.00"> &#160;[input &#45;&gt; (1) &#45;&gt; (2) &#45;&gt; (3) &#45;&gt; output]</text>
<text text-anchor="start" x="235" y="-318.8" font-family="Times,serif" font-size="14.00"> &#160;(1): nn.View(50,&#45;1)</text>
<text text-anchor="start" x="235" y="-303.8" font-family="Times,serif" font-size="14.00"> &#160;(2): nn.Linear(128 &#45;&gt; 65)</text>
<text text-anchor="start" x="235" y="-288.8" font-family="Times,serif" font-size="14.00"> &#160;(3): nn.View(1,50,&#45;1)</text>
<text text-anchor="start" x="235" y="-273.8" font-family="Times,serif" font-size="14.00">}</text>
<text text-anchor="middle" x="339" y="-258.8" font-family="Times,serif" font-size="14.00">reverseMap = {}</text>
</a>
</g>
</g>
<!-- n3&#45;&gt;n1 -->
<g id="edge2" class="edge"><title>n3&#45;&gt;n1</title>
<path fill="none" stroke="black" d="M339,-224.394C339,-215.137 339,-206.022 339,-197.531"/>
<polygon fill="black" stroke="black" points="342.5,-197.517 339,-187.517 335.5,-197.517 342.5,-197.517"/>
</g>
<!-- n4 -->
<g id="node4" class="node"><title>n4</title>
<g id="a_node4"><a xlink:title="[./LanguageModelSkipCon.lua]:122_">
<ellipse fill="red" stroke="black" cx="339" cy="-554" rx="183.272" ry="111.946"/>
<text text-anchor="middle" x="339" y="-617.8" font-family="Times,serif" font-size="14.00">Node4</text>
<text text-anchor="start" x="217" y="-602.8" font-family="Times,serif" font-size="14.00">input = {torch.CudaTensor[1x50x256]}</text>
<text text-anchor="start" x="217" y="-587.8" font-family="Times,serif" font-size="14.00">module = nn.Sequential {</text>
<text text-anchor="start" x="217" y="-572.8" font-family="Times,serif" font-size="14.00"> &#160;[input &#45;&gt; (1) &#45;&gt; (2) &#45;&gt; (3) &#45;&gt; (4) &#45;&gt; output]</text>
<text text-anchor="start" x="217" y="-557.8" font-family="Times,serif" font-size="14.00"> &#160;(1): nn.View(1,1,&#45;1)</text>
<text text-anchor="start" x="217" y="-542.8" font-family="Times,serif" font-size="14.00"> &#160;(2): nn.Linear(256 &#45;&gt; 128)</text>
<text text-anchor="start" x="217" y="-527.8" font-family="Times,serif" font-size="14.00"> &#160;(3): nn.SoftMax</text>
<text text-anchor="start" x="217" y="-512.8" font-family="Times,serif" font-size="14.00"> &#160;(4): nn.View(1,&#45;1)</text>
<text text-anchor="start" x="217" y="-497.8" font-family="Times,serif" font-size="14.00">}</text>
<text text-anchor="middle" x="339" y="-482.8" font-family="Times,serif" font-size="14.00">reverseMap = {}</text>
</a>
</g>
</g>
<!-- n4&#45;&gt;n3 -->
<g id="edge3" class="edge"><title>n4&#45;&gt;n3</title>
<path fill="none" stroke="black" d="M339,-442.133C339,-433.387 339,-424.586 339,-415.921"/>
<polygon fill="black" stroke="black" points="342.5,-415.823 339,-405.823 335.5,-415.823 342.5,-415.823"/>
</g>
<!-- n5 -->
<g id="node5" class="node"><title>n5</title>
<g id="a_node5"><a xlink:title="[./LanguageModelSkipCon.lua]:85_">
<ellipse fill="none" stroke="black" cx="339" cy="-761" rx="281.143" ry="58.8803"/>
<text text-anchor="middle" x="339" y="-787.3" font-family="Times,serif" font-size="14.00">Node5</text>
<text text-anchor="start" x="148" y="-772.3" font-family="Times,serif" font-size="14.00">input = {torch.CudaTensor[1x50x128],torch.CudaTensor[1x50x128]}</text>
<text text-anchor="start" x="148" y="-757.3" font-family="Times,serif" font-size="14.00">module = nn.JoinTable</text>
<text text-anchor="start" x="148" y="-742.3" font-family="Times,serif" font-size="14.00">reverseMap = {}</text>
<text text-anchor="middle" x="339" y="-727.3" font-family="Times,serif" font-size="14.00">mapindex = {Node6,Node7}</text>
</a>
</g>
</g>
<!-- n5&#45;&gt;n4 -->
<g id="edge4" class="edge"><title>n5&#45;&gt;n4</title>
<path fill="none" stroke="black" d="M339,-702.077C339,-693.819 339,-685.081 339,-676.147"/>
<polygon fill="black" stroke="black" points="342.5,-675.993 339,-665.993 335.5,-675.993 342.5,-675.993"/>
</g>
<!-- n6 -->
<g id="node6" class="node"><title>n6</title>
<g id="a_node6"><a xlink:title="[./LanguageModelSkipCon.lua]:64_">
<ellipse fill="none" stroke="black" cx="165" cy="-904" rx="165.195" ry="48.1667"/>
<text text-anchor="middle" x="165" y="-922.8" font-family="Times,serif" font-size="14.00">Node6</text>
<text text-anchor="start" x="56" y="-907.8" font-family="Times,serif" font-size="14.00">input = {torch.CudaTensor[1x50x128]}</text>
<text text-anchor="start" x="56" y="-892.8" font-family="Times,serif" font-size="14.00">module = nn.Identity</text>
<text text-anchor="middle" x="165" y="-877.8" font-family="Times,serif" font-size="14.00">reverseMap = {}</text>
</a>
</g>
</g>
<!-- n6&#45;&gt;n5 -->
<g id="edge5" class="edge"><title>n6&#45;&gt;n5</title>
<path fill="none" stroke="black" d="M220.055,-858.387C233.412,-847.563 247.935,-835.794 262.097,-824.318"/>
<polygon fill="black" stroke="black" points="264.352,-826.995 269.918,-817.98 259.945,-821.557 264.352,-826.995"/>
</g>
<!-- n7 -->
<g id="node7" class="node"><title>n7</title>
<g id="a_node7"><a xlink:title="[./LanguageModelSkipCon.lua]:79_">
<ellipse fill="none" stroke="black" cx="514" cy="-904" rx="165.195" ry="48.1667"/>
<text text-anchor="middle" x="514" y="-922.8" font-family="Times,serif" font-size="14.00">Node7</text>
<text text-anchor="start" x="405" y="-907.8" font-family="Times,serif" font-size="14.00">input = {torch.CudaTensor[1x50x128]}</text>
<text text-anchor="start" x="405" y="-892.8" font-family="Times,serif" font-size="14.00">module = nn.LSTM</text>
<text text-anchor="middle" x="514" y="-877.8" font-family="Times,serif" font-size="14.00">reverseMap = {}</text>
</a>
</g>
</g>
<!-- n7&#45;&gt;n5 -->
<g id="edge6" class="edge"><title>n7&#45;&gt;n5</title>
<path fill="none" stroke="black" d="M458.629,-858.387C445.195,-847.563 430.588,-835.794 416.345,-824.318"/>
<polygon fill="black" stroke="black" points="418.462,-821.529 408.479,-817.98 414.07,-826.98 418.462,-821.529"/>
</g>
<!-- n8 -->
<g id="node8" class="node"><title>n8</title>
<g id="a_node8"><a xlink:title="[./LanguageModelSkipCon.lua]:58_">
<ellipse fill="none" stroke="black" cx="339" cy="-1036" rx="160.27" ry="48.1667"/>
<text text-anchor="middle" x="339" y="-1054.8" font-family="Times,serif" font-size="14.00">Node8</text>
<text text-anchor="start" x="233.5" y="-1039.8" font-family="Times,serif" font-size="14.00">input = {torch.CudaTensor[1x50x64]}</text>
<text text-anchor="start" x="233.5" y="-1024.8" font-family="Times,serif" font-size="14.00">module = nn.LSTM</text>
<text text-anchor="middle" x="339" y="-1009.8" font-family="Times,serif" font-size="14.00">reverseMap = {}</text>
</a>
</g>
</g>
<!-- n8&#45;&gt;n6 -->
<g id="edge7" class="edge"><title>n8&#45;&gt;n6</title>
<path fill="none" stroke="black" d="M280.092,-990.988C264.644,-979.446 247.872,-966.916 232.033,-955.082"/>
<polygon fill="black" stroke="black" points="233.954,-952.148 223.848,-948.967 229.764,-957.756 233.954,-952.148"/>
</g>
<!-- n8&#45;&gt;n7 -->
<g id="edge8" class="edge"><title>n8&#45;&gt;n7</title>
<path fill="none" stroke="black" d="M398.247,-990.988C413.784,-979.446 430.652,-966.916 446.581,-955.082"/>
<polygon fill="black" stroke="black" points="448.874,-957.74 454.814,-948.967 444.699,-952.12 448.874,-957.74"/>
</g>
<!-- n9 -->
<g id="node9" class="node"><title>n9</title>
<g id="a_node9"><a xlink:title="[./LanguageModelSkipCon.lua]:41_">
<ellipse fill="none" stroke="black" cx="339" cy="-1168" rx="146.057" ry="48.1667"/>
<text text-anchor="middle" x="339" y="-1186.8" font-family="Times,serif" font-size="14.00">Node9</text>
<text text-anchor="start" x="243.5" y="-1171.8" font-family="Times,serif" font-size="14.00">input = {torch.CudaTensor[1x50]}</text>
<text text-anchor="start" x="243.5" y="-1156.8" font-family="Times,serif" font-size="14.00">module = nn.LookupTable</text>
<text text-anchor="middle" x="339" y="-1141.8" font-family="Times,serif" font-size="14.00">reverseMap = {}</text>
</a>
</g>
</g>
<!-- n9&#45;&gt;n8 -->
<g id="edge9" class="edge"><title>n9&#45;&gt;n8</title>
<path fill="none" stroke="black" d="M339,-1119.7C339,-1111.54 339,-1102.99 339,-1094.6"/>
<polygon fill="black" stroke="black" points="342.5,-1094.48 339,-1084.48 335.5,-1094.48 342.5,-1094.48"/>
</g>
<!-- n10 -->
<g id="node10" class="node"><title>n10</title>
<g id="a_node10"><a xlink:title="[[C]]:&#45;1_">
<ellipse fill="none" stroke="black" cx="339" cy="-1290" rx="146.057" ry="37.4533"/>
<text text-anchor="middle" x="339" y="-1301.3" font-family="Times,serif" font-size="14.00">Node10</text>
<text text-anchor="start" x="243.5" y="-1286.3" font-family="Times,serif" font-size="14.00">input = {torch.CudaTensor[1x50]}</text>
<text text-anchor="middle" x="339" y="-1271.3" font-family="Times,serif" font-size="14.00">reverseMap = {}</text>
</a>
</g>
</g>
<!-- n10&#45;&gt;n9 -->
<g id="edge10" class="edge"><title>n10&#45;&gt;n9</title>
<path fill="none" stroke="black" d="M339,-1252.34C339,-1244.22 339,-1235.42 339,-1226.68"/>
<polygon fill="black" stroke="black" points="342.5,-1226.5 339,-1216.5 335.5,-1226.5 342.5,-1226.5"/>
</g>
</g>
</svg>
