<?xml version="1.0" encoding="UTF-8" standalone="no"?>
<!DOCTYPE svg PUBLIC "-//W3C//DTD SVG 1.1//EN"
 "http://www.w3.org/Graphics/SVG/1.1/DTD/svg11.dtd">
<!-- Generated by graphviz version 2.36.0 (20140111.2315)
 -->
<!-- Title: G Pages: 1 -->
<svg width="968pt" height="1663pt"
 viewBox="0.00 0.00 968.00 1663.00" xmlns="http://www.w3.org/2000/svg" xmlns:xlink="http://www.w3.org/1999/xlink">
<g id="graph0" class="graph" transform="scale(1 1) rotate(0) translate(4 1659)">
<title>G</title>
<polygon fill="white" stroke="none" points="-4,4 -4,-1659 964,-1659 964,4 -4,4"/>
<text text-anchor="middle" x="480" y="-1639.8" font-family="Times,serif" font-size="14.00">nngraph_1in_1out</text>
<!-- n1 -->
<g id="node1" class="node"><title>n1</title>
<g id="a_node1"><a xlink:title="[./LanguageModelSkipCon.lua]:123_">
<ellipse fill="none" stroke="black" cx="525" cy="-191" rx="184.332" ry="58.8803"/>
<text text-anchor="middle" x="525" y="-217.3" font-family="Times,serif" font-size="14.00">Node1</text>
<text text-anchor="start" x="402.5" y="-202.3" font-family="Times,serif" font-size="14.00">input = {torch.CudaTensor[1x50x65]}</text>
<text text-anchor="start" x="402.5" y="-187.3" font-family="Times,serif" font-size="14.00">module = nn.Identity</text>
<text text-anchor="start" x="402.5" y="-172.3" font-family="Times,serif" font-size="14.00">reverseMap = {}</text>
<text text-anchor="middle" x="525" y="-157.3" font-family="Times,serif" font-size="14.00">gradOutput = {torch.CudaTensor[1x50x65]}</text>
</a>
</g>
</g>
<!-- n2 -->
<g id="node2" class="node"><title>n2</title>
<g id="a_node2"><a xlink:title="[[C]]:&#45;1_">
<ellipse fill="none" stroke="black" cx="525" cy="-48" rx="184.332" ry="48.1667"/>
<text text-anchor="middle" x="525" y="-66.8" font-family="Times,serif" font-size="14.00">Node2</text>
<text text-anchor="start" x="402.5" y="-51.8" font-family="Times,serif" font-size="14.00">input = {torch.CudaTensor[1x50x65]}</text>
<text text-anchor="start" x="402.5" y="-36.8" font-family="Times,serif" font-size="14.00">reverseMap = {}</text>
<text text-anchor="middle" x="525" y="-21.8" font-family="Times,serif" font-size="14.00">gradOutput = {torch.CudaTensor[1x50x65]}</text>
</a>
</g>
</g>
<!-- n1&#45;&gt;n2 -->
<g id="edge1" class="edge"><title>n1&#45;&gt;n2</title>
<path fill="none" stroke="black" d="M525,-132.243C525,-123.7 525,-114.899 525,-106.364"/>
<polygon fill="black" stroke="black" points="528.5,-106.121 525,-96.1209 521.5,-106.121 528.5,-106.121"/>
</g>
<!-- n3 -->
<g id="node3" class="node"><title>n3</title>
<g id="a_node3"><a xlink:title="[./LanguageModelSkipCon.lua]:123_">
<ellipse fill="none" stroke="black" cx="525" cy="-398" rx="184.332" ry="111.946"/>
<text text-anchor="middle" x="525" y="-461.8" font-family="Times,serif" font-size="14.00">Node3</text>
<text text-anchor="start" x="402.5" y="-446.8" font-family="Times,serif" font-size="14.00">input = {torch.CudaTensor[1x50x512]}</text>
<text text-anchor="start" x="402.5" y="-431.8" font-family="Times,serif" font-size="14.00">module = nn.Sequential {</text>
<text text-anchor="start" x="402.5" y="-416.8" font-family="Times,serif" font-size="14.00"> &#160;[input &#45;&gt; (1) &#45;&gt; (2) &#45;&gt; (3) &#45;&gt; output]</text>
<text text-anchor="start" x="402.5" y="-401.8" font-family="Times,serif" font-size="14.00"> &#160;(1): nn.View(50,&#45;1)</text>
<text text-anchor="start" x="402.5" y="-386.8" font-family="Times,serif" font-size="14.00"> &#160;(2): nn.Linear(512 &#45;&gt; 65)</text>
<text text-anchor="start" x="402.5" y="-371.8" font-family="Times,serif" font-size="14.00"> &#160;(3): nn.View(1,50,&#45;1)</text>
<text text-anchor="start" x="402.5" y="-356.8" font-family="Times,serif" font-size="14.00">}</text>
<text text-anchor="start" x="402.5" y="-341.8" font-family="Times,serif" font-size="14.00">reverseMap = {}</text>
<text text-anchor="middle" x="525" y="-326.8" font-family="Times,serif" font-size="14.00">gradOutput = {torch.CudaTensor[1x50x65]}</text>
</a>
</g>
</g>
<!-- n3&#45;&gt;n1 -->
<g id="edge2" class="edge"><title>n3&#45;&gt;n1</title>
<path fill="none" stroke="black" d="M525,-286.1C525,-277.18 525,-268.345 525,-259.868"/>
<polygon fill="black" stroke="black" points="528.5,-259.724 525,-249.724 521.5,-259.724 528.5,-259.724"/>
</g>
<!-- n4 -->
<g id="node4" class="node"><title>n4</title>
<g id="a_node4"><a xlink:title="[./LanguageModelSkipCon.lua]:84_">
<ellipse fill="none" stroke="black" cx="525" cy="-616" rx="281.143" ry="69.0935"/>
<text text-anchor="middle" x="525" y="-649.8" font-family="Times,serif" font-size="14.00">Node4</text>
<text text-anchor="start" x="334" y="-634.8" font-family="Times,serif" font-size="14.00">input = {torch.CudaTensor[1x50x384],torch.CudaTensor[1x50x128]}</text>
<text text-anchor="start" x="334" y="-619.8" font-family="Times,serif" font-size="14.00">mapindex = {Node5,Node6}</text>
<text text-anchor="start" x="334" y="-604.8" font-family="Times,serif" font-size="14.00">module = nn.JoinTable</text>
<text text-anchor="start" x="334" y="-589.8" font-family="Times,serif" font-size="14.00">reverseMap = {}</text>
<text text-anchor="middle" x="525" y="-574.8" font-family="Times,serif" font-size="14.00">gradOutput = {torch.CudaTensor[1x50x512]}</text>
</a>
</g>
</g>
<!-- n4&#45;&gt;n3 -->
<g id="edge3" class="edge"><title>n4&#45;&gt;n3</title>
<path fill="none" stroke="black" d="M525,-546.656C525,-538.125 525,-529.211 525,-520.171"/>
<polygon fill="black" stroke="black" points="528.5,-519.926 525,-509.926 521.5,-519.926 528.5,-519.926"/>
</g>
<!-- n5 -->
<g id="node5" class="node"><title>n5</title>
<g id="a_node5"><a xlink:title="[./LanguageModelSkipCon.lua]:84_">
<ellipse fill="none" stroke="black" cx="281" cy="-792" rx="281.143" ry="69.0935"/>
<text text-anchor="middle" x="281" y="-825.8" font-family="Times,serif" font-size="14.00">Node5</text>
<text text-anchor="start" x="90" y="-810.8" font-family="Times,serif" font-size="14.00">input = {torch.CudaTensor[1x50x256],torch.CudaTensor[1x50x128]}</text>
<text text-anchor="start" x="90" y="-795.8" font-family="Times,serif" font-size="14.00">mapindex = {Node7,Node8}</text>
<text text-anchor="start" x="90" y="-780.8" font-family="Times,serif" font-size="14.00">module = nn.JoinTable</text>
<text text-anchor="start" x="90" y="-765.8" font-family="Times,serif" font-size="14.00">reverseMap = {}</text>
<text text-anchor="middle" x="281" y="-750.8" font-family="Times,serif" font-size="14.00">gradOutput = {torch.CudaTensor[1x50x384]}</text>
</a>
</g>
</g>
<!-- n5&#45;&gt;n4 -->
<g id="edge4" class="edge"><title>n5&#45;&gt;n4</title>
<path fill="none" stroke="black" d="M371.857,-726.209C389.481,-713.64 408.035,-700.409 425.909,-687.663"/>
<polygon fill="black" stroke="black" points="427.958,-690.501 434.068,-681.845 423.894,-684.802 427.958,-690.501"/>
</g>
<!-- n6 -->
<g id="node6" class="node"><title>n6</title>
<g id="a_node6"><a xlink:title="[./LanguageModelSkipCon.lua]:78_">
<ellipse fill="none" stroke="black" cx="770" cy="-792" rx="189.257" ry="58.8803"/>
<text text-anchor="middle" x="770" y="-818.3" font-family="Times,serif" font-size="14.00">Node6</text>
<text text-anchor="start" x="644" y="-803.3" font-family="Times,serif" font-size="14.00">input = {torch.CudaTensor[1x50x128]}</text>
<text text-anchor="start" x="644" y="-788.3" font-family="Times,serif" font-size="14.00">module = nn.LSTM</text>
<text text-anchor="start" x="644" y="-773.3" font-family="Times,serif" font-size="14.00">reverseMap = {}</text>
<text text-anchor="middle" x="770" y="-758.3" font-family="Times,serif" font-size="14.00">gradOutput = {torch.CudaTensor[1x50x128]}</text>
</a>
</g>
</g>
<!-- n6&#45;&gt;n4 -->
<g id="edge5" class="edge"><title>n6&#45;&gt;n4</title>
<path fill="none" stroke="black" d="M695.161,-737.849C672.88,-722.025 648.107,-704.431 624.513,-687.675"/>
<polygon fill="black" stroke="black" points="626.403,-684.724 616.224,-681.787 622.35,-690.431 626.403,-684.724"/>
</g>
<!-- n7 -->
<g id="node7" class="node"><title>n7</title>
<g id="a_node7"><a xlink:title="[./LanguageModelSkipCon.lua]:84_">
<ellipse fill="none" stroke="black" cx="281" cy="-968" rx="281.143" ry="69.0935"/>
<text text-anchor="middle" x="281" y="-1001.8" font-family="Times,serif" font-size="14.00">Node7</text>
<text text-anchor="start" x="90" y="-986.8" font-family="Times,serif" font-size="14.00">input = {torch.CudaTensor[1x50x128],torch.CudaTensor[1x50x128]}</text>
<text text-anchor="start" x="90" y="-971.8" font-family="Times,serif" font-size="14.00">mapindex = {Node9,Node10}</text>
<text text-anchor="start" x="90" y="-956.8" font-family="Times,serif" font-size="14.00">module = nn.JoinTable</text>
<text text-anchor="start" x="90" y="-941.8" font-family="Times,serif" font-size="14.00">reverseMap = {}</text>
<text text-anchor="middle" x="281" y="-926.8" font-family="Times,serif" font-size="14.00">gradOutput = {torch.CudaTensor[1x50x256]}</text>
</a>
</g>
</g>
<!-- n7&#45;&gt;n5 -->
<g id="edge6" class="edge"><title>n7&#45;&gt;n5</title>
<path fill="none" stroke="black" d="M281,-898.231C281,-889.56 281,-880.636 281,-871.824"/>
<polygon fill="black" stroke="black" points="284.5,-871.555 281,-861.555 277.5,-871.555 284.5,-871.555"/>
</g>
<!-- n8 -->
<g id="node8" class="node"><title>n8</title>
<g id="a_node8"><a xlink:title="[./LanguageModelSkipCon.lua]:78_">
<ellipse fill="none" stroke="black" cx="770" cy="-968" rx="189.257" ry="58.8803"/>
<text text-anchor="middle" x="770" y="-994.3" font-family="Times,serif" font-size="14.00">Node8</text>
<text text-anchor="start" x="644" y="-979.3" font-family="Times,serif" font-size="14.00">input = {torch.CudaTensor[1x50x128]}</text>
<text text-anchor="start" x="644" y="-964.3" font-family="Times,serif" font-size="14.00">module = nn.LSTM</text>
<text text-anchor="start" x="644" y="-949.3" font-family="Times,serif" font-size="14.00">reverseMap = {}</text>
<text text-anchor="middle" x="770" y="-934.3" font-family="Times,serif" font-size="14.00">gradOutput = {torch.CudaTensor[1x50x128]}</text>
</a>
</g>
</g>
<!-- n8&#45;&gt;n5 -->
<g id="edge7" class="edge"><title>n8&#45;&gt;n5</title>
<path fill="none" stroke="black" d="M647.236,-923.317C587.238,-901.968 514.111,-875.947 449.023,-852.788"/>
<polygon fill="black" stroke="black" points="450.076,-849.447 439.481,-849.392 447.729,-856.042 450.076,-849.447"/>
</g>
<!-- n8&#45;&gt;n6 -->
<g id="edge8" class="edge"><title>n8&#45;&gt;n6</title>
<path fill="none" stroke="black" d="M770,-909.061C770,-893.733 770,-877.046 770,-861.229"/>
<polygon fill="black" stroke="black" points="773.5,-860.983 770,-850.983 766.5,-860.983 773.5,-860.983"/>
</g>
<!-- n9 -->
<g id="node9" class="node"><title>n9</title>
<g id="a_node9"><a xlink:title="[./LanguageModelSkipCon.lua]:63_">
<ellipse fill="none" stroke="black" cx="281" cy="-1133" rx="189.257" ry="58.8803"/>
<text text-anchor="middle" x="281" y="-1159.3" font-family="Times,serif" font-size="14.00">Node9</text>
<text text-anchor="start" x="155" y="-1144.3" font-family="Times,serif" font-size="14.00">input = {torch.CudaTensor[1x50x128]}</text>
<text text-anchor="start" x="155" y="-1129.3" font-family="Times,serif" font-size="14.00">module = nn.Identity</text>
<text text-anchor="start" x="155" y="-1114.3" font-family="Times,serif" font-size="14.00">reverseMap = {}</text>
<text text-anchor="middle" x="281" y="-1099.3" font-family="Times,serif" font-size="14.00">gradOutput = {torch.CudaTensor[1x50x128]}</text>
</a>
</g>
</g>
<!-- n9&#45;&gt;n7 -->
<g id="edge9" class="edge"><title>n9&#45;&gt;n7</title>
<path fill="none" stroke="black" d="M281,-1074.07C281,-1065.43 281,-1056.4 281,-1047.42"/>
<polygon fill="black" stroke="black" points="284.5,-1047.33 281,-1037.33 277.5,-1047.33 284.5,-1047.33"/>
</g>
<!-- n10 -->
<g id="node10" class="node"><title>n10</title>
<g id="a_node10"><a xlink:title="[./LanguageModelSkipCon.lua]:78_">
<ellipse fill="none" stroke="black" cx="678" cy="-1133" rx="189.257" ry="58.8803"/>
<text text-anchor="middle" x="678" y="-1159.3" font-family="Times,serif" font-size="14.00">Node10</text>
<text text-anchor="start" x="552" y="-1144.3" font-family="Times,serif" font-size="14.00">input = {torch.CudaTensor[1x50x128]}</text>
<text text-anchor="start" x="552" y="-1129.3" font-family="Times,serif" font-size="14.00">module = nn.LSTM</text>
<text text-anchor="start" x="552" y="-1114.3" font-family="Times,serif" font-size="14.00">reverseMap = {}</text>
<text text-anchor="middle" x="678" y="-1099.3" font-family="Times,serif" font-size="14.00">gradOutput = {torch.CudaTensor[1x50x128]}</text>
</a>
</g>
</g>
<!-- n10&#45;&gt;n7 -->
<g id="edge10" class="edge"><title>n10&#45;&gt;n7</title>
<path fill="none" stroke="black" d="M565.298,-1085.73C524.313,-1068.9 477.287,-1049.59 433.435,-1031.59"/>
<polygon fill="black" stroke="black" points="434.709,-1028.33 424.129,-1027.77 432.05,-1034.8 434.709,-1028.33"/>
</g>
<!-- n10&#45;&gt;n8 -->
<g id="edge11" class="edge"><title>n10&#45;&gt;n8</title>
<path fill="none" stroke="black" d="M710.177,-1074.99C717.461,-1062.09 725.254,-1048.28 732.728,-1035.04"/>
<polygon fill="black" stroke="black" points="735.974,-1036.41 737.841,-1025.98 729.878,-1032.97 735.974,-1036.41"/>
</g>
<!-- n11 -->
<g id="node11" class="node"><title>n11</title>
<g id="a_node11"><a xlink:title="[./LanguageModelSkipCon.lua]:57_">
<ellipse fill="none" stroke="black" cx="479" cy="-1287" rx="189.257" ry="58.8803"/>
<text text-anchor="middle" x="479" y="-1313.3" font-family="Times,serif" font-size="14.00">Node11</text>
<text text-anchor="start" x="353" y="-1298.3" font-family="Times,serif" font-size="14.00">input = {torch.CudaTensor[1x50x64]}</text>
<text text-anchor="start" x="353" y="-1283.3" font-family="Times,serif" font-size="14.00">module = nn.LSTM</text>
<text text-anchor="start" x="353" y="-1268.3" font-family="Times,serif" font-size="14.00">reverseMap = {}</text>
<text text-anchor="middle" x="479" y="-1253.3" font-family="Times,serif" font-size="14.00">gradOutput = {torch.CudaTensor[1x50x128]}</text>
</a>
</g>
</g>
<!-- n11&#45;&gt;n9 -->
<g id="edge12" class="edge"><title>n11&#45;&gt;n9</title>
<path fill="none" stroke="black" d="M409.193,-1232.41C392.927,-1219.92 375.506,-1206.55 358.914,-1193.81"/>
<polygon fill="black" stroke="black" points="360.908,-1190.93 350.844,-1187.62 356.645,-1196.48 360.908,-1190.93"/>
</g>
<!-- n11&#45;&gt;n10 -->
<g id="edge13" class="edge"><title>n11&#45;&gt;n10</title>
<path fill="none" stroke="black" d="M549.16,-1232.41C565.508,-1219.92 583.017,-1206.55 599.692,-1193.81"/>
<polygon fill="black" stroke="black" points="601.98,-1196.47 607.803,-1187.62 597.731,-1190.91 601.98,-1196.47"/>
</g>
<!-- n12 -->
<g id="node12" class="node"><title>n12</title>
<g id="a_node12"><a xlink:title="[./LanguageModelSkipCon.lua]:41_">
<ellipse fill="red" stroke="black" cx="479" cy="-1441" rx="146.057" ry="58.8803"/>
<text text-anchor="middle" x="479" y="-1467.3" font-family="Times,serif" font-size="14.00">Node12</text>
<text text-anchor="start" x="383.5" y="-1452.3" font-family="Times,serif" font-size="14.00">input = {torch.CudaTensor[1x50]}</text>
<text text-anchor="start" x="383.5" y="-1437.3" font-family="Times,serif" font-size="14.00">module = nn.LookupTable</text>
<text text-anchor="start" x="383.5" y="-1422.3" font-family="Times,serif" font-size="14.00">reverseMap = {}</text>
<text text-anchor="middle" x="479" y="-1407.3" font-family="Times,serif" font-size="14.00">gradOutput = {}</text>
</a>
</g>
</g>
<!-- n12&#45;&gt;n11 -->
<g id="edge14" class="edge"><title>n12&#45;&gt;n11</title>
<path fill="none" stroke="black" d="M479,-1382.1C479,-1373.54 479,-1364.65 479,-1355.91"/>
<polygon fill="black" stroke="black" points="482.5,-1355.74 479,-1345.74 475.5,-1355.74 482.5,-1355.74"/>
</g>
<!-- n13 -->
<g id="node13" class="node"><title>n13</title>
<g id="a_node13"><a xlink:title="[[C]]:&#45;1_">
<ellipse fill="none" stroke="black" cx="479" cy="-1584" rx="150.982" ry="48.1667"/>
<text text-anchor="middle" x="479" y="-1602.8" font-family="Times,serif" font-size="14.00">Node13</text>
<text text-anchor="start" x="380" y="-1587.8" font-family="Times,serif" font-size="14.00">input = {torch.CudaTensor[1x50]}</text>
<text text-anchor="start" x="380" y="-1572.8" font-family="Times,serif" font-size="14.00">reverseMap = {}</text>
<text text-anchor="middle" x="479" y="-1557.8" font-family="Times,serif" font-size="14.00">gradOutput = {torch.CudaTensor[]}</text>
</a>
</g>
</g>
<!-- n13&#45;&gt;n12 -->
<g id="edge15" class="edge"><title>n13&#45;&gt;n12</title>
<path fill="none" stroke="black" d="M479,-1535.66C479,-1527.38 479,-1518.62 479,-1509.91"/>
<polygon fill="black" stroke="black" points="482.5,-1509.74 479,-1499.74 475.5,-1509.74 482.5,-1509.74"/>
</g>
</g>
</svg>
