<?xml version="1.0" encoding="UTF-8" standalone="no"?>
<!DOCTYPE svg PUBLIC "-//W3C//DTD SVG 1.1//EN"
 "http://www.w3.org/Graphics/SVG/1.1/DTD/svg11.dtd">
<!-- Generated by graphviz version 2.36.0 (20140111.2315)
 -->
<!-- Title: G Pages: 1 -->
<svg width="783pt" height="1311pt"
 viewBox="0.00 0.00 783.00 1311.00" xmlns="http://www.w3.org/2000/svg" xmlns:xlink="http://www.w3.org/1999/xlink">
<g id="graph0" class="graph" transform="scale(1 1) rotate(0) translate(4 1307)">
<title>G</title>
<polygon fill="white" stroke="none" points="-4,4 -4,-1307 779,-1307 779,4 -4,4"/>
<text text-anchor="middle" x="387.5" y="-1287.8" font-family="Times,serif" font-size="14.00">nngraph_1in_1out</text>
<!-- n1 -->
<g id="node1" class="node"><title>n1</title>
<g id="a_node1"><a xlink:title="[./LanguageModelSkipCon.lua]:123_">
<ellipse fill="none" stroke="black" cx="387" cy="-191" rx="184.332" ry="58.8803"/>
<text text-anchor="middle" x="387" y="-217.3" font-family="Times,serif" font-size="14.00">Node1</text>
<text text-anchor="start" x="264.5" y="-202.3" font-family="Times,serif" font-size="14.00">input = {torch.CudaTensor[1x50x65]}</text>
<text text-anchor="start" x="264.5" y="-187.3" font-family="Times,serif" font-size="14.00">module = nn.Identity</text>
<text text-anchor="start" x="264.5" y="-172.3" font-family="Times,serif" font-size="14.00">reverseMap = {}</text>
<text text-anchor="middle" x="387" y="-157.3" font-family="Times,serif" font-size="14.00">gradOutput = {torch.CudaTensor[1x50x65]}</text>
</a>
</g>
</g>
<!-- n2 -->
<g id="node2" class="node"><title>n2</title>
<g id="a_node2"><a xlink:title="[[C]]:&#45;1_">
<ellipse fill="none" stroke="black" cx="387" cy="-48" rx="184.332" ry="48.1667"/>
<text text-anchor="middle" x="387" y="-66.8" font-family="Times,serif" font-size="14.00">Node2</text>
<text text-anchor="start" x="264.5" y="-51.8" font-family="Times,serif" font-size="14.00">input = {torch.CudaTensor[1x50x65]}</text>
<text text-anchor="start" x="264.5" y="-36.8" font-family="Times,serif" font-size="14.00">reverseMap = {}</text>
<text text-anchor="middle" x="387" y="-21.8" font-family="Times,serif" font-size="14.00">gradOutput = {torch.CudaTensor[1x50x65]}</text>
</a>
</g>
</g>
<!-- n1&#45;&gt;n2 -->
<g id="edge1" class="edge"><title>n1&#45;&gt;n2</title>
<path fill="none" stroke="black" d="M387,-132.243C387,-123.7 387,-114.899 387,-106.364"/>
<polygon fill="black" stroke="black" points="390.5,-106.121 387,-96.1209 383.5,-106.121 390.5,-106.121"/>
</g>
<!-- n3 -->
<g id="node3" class="node"><title>n3</title>
<g id="a_node3"><a xlink:title="[./LanguageModelSkipCon.lua]:123_">
<ellipse fill="none" stroke="black" cx="387" cy="-398" rx="184.332" ry="111.946"/>
<text text-anchor="middle" x="387" y="-461.8" font-family="Times,serif" font-size="14.00">Node3</text>
<text text-anchor="start" x="264.5" y="-446.8" font-family="Times,serif" font-size="14.00">input = {torch.CudaTensor[1x50x256]}</text>
<text text-anchor="start" x="264.5" y="-431.8" font-family="Times,serif" font-size="14.00">module = nn.Sequential {</text>
<text text-anchor="start" x="264.5" y="-416.8" font-family="Times,serif" font-size="14.00"> &#160;[input &#45;&gt; (1) &#45;&gt; (2) &#45;&gt; (3) &#45;&gt; output]</text>
<text text-anchor="start" x="264.5" y="-401.8" font-family="Times,serif" font-size="14.00"> &#160;(1): nn.View(50,&#45;1)</text>
<text text-anchor="start" x="264.5" y="-386.8" font-family="Times,serif" font-size="14.00"> &#160;(2): nn.Linear(256 &#45;&gt; 65)</text>
<text text-anchor="start" x="264.5" y="-371.8" font-family="Times,serif" font-size="14.00"> &#160;(3): nn.View(1,50,&#45;1)</text>
<text text-anchor="start" x="264.5" y="-356.8" font-family="Times,serif" font-size="14.00">}</text>
<text text-anchor="start" x="264.5" y="-341.8" font-family="Times,serif" font-size="14.00">reverseMap = {}</text>
<text text-anchor="middle" x="387" y="-326.8" font-family="Times,serif" font-size="14.00">gradOutput = {torch.CudaTensor[1x50x65]}</text>
</a>
</g>
</g>
<!-- n3&#45;&gt;n1 -->
<g id="edge2" class="edge"><title>n3&#45;&gt;n1</title>
<path fill="none" stroke="black" d="M387,-286.1C387,-277.18 387,-268.345 387,-259.868"/>
<polygon fill="black" stroke="black" points="390.5,-259.724 387,-249.724 383.5,-259.724 390.5,-259.724"/>
</g>
<!-- n4 -->
<g id="node4" class="node"><title>n4</title>
<g id="a_node4"><a xlink:title="[./LanguageModelSkipCon.lua]:85_">
<ellipse fill="none" stroke="black" cx="387" cy="-616" rx="281.143" ry="69.0935"/>
<text text-anchor="middle" x="387" y="-649.8" font-family="Times,serif" font-size="14.00">Node4</text>
<text text-anchor="start" x="196" y="-634.8" font-family="Times,serif" font-size="14.00">input = {torch.CudaTensor[1x50x128],torch.CudaTensor[1x50x128]}</text>
<text text-anchor="start" x="196" y="-619.8" font-family="Times,serif" font-size="14.00">mapindex = {Node5,Node6}</text>
<text text-anchor="start" x="196" y="-604.8" font-family="Times,serif" font-size="14.00">module = nn.JoinTable</text>
<text text-anchor="start" x="196" y="-589.8" font-family="Times,serif" font-size="14.00">reverseMap = {}</text>
<text text-anchor="middle" x="387" y="-574.8" font-family="Times,serif" font-size="14.00">gradOutput = {torch.CudaTensor[1x50x256]}</text>
</a>
</g>
</g>
<!-- n4&#45;&gt;n3 -->
<g id="edge3" class="edge"><title>n4&#45;&gt;n3</title>
<path fill="none" stroke="black" d="M387,-546.656C387,-538.125 387,-529.211 387,-520.171"/>
<polygon fill="black" stroke="black" points="390.5,-519.926 387,-509.926 383.5,-519.926 390.5,-519.926"/>
</g>
<!-- n5 -->
<g id="node5" class="node"><title>n5</title>
<g id="a_node5"><a xlink:title="[./LanguageModelSkipCon.lua]:64_">
<ellipse fill="none" stroke="black" cx="189" cy="-781" rx="189.257" ry="58.8803"/>
<text text-anchor="middle" x="189" y="-807.3" font-family="Times,serif" font-size="14.00">Node5</text>
<text text-anchor="start" x="63" y="-792.3" font-family="Times,serif" font-size="14.00">input = {torch.CudaTensor[1x50x128]}</text>
<text text-anchor="start" x="63" y="-777.3" font-family="Times,serif" font-size="14.00">module = nn.Identity</text>
<text text-anchor="start" x="63" y="-762.3" font-family="Times,serif" font-size="14.00">reverseMap = {}</text>
<text text-anchor="middle" x="189" y="-747.3" font-family="Times,serif" font-size="14.00">gradOutput = {torch.CudaTensor[1x50x128]}</text>
</a>
</g>
</g>
<!-- n5&#45;&gt;n4 -->
<g id="edge4" class="edge"><title>n5&#45;&gt;n4</title>
<path fill="none" stroke="black" d="M254.656,-725.95C269.035,-714.112 284.477,-701.4 299.556,-688.987"/>
<polygon fill="black" stroke="black" points="301.905,-691.587 307.401,-682.529 297.456,-686.182 301.905,-691.587"/>
</g>
<!-- n6 -->
<g id="node6" class="node"><title>n6</title>
<g id="a_node6"><a xlink:title="[./LanguageModelSkipCon.lua]:79_">
<ellipse fill="none" stroke="black" cx="586" cy="-781" rx="189.257" ry="58.8803"/>
<text text-anchor="middle" x="586" y="-807.3" font-family="Times,serif" font-size="14.00">Node6</text>
<text text-anchor="start" x="460" y="-792.3" font-family="Times,serif" font-size="14.00">input = {torch.CudaTensor[1x50x128]}</text>
<text text-anchor="start" x="460" y="-777.3" font-family="Times,serif" font-size="14.00">module = nn.LSTM</text>
<text text-anchor="start" x="460" y="-762.3" font-family="Times,serif" font-size="14.00">reverseMap = {}</text>
<text text-anchor="middle" x="586" y="-747.3" font-family="Times,serif" font-size="14.00">gradOutput = {torch.CudaTensor[1x50x128]}</text>
</a>
</g>
</g>
<!-- n6&#45;&gt;n4 -->
<g id="edge5" class="edge"><title>n6&#45;&gt;n4</title>
<path fill="none" stroke="black" d="M520.012,-725.95C505.561,-714.112 490.041,-701.4 474.886,-688.987"/>
<polygon fill="black" stroke="black" points="476.955,-686.158 467.001,-682.529 472.52,-691.573 476.955,-686.158"/>
</g>
<!-- n7 -->
<g id="node7" class="node"><title>n7</title>
<g id="a_node7"><a xlink:title="[./LanguageModelSkipCon.lua]:58_">
<ellipse fill="none" stroke="black" cx="387" cy="-935" rx="189.257" ry="58.8803"/>
<text text-anchor="middle" x="387" y="-961.3" font-family="Times,serif" font-size="14.00">Node7</text>
<text text-anchor="start" x="261" y="-946.3" font-family="Times,serif" font-size="14.00">input = {torch.CudaTensor[1x50x64]}</text>
<text text-anchor="start" x="261" y="-931.3" font-family="Times,serif" font-size="14.00">module = nn.LSTM</text>
<text text-anchor="start" x="261" y="-916.3" font-family="Times,serif" font-size="14.00">reverseMap = {}</text>
<text text-anchor="middle" x="387" y="-901.3" font-family="Times,serif" font-size="14.00">gradOutput = {torch.CudaTensor[1x50x128]}</text>
</a>
</g>
</g>
<!-- n7&#45;&gt;n5 -->
<g id="edge6" class="edge"><title>n7&#45;&gt;n5</title>
<path fill="none" stroke="black" d="M317.193,-880.41C300.927,-867.924 283.506,-854.55 266.914,-841.813"/>
<polygon fill="black" stroke="black" points="268.908,-838.931 258.844,-835.618 264.645,-844.484 268.908,-838.931"/>
</g>
<!-- n7&#45;&gt;n6 -->
<g id="edge7" class="edge"><title>n7&#45;&gt;n6</title>
<path fill="none" stroke="black" d="M457.16,-880.41C473.508,-867.924 491.017,-854.55 507.692,-841.813"/>
<polygon fill="black" stroke="black" points="509.98,-844.469 515.803,-835.618 505.731,-838.907 509.98,-844.469"/>
</g>
<!-- n8 -->
<g id="node8" class="node"><title>n8</title>
<g id="a_node8"><a xlink:title="[./LanguageModelSkipCon.lua]:41_">
<ellipse fill="red" stroke="black" cx="387" cy="-1089" rx="146.057" ry="58.8803"/>
<text text-anchor="middle" x="387" y="-1115.3" font-family="Times,serif" font-size="14.00">Node8</text>
<text text-anchor="start" x="291.5" y="-1100.3" font-family="Times,serif" font-size="14.00">input = {torch.CudaTensor[1x50]}</text>
<text text-anchor="start" x="291.5" y="-1085.3" font-family="Times,serif" font-size="14.00">module = nn.LookupTable</text>
<text text-anchor="start" x="291.5" y="-1070.3" font-family="Times,serif" font-size="14.00">reverseMap = {}</text>
<text text-anchor="middle" x="387" y="-1055.3" font-family="Times,serif" font-size="14.00">gradOutput = {}</text>
</a>
</g>
</g>
<!-- n8&#45;&gt;n7 -->
<g id="edge8" class="edge"><title>n8&#45;&gt;n7</title>
<path fill="none" stroke="black" d="M387,-1030.1C387,-1021.54 387,-1012.65 387,-1003.91"/>
<polygon fill="black" stroke="black" points="390.5,-1003.74 387,-993.737 383.5,-1003.74 390.5,-1003.74"/>
</g>
<!-- n9 -->
<g id="node9" class="node"><title>n9</title>
<g id="a_node9"><a xlink:title="[[C]]:&#45;1_">
<ellipse fill="none" stroke="black" cx="387" cy="-1232" rx="150.982" ry="48.1667"/>
<text text-anchor="middle" x="387" y="-1250.8" font-family="Times,serif" font-size="14.00">Node9</text>
<text text-anchor="start" x="288" y="-1235.8" font-family="Times,serif" font-size="14.00">input = {torch.CudaTensor[1x50]}</text>
<text text-anchor="start" x="288" y="-1220.8" font-family="Times,serif" font-size="14.00">reverseMap = {}</text>
<text text-anchor="middle" x="387" y="-1205.8" font-family="Times,serif" font-size="14.00">gradOutput = {torch.CudaTensor[]}</text>
</a>
</g>
</g>
<!-- n9&#45;&gt;n8 -->
<g id="edge9" class="edge"><title>n9&#45;&gt;n8</title>
<path fill="none" stroke="black" d="M387,-1183.66C387,-1175.38 387,-1166.62 387,-1157.91"/>
<polygon fill="black" stroke="black" points="390.5,-1157.74 387,-1147.74 383.5,-1157.74 390.5,-1157.74"/>
</g>
</g>
</svg>
