<?xml version="1.0" encoding="UTF-8" standalone="no"?>
<!DOCTYPE svg PUBLIC "-//W3C//DTD SVG 1.1//EN"
 "http://www.w3.org/Graphics/SVG/1.1/DTD/svg11.dtd">
<!-- Generated by graphviz version 2.36.0 (20140111.2315)
 -->
<!-- Title: G Pages: 1 -->
<svg width="788pt" height="1475pt"
 viewBox="0.00 0.00 788.00 1475.00" xmlns="http://www.w3.org/2000/svg" xmlns:xlink="http://www.w3.org/1999/xlink">
<g id="graph0" class="graph" transform="scale(1 1) rotate(0) translate(4 1471)">
<title>G</title>
<polygon fill="white" stroke="none" points="-4,4 -4,-1471 784,-1471 784,4 -4,4"/>
<text text-anchor="middle" x="390" y="-1451.8" font-family="Times,serif" font-size="14.00">nngraph_1in_1out</text>
<!-- n1 -->
<g id="node1" class="node"><title>n1</title>
<g id="a_node1"><a xlink:title="[./LanguageModelSkipCon.lua]:111_">
<ellipse fill="none" stroke="black" cx="339" cy="-150" rx="94.0678" ry="37.4533"/>
<text text-anchor="middle" x="339" y="-161.3" font-family="Times,serif" font-size="14.00">Node1</text>
<text text-anchor="start" x="280.5" y="-146.3" font-family="Times,serif" font-size="14.00">module = nn.Identity</text>
<text text-anchor="middle" x="339" y="-131.3" font-family="Times,serif" font-size="14.00">reverseMap = {}</text>
</a>
</g>
</g>
<!-- n2 -->
<g id="node2" class="node"><title>n2</title>
<g id="a_node2"><a xlink:title="[[C]]:&#45;1_">
<ellipse fill="none" stroke="black" cx="339" cy="-38" rx="77.1743" ry="37.4533"/>
<text text-anchor="middle" x="339" y="-49.3" font-family="Times,serif" font-size="14.00">Node2</text>
<text text-anchor="start" x="292" y="-34.3" font-family="Times,serif" font-size="14.00">input = {}</text>
<text text-anchor="middle" x="339" y="-19.3" font-family="Times,serif" font-size="14.00">reverseMap = {}</text>
</a>
</g>
</g>
<!-- n1&#45;&gt;n2 -->
<g id="edge1" class="edge"><title>n1&#45;&gt;n2</title>
<path fill="none" stroke="black" d="M339,-112.372C339,-103.927 339,-94.8286 339,-86.0106"/>
<polygon fill="black" stroke="black" points="342.5,-85.8435 339,-75.8435 335.5,-85.8435 342.5,-85.8435"/>
</g>
<!-- n3 -->
<g id="node3" class="node"><title>n3</title>
<g id="a_node3"><a xlink:title="[./LanguageModelSkipCon.lua]:111_">
<ellipse fill="none" stroke="black" cx="339" cy="-304" rx="132.404" ry="79.8062"/>
<text text-anchor="middle" x="339" y="-345.3" font-family="Times,serif" font-size="14.00">Node3</text>
<text text-anchor="start" x="253" y="-330.3" font-family="Times,serif" font-size="14.00">module = nn.Sequential {</text>
<text text-anchor="start" x="253" y="-315.3" font-family="Times,serif" font-size="14.00"> &#160;[input &#45;&gt; (1) &#45;&gt; (2) &#45;&gt; output]</text>
<text text-anchor="start" x="253" y="-300.3" font-family="Times,serif" font-size="14.00"> &#160;(1): nn.View(50,&#45;1)</text>
<text text-anchor="start" x="253" y="-285.3" font-family="Times,serif" font-size="14.00"> &#160;(2): nn.View(1,50,&#45;1)</text>
<text text-anchor="start" x="253" y="-270.3" font-family="Times,serif" font-size="14.00">}</text>
<text text-anchor="middle" x="339" y="-255.3" font-family="Times,serif" font-size="14.00">reverseMap = {}</text>
</a>
</g>
</g>
<!-- n3&#45;&gt;n1 -->
<g id="edge2" class="edge"><title>n3&#45;&gt;n1</title>
<path fill="none" stroke="black" d="M339,-223.884C339,-214.957 339,-206.088 339,-197.769"/>
<polygon fill="black" stroke="black" points="342.5,-197.565 339,-187.565 335.5,-197.565 342.5,-197.565"/>
</g>
<!-- n4 -->
<g id="node4" class="node"><title>n4</title>
<g id="a_node4"><a xlink:title="[./LanguageModelSkipCon.lua]:95_">
<ellipse fill="none" stroke="black" cx="339" cy="-458" rx="84.2187" ry="37.4533"/>
<text text-anchor="middle" x="339" y="-469.3" font-family="Times,serif" font-size="14.00">Node4</text>
<text text-anchor="start" x="287.5" y="-454.3" font-family="Times,serif" font-size="14.00">module = nn.Tanh</text>
<text text-anchor="middle" x="339" y="-439.3" font-family="Times,serif" font-size="14.00">reverseMap = {}</text>
</a>
</g>
</g>
<!-- n4&#45;&gt;n3 -->
<g id="edge3" class="edge"><title>n4&#45;&gt;n3</title>
<path fill="none" stroke="black" d="M339,-420.205C339,-412.225 339,-403.452 339,-394.417"/>
<polygon fill="black" stroke="black" points="342.5,-394.134 339,-384.134 335.5,-394.134 342.5,-394.134"/>
</g>
<!-- n5 -->
<g id="node5" class="node"><title>n5</title>
<g id="a_node5"><a xlink:title="[./LanguageModelSkipCon.lua]:94_">
<ellipse fill="red" stroke="black" cx="339" cy="-580" rx="165.195" ry="48.1667"/>
<text text-anchor="middle" x="339" y="-598.8" font-family="Times,serif" font-size="14.00">Node5</text>
<text text-anchor="start" x="230" y="-583.8" font-family="Times,serif" font-size="14.00">input = {torch.CudaTensor[1x50x256]}</text>
<text text-anchor="start" x="230" y="-568.8" font-family="Times,serif" font-size="14.00">module = nn.Linear(256 &#45;&gt; 128)</text>
<text text-anchor="middle" x="339" y="-553.8" font-family="Times,serif" font-size="14.00">reverseMap = {}</text>
</a>
</g>
</g>
<!-- n5&#45;&gt;n4 -->
<g id="edge4" class="edge"><title>n5&#45;&gt;n4</title>
<path fill="none" stroke="black" d="M339,-531.573C339,-523.096 339,-514.269 339,-505.81"/>
<polygon fill="black" stroke="black" points="342.5,-505.722 339,-495.722 335.5,-505.722 342.5,-505.722"/>
</g>
<!-- n6 -->
<g id="node6" class="node"><title>n6</title>
<g id="a_node6"><a xlink:title="[./LanguageModelSkipCon.lua]:85_">
<ellipse fill="none" stroke="black" cx="339" cy="-723" rx="281.143" ry="58.8803"/>
<text text-anchor="middle" x="339" y="-749.3" font-family="Times,serif" font-size="14.00">Node6</text>
<text text-anchor="start" x="148" y="-734.3" font-family="Times,serif" font-size="14.00">input = {torch.CudaTensor[1x50x128],torch.CudaTensor[1x50x128]}</text>
<text text-anchor="start" x="148" y="-719.3" font-family="Times,serif" font-size="14.00">module = nn.JoinTable</text>
<text text-anchor="start" x="148" y="-704.3" font-family="Times,serif" font-size="14.00">reverseMap = {}</text>
<text text-anchor="middle" x="339" y="-689.3" font-family="Times,serif" font-size="14.00">mapindex = {Node7,Node8}</text>
</a>
</g>
</g>
<!-- n6&#45;&gt;n5 -->
<g id="edge5" class="edge"><title>n6&#45;&gt;n5</title>
<path fill="none" stroke="black" d="M339,-664.243C339,-655.7 339,-646.899 339,-638.364"/>
<polygon fill="black" stroke="black" points="342.5,-638.121 339,-628.121 335.5,-638.121 342.5,-638.121"/>
</g>
<!-- n7 -->
<g id="node7" class="node"><title>n7</title>
<g id="a_node7"><a xlink:title="[./LanguageModelSkipCon.lua]:64_">
<ellipse fill="none" stroke="black" cx="165" cy="-866" rx="165.195" ry="48.1667"/>
<text text-anchor="middle" x="165" y="-884.8" font-family="Times,serif" font-size="14.00">Node7</text>
<text text-anchor="start" x="56" y="-869.8" font-family="Times,serif" font-size="14.00">input = {torch.CudaTensor[1x50x128]}</text>
<text text-anchor="start" x="56" y="-854.8" font-family="Times,serif" font-size="14.00">module = nn.Identity</text>
<text text-anchor="middle" x="165" y="-839.8" font-family="Times,serif" font-size="14.00">reverseMap = {}</text>
</a>
</g>
</g>
<!-- n7&#45;&gt;n6 -->
<g id="edge6" class="edge"><title>n7&#45;&gt;n6</title>
<path fill="none" stroke="black" d="M220.055,-820.387C233.412,-809.563 247.935,-797.794 262.097,-786.318"/>
<polygon fill="black" stroke="black" points="264.352,-788.995 269.918,-779.98 259.945,-783.557 264.352,-788.995"/>
</g>
<!-- n8 -->
<g id="node8" class="node"><title>n8</title>
<g id="a_node8"><a xlink:title="[./LanguageModelSkipCon.lua]:78_">
<ellipse fill="none" stroke="black" cx="514" cy="-866" rx="165.195" ry="48.1667"/>
<text text-anchor="middle" x="514" y="-884.8" font-family="Times,serif" font-size="14.00">Node8</text>
<text text-anchor="start" x="405" y="-869.8" font-family="Times,serif" font-size="14.00">input = {torch.CudaTensor[1x50x192]}</text>
<text text-anchor="start" x="405" y="-854.8" font-family="Times,serif" font-size="14.00">module = nn.LSTM</text>
<text text-anchor="middle" x="514" y="-839.8" font-family="Times,serif" font-size="14.00">reverseMap = {}</text>
</a>
</g>
</g>
<!-- n8&#45;&gt;n6 -->
<g id="edge7" class="edge"><title>n8&#45;&gt;n6</title>
<path fill="none" stroke="black" d="M458.629,-820.387C445.195,-809.563 430.588,-797.794 416.345,-786.318"/>
<polygon fill="black" stroke="black" points="418.462,-783.529 408.479,-779.98 414.07,-788.98 418.462,-783.529"/>
</g>
<!-- n9 -->
<g id="node9" class="node"><title>n9</title>
<g id="a_node9"><a xlink:title="[./LanguageModelSkipCon.lua]:58_">
<ellipse fill="none" stroke="black" cx="314" cy="-1152" rx="160.27" ry="48.1667"/>
<text text-anchor="middle" x="314" y="-1170.8" font-family="Times,serif" font-size="14.00">Node9</text>
<text text-anchor="start" x="208.5" y="-1155.8" font-family="Times,serif" font-size="14.00">input = {torch.CudaTensor[1x50x64]}</text>
<text text-anchor="start" x="208.5" y="-1140.8" font-family="Times,serif" font-size="14.00">module = nn.LSTM</text>
<text text-anchor="middle" x="314" y="-1125.8" font-family="Times,serif" font-size="14.00">reverseMap = {}</text>
</a>
</g>
</g>
<!-- n9&#45;&gt;n7 -->
<g id="edge8" class="edge"><title>n9&#45;&gt;n7</title>
<path fill="none" stroke="black" d="M251.554,-1107.47C238.575,-1095.93 226.096,-1082.57 217,-1068 189.755,-1024.36 176.726,-966.9 170.531,-924.597"/>
<polygon fill="black" stroke="black" points="173.966,-923.886 169.133,-914.458 167.031,-924.842 173.966,-923.886"/>
</g>
<!-- n10 -->
<g id="node10" class="node"><title>n10</title>
<g id="a_node10"><a xlink:title="[./LanguageModelSkipCon.lua]:78_">
<ellipse fill="none" stroke="black" cx="503" cy="-1009" rx="277.279" ry="58.8803"/>
<text text-anchor="middle" x="503" y="-1035.3" font-family="Times,serif" font-size="14.00">Node10</text>
<text text-anchor="start" x="315" y="-1020.3" font-family="Times,serif" font-size="14.00">input = {torch.CudaTensor[1x50x128],torch.CudaTensor[1x50x64]}</text>
<text text-anchor="start" x="315" y="-1005.3" font-family="Times,serif" font-size="14.00">module = nn.JoinTable</text>
<text text-anchor="start" x="315" y="-990.3" font-family="Times,serif" font-size="14.00">reverseMap = {}</text>
<text text-anchor="middle" x="503" y="-975.3" font-family="Times,serif" font-size="14.00">mapindex = {Node9,Node11}</text>
</a>
</g>
</g>
<!-- n9&#45;&gt;n10 -->
<g id="edge11" class="edge"><title>n9&#45;&gt;n10</title>
<path fill="none" stroke="black" d="M372.765,-1107.16C387.714,-1096.01 404.062,-1083.81 419.97,-1071.94"/>
<polygon fill="black" stroke="black" points="422.316,-1074.56 428.239,-1065.77 418.13,-1068.95 422.316,-1074.56"/>
</g>
<!-- n10&#45;&gt;n8 -->
<g id="edge9" class="edge"><title>n10&#45;&gt;n8</title>
<path fill="none" stroke="black" d="M507.506,-950.243C508.172,-941.7 508.859,-932.899 509.525,-924.364"/>
<polygon fill="black" stroke="black" points="513.035,-924.363 510.324,-914.121 506.057,-923.818 513.035,-924.363"/>
</g>
<!-- n11 -->
<g id="node11" class="node"><title>n11</title>
<g id="a_node11"><a xlink:title="[./LanguageModelSkipCon.lua]:41_">
<ellipse fill="none" stroke="black" cx="408" cy="-1284" rx="146.057" ry="48.1667"/>
<text text-anchor="middle" x="408" y="-1302.8" font-family="Times,serif" font-size="14.00">Node11</text>
<text text-anchor="start" x="312.5" y="-1287.8" font-family="Times,serif" font-size="14.00">input = {torch.CudaTensor[1x50]}</text>
<text text-anchor="start" x="312.5" y="-1272.8" font-family="Times,serif" font-size="14.00">module = nn.LookupTable</text>
<text text-anchor="middle" x="408" y="-1257.8" font-family="Times,serif" font-size="14.00">reverseMap = {}</text>
</a>
</g>
</g>
<!-- n11&#45;&gt;n9 -->
<g id="edge10" class="edge"><title>n11&#45;&gt;n9</title>
<path fill="none" stroke="black" d="M374.859,-1237.17C367.922,-1227.57 360.542,-1217.37 353.402,-1207.49"/>
<polygon fill="black" stroke="black" points="356.172,-1205.35 347.476,-1199.3 350.499,-1209.45 356.172,-1205.35"/>
</g>
<!-- n11&#45;&gt;n10 -->
<g id="edge12" class="edge"><title>n11&#45;&gt;n10</title>
<path fill="none" stroke="black" d="M457.399,-1238.48C467.451,-1226.94 476.825,-1213.83 483,-1200 499.931,-1162.07 505.083,-1115.79 505.929,-1078.39"/>
<polygon fill="black" stroke="black" points="509.433,-1078.14 506.06,-1068.1 502.433,-1078.05 509.433,-1078.14"/>
</g>
<!-- n12 -->
<g id="node12" class="node"><title>n12</title>
<g id="a_node12"><a xlink:title="[[C]]:&#45;1_">
<ellipse fill="none" stroke="black" cx="408" cy="-1406" rx="146.057" ry="37.4533"/>
<text text-anchor="middle" x="408" y="-1417.3" font-family="Times,serif" font-size="14.00">Node12</text>
<text text-anchor="start" x="312.5" y="-1402.3" font-family="Times,serif" font-size="14.00">input = {torch.CudaTensor[1x50]}</text>
<text text-anchor="middle" x="408" y="-1387.3" font-family="Times,serif" font-size="14.00">reverseMap = {}</text>
</a>
</g>
</g>
<!-- n12&#45;&gt;n11 -->
<g id="edge13" class="edge"><title>n12&#45;&gt;n11</title>
<path fill="none" stroke="black" d="M408,-1368.34C408,-1360.22 408,-1351.42 408,-1342.68"/>
<polygon fill="black" stroke="black" points="411.5,-1342.5 408,-1332.5 404.5,-1342.5 411.5,-1342.5"/>
</g>
</g>
</svg>
