<?xml version="1.0" encoding="UTF-8" standalone="no"?>
<!DOCTYPE svg PUBLIC "-//W3C//DTD SVG 1.1//EN"
 "http://www.w3.org/Graphics/SVG/1.1/DTD/svg11.dtd">
<!-- Generated by graphviz version 2.36.0 (20140111.2315)
 -->
<!-- Title: G Pages: 1 -->
<svg width="687pt" height="1321pt"
 viewBox="0.00 0.00 687.00 1321.00" xmlns="http://www.w3.org/2000/svg" xmlns:xlink="http://www.w3.org/1999/xlink">
<g id="graph0" class="graph" transform="scale(1 1) rotate(0) translate(4 1317)">
<title>G</title>
<polygon fill="white" stroke="none" points="-4,4 -4,-1317 683,-1317 683,4 -4,4"/>
<text text-anchor="middle" x="339.5" y="-1297.8" font-family="Times,serif" font-size="14.00">nngraph_1in_1out</text>
<!-- n1 -->
<g id="node1" class="node"><title>n1</title>
<g id="a_node1"><a xlink:title="[./LanguageModelSkipCon.lua]:111_">
<ellipse fill="none" stroke="black" cx="339" cy="-150" rx="94.0678" ry="37.4533"/>
<text text-anchor="middle" x="339" y="-161.3" font-family="Times,serif" font-size="14.00">Node1</text>
<text text-anchor="start" x="280.5" y="-146.3" font-family="Times,serif" font-size="14.00">module = nn.Identity</text>
<text text-anchor="middle" x="339" y="-131.3" font-family="Times,serif" font-size="14.00">reverseMap = {}</text>
</a>
</g>
</g>
<!-- n2 -->
<g id="node2" class="node"><title>n2</title>
<g id="a_node2"><a xlink:title="[[C]]:&#45;1_">
<ellipse fill="none" stroke="black" cx="339" cy="-38" rx="77.1743" ry="37.4533"/>
<text text-anchor="middle" x="339" y="-49.3" font-family="Times,serif" font-size="14.00">Node2</text>
<text text-anchor="start" x="292" y="-34.3" font-family="Times,serif" font-size="14.00">input = {}</text>
<text text-anchor="middle" x="339" y="-19.3" font-family="Times,serif" font-size="14.00">reverseMap = {}</text>
</a>
</g>
</g>
<!-- n1&#45;&gt;n2 -->
<g id="edge1" class="edge"><title>n1&#45;&gt;n2</title>
<path fill="none" stroke="black" d="M339,-112.372C339,-103.927 339,-94.8286 339,-86.0106"/>
<polygon fill="black" stroke="black" points="342.5,-85.8435 339,-75.8435 335.5,-85.8435 342.5,-85.8435"/>
</g>
<!-- n3 -->
<g id="node3" class="node"><title>n3</title>
<g id="a_node3"><a xlink:title="[./LanguageModelSkipCon.lua]:111_">
<ellipse fill="none" stroke="black" cx="339" cy="-304" rx="132.404" ry="79.8062"/>
<text text-anchor="middle" x="339" y="-345.3" font-family="Times,serif" font-size="14.00">Node3</text>
<text text-anchor="start" x="253" y="-330.3" font-family="Times,serif" font-size="14.00">module = nn.Sequential {</text>
<text text-anchor="start" x="253" y="-315.3" font-family="Times,serif" font-size="14.00"> &#160;[input &#45;&gt; (1) &#45;&gt; (2) &#45;&gt; output]</text>
<text text-anchor="start" x="253" y="-300.3" font-family="Times,serif" font-size="14.00"> &#160;(1): nn.View(50,&#45;1)</text>
<text text-anchor="start" x="253" y="-285.3" font-family="Times,serif" font-size="14.00"> &#160;(2): nn.View(1,50,&#45;1)</text>
<text text-anchor="start" x="253" y="-270.3" font-family="Times,serif" font-size="14.00">}</text>
<text text-anchor="middle" x="339" y="-255.3" font-family="Times,serif" font-size="14.00">reverseMap = {}</text>
</a>
</g>
</g>
<!-- n3&#45;&gt;n1 -->
<g id="edge2" class="edge"><title>n3&#45;&gt;n1</title>
<path fill="none" stroke="black" d="M339,-223.884C339,-214.957 339,-206.088 339,-197.769"/>
<polygon fill="black" stroke="black" points="342.5,-197.565 339,-187.565 335.5,-197.565 342.5,-197.565"/>
</g>
<!-- n4 -->
<g id="node4" class="node"><title>n4</title>
<g id="a_node4"><a xlink:title="[./LanguageModelSkipCon.lua]:95_">
<ellipse fill="none" stroke="black" cx="339" cy="-458" rx="84.2187" ry="37.4533"/>
<text text-anchor="middle" x="339" y="-469.3" font-family="Times,serif" font-size="14.00">Node4</text>
<text text-anchor="start" x="287.5" y="-454.3" font-family="Times,serif" font-size="14.00">module = nn.Tanh</text>
<text text-anchor="middle" x="339" y="-439.3" font-family="Times,serif" font-size="14.00">reverseMap = {}</text>
</a>
</g>
</g>
<!-- n4&#45;&gt;n3 -->
<g id="edge3" class="edge"><title>n4&#45;&gt;n3</title>
<path fill="none" stroke="black" d="M339,-420.205C339,-412.225 339,-403.452 339,-394.417"/>
<polygon fill="black" stroke="black" points="342.5,-394.134 339,-384.134 335.5,-394.134 342.5,-394.134"/>
</g>
<!-- n5 -->
<g id="node5" class="node"><title>n5</title>
<g id="a_node5"><a xlink:title="[./LanguageModelSkipCon.lua]:94_">
<ellipse fill="red" stroke="black" cx="339" cy="-580" rx="165.195" ry="48.1667"/>
<text text-anchor="middle" x="339" y="-598.8" font-family="Times,serif" font-size="14.00">Node5</text>
<text text-anchor="start" x="230" y="-583.8" font-family="Times,serif" font-size="14.00">input = {torch.CudaTensor[1x50x256]}</text>
<text text-anchor="start" x="230" y="-568.8" font-family="Times,serif" font-size="14.00">module = nn.Linear(256 &#45;&gt; 128)</text>
<text text-anchor="middle" x="339" y="-553.8" font-family="Times,serif" font-size="14.00">reverseMap = {}</text>
</a>
</g>
</g>
<!-- n5&#45;&gt;n4 -->
<g id="edge4" class="edge"><title>n5&#45;&gt;n4</title>
<path fill="none" stroke="black" d="M339,-531.573C339,-523.096 339,-514.269 339,-505.81"/>
<polygon fill="black" stroke="black" points="342.5,-505.722 339,-495.722 335.5,-505.722 342.5,-505.722"/>
</g>
<!-- n6 -->
<g id="node6" class="node"><title>n6</title>
<g id="a_node6"><a xlink:title="[./LanguageModelSkipCon.lua]:85_">
<ellipse fill="none" stroke="black" cx="339" cy="-723" rx="281.143" ry="58.8803"/>
<text text-anchor="middle" x="339" y="-749.3" font-family="Times,serif" font-size="14.00">Node6</text>
<text text-anchor="start" x="148" y="-734.3" font-family="Times,serif" font-size="14.00">input = {torch.CudaTensor[1x50x128],torch.CudaTensor[1x50x128]}</text>
<text text-anchor="start" x="148" y="-719.3" font-family="Times,serif" font-size="14.00">module = nn.JoinTable</text>
<text text-anchor="start" x="148" y="-704.3" font-family="Times,serif" font-size="14.00">reverseMap = {}</text>
<text text-anchor="middle" x="339" y="-689.3" font-family="Times,serif" font-size="14.00">mapindex = {Node7,Node8}</text>
</a>
</g>
</g>
<!-- n6&#45;&gt;n5 -->
<g id="edge5" class="edge"><title>n6&#45;&gt;n5</title>
<path fill="none" stroke="black" d="M339,-664.243C339,-655.7 339,-646.899 339,-638.364"/>
<polygon fill="black" stroke="black" points="342.5,-638.121 339,-628.121 335.5,-638.121 342.5,-638.121"/>
</g>
<!-- n7 -->
<g id="node7" class="node"><title>n7</title>
<g id="a_node7"><a xlink:title="[./LanguageModelSkipCon.lua]:64_">
<ellipse fill="none" stroke="black" cx="165" cy="-866" rx="165.195" ry="48.1667"/>
<text text-anchor="middle" x="165" y="-884.8" font-family="Times,serif" font-size="14.00">Node7</text>
<text text-anchor="start" x="56" y="-869.8" font-family="Times,serif" font-size="14.00">input = {torch.CudaTensor[1x50x128]}</text>
<text text-anchor="start" x="56" y="-854.8" font-family="Times,serif" font-size="14.00">module = nn.Identity</text>
<text text-anchor="middle" x="165" y="-839.8" font-family="Times,serif" font-size="14.00">reverseMap = {}</text>
</a>
</g>
</g>
<!-- n7&#45;&gt;n6 -->
<g id="edge6" class="edge"><title>n7&#45;&gt;n6</title>
<path fill="none" stroke="black" d="M220.055,-820.387C233.412,-809.563 247.935,-797.794 262.097,-786.318"/>
<polygon fill="black" stroke="black" points="264.352,-788.995 269.918,-779.98 259.945,-783.557 264.352,-788.995"/>
</g>
<!-- n8 -->
<g id="node8" class="node"><title>n8</title>
<g id="a_node8"><a xlink:title="[./LanguageModelSkipCon.lua]:79_">
<ellipse fill="none" stroke="black" cx="514" cy="-866" rx="165.195" ry="48.1667"/>
<text text-anchor="middle" x="514" y="-884.8" font-family="Times,serif" font-size="14.00">Node8</text>
<text text-anchor="start" x="405" y="-869.8" font-family="Times,serif" font-size="14.00">input = {torch.CudaTensor[1x50x128]}</text>
<text text-anchor="start" x="405" y="-854.8" font-family="Times,serif" font-size="14.00">module = nn.LSTM</text>
<text text-anchor="middle" x="514" y="-839.8" font-family="Times,serif" font-size="14.00">reverseMap = {}</text>
</a>
</g>
</g>
<!-- n8&#45;&gt;n6 -->
<g id="edge7" class="edge"><title>n8&#45;&gt;n6</title>
<path fill="none" stroke="black" d="M458.629,-820.387C445.195,-809.563 430.588,-797.794 416.345,-786.318"/>
<polygon fill="black" stroke="black" points="418.462,-783.529 408.479,-779.98 414.07,-788.98 418.462,-783.529"/>
</g>
<!-- n9 -->
<g id="node9" class="node"><title>n9</title>
<g id="a_node9"><a xlink:title="[./LanguageModelSkipCon.lua]:58_">
<ellipse fill="none" stroke="black" cx="339" cy="-998" rx="160.27" ry="48.1667"/>
<text text-anchor="middle" x="339" y="-1016.8" font-family="Times,serif" font-size="14.00">Node9</text>
<text text-anchor="start" x="233.5" y="-1001.8" font-family="Times,serif" font-size="14.00">input = {torch.CudaTensor[1x50x64]}</text>
<text text-anchor="start" x="233.5" y="-986.8" font-family="Times,serif" font-size="14.00">module = nn.LSTM</text>
<text text-anchor="middle" x="339" y="-971.8" font-family="Times,serif" font-size="14.00">reverseMap = {}</text>
</a>
</g>
</g>
<!-- n9&#45;&gt;n7 -->
<g id="edge8" class="edge"><title>n9&#45;&gt;n7</title>
<path fill="none" stroke="black" d="M280.092,-952.988C264.644,-941.446 247.872,-928.916 232.033,-917.082"/>
<polygon fill="black" stroke="black" points="233.954,-914.148 223.848,-910.967 229.764,-919.756 233.954,-914.148"/>
</g>
<!-- n9&#45;&gt;n8 -->
<g id="edge9" class="edge"><title>n9&#45;&gt;n8</title>
<path fill="none" stroke="black" d="M398.247,-952.988C413.784,-941.446 430.652,-928.916 446.581,-917.082"/>
<polygon fill="black" stroke="black" points="448.874,-919.74 454.814,-910.967 444.699,-914.12 448.874,-919.74"/>
</g>
<!-- n10 -->
<g id="node10" class="node"><title>n10</title>
<g id="a_node10"><a xlink:title="[./LanguageModelSkipCon.lua]:41_">
<ellipse fill="none" stroke="black" cx="339" cy="-1130" rx="146.057" ry="48.1667"/>
<text text-anchor="middle" x="339" y="-1148.8" font-family="Times,serif" font-size="14.00">Node10</text>
<text text-anchor="start" x="243.5" y="-1133.8" font-family="Times,serif" font-size="14.00">input = {torch.CudaTensor[1x50]}</text>
<text text-anchor="start" x="243.5" y="-1118.8" font-family="Times,serif" font-size="14.00">module = nn.LookupTable</text>
<text text-anchor="middle" x="339" y="-1103.8" font-family="Times,serif" font-size="14.00">reverseMap = {}</text>
</a>
</g>
</g>
<!-- n10&#45;&gt;n9 -->
<g id="edge10" class="edge"><title>n10&#45;&gt;n9</title>
<path fill="none" stroke="black" d="M339,-1081.7C339,-1073.54 339,-1064.99 339,-1056.6"/>
<polygon fill="black" stroke="black" points="342.5,-1056.48 339,-1046.48 335.5,-1056.48 342.5,-1056.48"/>
</g>
<!-- n11 -->
<g id="node11" class="node"><title>n11</title>
<g id="a_node11"><a xlink:title="[[C]]:&#45;1_">
<ellipse fill="none" stroke="black" cx="339" cy="-1252" rx="146.057" ry="37.4533"/>
<text text-anchor="middle" x="339" y="-1263.3" font-family="Times,serif" font-size="14.00">Node11</text>
<text text-anchor="start" x="243.5" y="-1248.3" font-family="Times,serif" font-size="14.00">input = {torch.CudaTensor[1x50]}</text>
<text text-anchor="middle" x="339" y="-1233.3" font-family="Times,serif" font-size="14.00">reverseMap = {}</text>
</a>
</g>
</g>
<!-- n11&#45;&gt;n10 -->
<g id="edge11" class="edge"><title>n11&#45;&gt;n10</title>
<path fill="none" stroke="black" d="M339,-1214.34C339,-1206.22 339,-1197.42 339,-1188.68"/>
<polygon fill="black" stroke="black" points="342.5,-1188.5 339,-1178.5 335.5,-1188.5 342.5,-1188.5"/>
</g>
</g>
</svg>
