<?xml version="1.0" encoding="UTF-8" standalone="no"?>
<!DOCTYPE svg PUBLIC "-//W3C//DTD SVG 1.1//EN"
 "http://www.w3.org/Graphics/SVG/1.1/DTD/svg11.dtd">
<!-- Generated by graphviz version 2.36.0 (20140111.2315)
 -->
<!-- Title: G Pages: 1 -->
<svg width="539pt" height="1040pt"
 viewBox="0.00 0.00 539.00 1040.00" xmlns="http://www.w3.org/2000/svg" xmlns:xlink="http://www.w3.org/1999/xlink">
<g id="graph0" class="graph" transform="scale(1 1) rotate(0) translate(4 1036)">
<title>G</title>
<polygon fill="white" stroke="none" points="-4,4 -4,-1036 535,-1036 535,4 -4,4"/>
<!-- n1 -->
<g id="node1" class="node"><title>n1</title>
<g id="a_node1"><a xlink:title="[[string &quot;outA = nn.Sigmoid()(madd)&quot;]]:1_">
<ellipse fill="none" stroke="black" cx="167" cy="-170" rx="96.3112" ry="37.4533"/>
<text text-anchor="middle" x="167" y="-181.3" font-family="Times,serif" font-size="14.00">Node1</text>
<text text-anchor="start" x="106.5" y="-166.3" font-family="Times,serif" font-size="14.00">module = nn.Sigmoid</text>
<text text-anchor="middle" x="167" y="-151.3" font-family="Times,serif" font-size="14.00">reverseMap = {}</text>
</a>
</g>
</g>
<!-- n2 -->
<g id="node2" class="node"><title>n2</title>
<g id="a_node2"><a xlink:title="[[C]]:&#45;1_">
<ellipse fill="none" stroke="black" cx="266" cy="-48" rx="124.176" ry="48.1667"/>
<text text-anchor="middle" x="266" y="-66.8" font-family="Times,serif" font-size="14.00">Node2</text>
<text text-anchor="start" x="186" y="-51.8" font-family="Times,serif" font-size="14.00">input = {}</text>
<text text-anchor="start" x="186" y="-36.8" font-family="Times,serif" font-size="14.00">mapindex = {Node1,Node3}</text>
<text text-anchor="middle" x="266" y="-21.8" font-family="Times,serif" font-size="14.00">reverseMap = {}</text>
</a>
</g>
</g>
<!-- n1&#45;&gt;n2 -->
<g id="edge1" class="edge"><title>n1&#45;&gt;n2</title>
<path fill="none" stroke="black" d="M195.901,-133.968C204.168,-123.948 213.367,-112.797 222.31,-101.957"/>
<polygon fill="black" stroke="black" points="225.096,-104.081 228.76,-94.1398 219.696,-99.6262 225.096,-104.081"/>
</g>
<!-- n3 -->
<g id="node3" class="node"><title>n3</title>
<g id="a_node3"><a xlink:title="[[string &quot;outB = nn.Tanh()(madd)&quot;]]:1_">
<ellipse fill="none" stroke="black" cx="366" cy="-170" rx="84.2187" ry="37.4533"/>
<text text-anchor="middle" x="366" y="-181.3" font-family="Times,serif" font-size="14.00">Node3</text>
<text text-anchor="start" x="314.5" y="-166.3" font-family="Times,serif" font-size="14.00">module = nn.Tanh</text>
<text text-anchor="middle" x="366" y="-151.3" font-family="Times,serif" font-size="14.00">reverseMap = {}</text>
</a>
</g>
</g>
<!-- n3&#45;&gt;n2 -->
<g id="edge2" class="edge"><title>n3&#45;&gt;n2</title>
<path fill="none" stroke="black" d="M337.344,-134.613C328.892,-124.47 319.437,-113.125 310.246,-102.095"/>
<polygon fill="black" stroke="black" points="312.708,-99.5827 303.618,-94.1411 307.331,-104.064 312.708,-99.5827"/>
</g>
<!-- n4 -->
<g id="node4" class="node"><title>n4</title>
<g id="a_node4"><a xlink:title="[[string &quot;madd = nn.CAddTable()({hh1, hh2})&quot;]]:1_">
<ellipse fill="none" stroke="black" cx="266" cy="-292" rx="124.176" ry="48.1667"/>
<text text-anchor="middle" x="266" y="-310.8" font-family="Times,serif" font-size="14.00">Node4</text>
<text text-anchor="start" x="186" y="-295.8" font-family="Times,serif" font-size="14.00">module = nn.CAddTable</text>
<text text-anchor="start" x="186" y="-280.8" font-family="Times,serif" font-size="14.00">reverseMap = {}</text>
<text text-anchor="middle" x="266" y="-265.8" font-family="Times,serif" font-size="14.00">mapindex = {Node5,Node6}</text>
</a>
</g>
</g>
<!-- n4&#45;&gt;n1 -->
<g id="edge3" class="edge"><title>n4&#45;&gt;n1</title>
<path fill="none" stroke="black" d="M228.854,-245.975C220.197,-235.482 211.002,-224.336 202.422,-213.936"/>
<polygon fill="black" stroke="black" points="205.064,-211.638 196,-206.151 199.664,-216.093 205.064,-211.638"/>
</g>
<!-- n4&#45;&gt;n3 -->
<g id="edge4" class="edge"><title>n4&#45;&gt;n3</title>
<path fill="none" stroke="black" d="M303.521,-245.975C312.442,-235.27 321.929,-223.885 330.745,-213.306"/>
<polygon fill="black" stroke="black" points="333.622,-215.321 337.335,-205.398 328.244,-210.84 333.622,-215.321"/>
</g>
<!-- n5 -->
<g id="node5" class="node"><title>n5</title>
<g id="a_node5"><a xlink:title="[[string &quot;hh1 = nn.Linear(20, 1)(nn.Tanh()(h1))&quot;]]:1_">
<ellipse fill="none" stroke="black" cx="133" cy="-414" rx="124.176" ry="37.4533"/>
<text text-anchor="middle" x="133" y="-425.3" font-family="Times,serif" font-size="14.00">Node5</text>
<text text-anchor="start" x="53" y="-410.3" font-family="Times,serif" font-size="14.00">module = nn.Linear(20 &#45;&gt; 1)</text>
<text text-anchor="middle" x="133" y="-395.3" font-family="Times,serif" font-size="14.00">reverseMap = {}</text>
</a>
</g>
</g>
<!-- n5&#45;&gt;n4 -->
<g id="edge5" class="edge"><title>n5&#45;&gt;n4</title>
<path fill="none" stroke="black" d="M171.469,-378.291C183.526,-367.413 197.087,-355.177 210.094,-343.441"/>
<polygon fill="black" stroke="black" points="212.592,-345.901 217.672,-336.604 207.903,-340.704 212.592,-345.901"/>
</g>
<!-- n6 -->
<g id="node6" class="node"><title>n6</title>
<g id="a_node6"><a xlink:title="[[string &quot;hh2 = nn.Linear(20, 1)(nn.Tanh()(h2))&quot;]]:1_">
<ellipse fill="none" stroke="black" cx="400" cy="-414" rx="124.176" ry="37.4533"/>
<text text-anchor="middle" x="400" y="-425.3" font-family="Times,serif" font-size="14.00">Node6</text>
<text text-anchor="start" x="320" y="-410.3" font-family="Times,serif" font-size="14.00">module = nn.Linear(20 &#45;&gt; 1)</text>
<text text-anchor="middle" x="400" y="-395.3" font-family="Times,serif" font-size="14.00">reverseMap = {}</text>
</a>
</g>
</g>
<!-- n6&#45;&gt;n4 -->
<g id="edge6" class="edge"><title>n6&#45;&gt;n4</title>
<path fill="none" stroke="black" d="M361.242,-378.291C349.094,-367.413 335.431,-355.177 322.326,-343.441"/>
<polygon fill="black" stroke="black" points="324.475,-340.668 314.691,-336.604 319.806,-345.882 324.475,-340.668"/>
</g>
<!-- n7 -->
<g id="node7" class="node"><title>n7</title>
<g id="a_node7"><a xlink:title="[[string &quot;hh1 = nn.Linear(20, 1)(nn.Tanh()(h1))&quot;]]:1_">
<ellipse fill="none" stroke="black" cx="132" cy="-526" rx="84.2187" ry="37.4533"/>
<text text-anchor="middle" x="132" y="-537.3" font-family="Times,serif" font-size="14.00">Node7</text>
<text text-anchor="start" x="80.5" y="-522.3" font-family="Times,serif" font-size="14.00">module = nn.Tanh</text>
<text text-anchor="middle" x="132" y="-507.3" font-family="Times,serif" font-size="14.00">reverseMap = {}</text>
</a>
</g>
</g>
<!-- n7&#45;&gt;n5 -->
<g id="edge7" class="edge"><title>n7&#45;&gt;n5</title>
<path fill="none" stroke="black" d="M132.333,-488.372C132.41,-479.927 132.492,-470.829 132.573,-462.011"/>
<polygon fill="black" stroke="black" points="136.074,-461.875 132.665,-451.844 129.074,-461.811 136.074,-461.875"/>
</g>
<!-- n8 -->
<g id="node8" class="node"><title>n8</title>
<g id="a_node8"><a xlink:title="[[string &quot;hh2 = nn.Linear(20, 1)(nn.Tanh()(h2))&quot;]]:1_">
<ellipse fill="none" stroke="black" cx="402" cy="-526" rx="84.2187" ry="37.4533"/>
<text text-anchor="middle" x="402" y="-537.3" font-family="Times,serif" font-size="14.00">Node8</text>
<text text-anchor="start" x="350.5" y="-522.3" font-family="Times,serif" font-size="14.00">module = nn.Tanh</text>
<text text-anchor="middle" x="402" y="-507.3" font-family="Times,serif" font-size="14.00">reverseMap = {}</text>
</a>
</g>
</g>
<!-- n8&#45;&gt;n6 -->
<g id="edge8" class="edge"><title>n8&#45;&gt;n6</title>
<path fill="none" stroke="black" d="M401.334,-488.372C401.18,-479.927 401.015,-470.829 400.855,-462.011"/>
<polygon fill="black" stroke="black" points="404.351,-461.778 400.67,-451.844 397.352,-461.906 404.351,-461.778"/>
</g>
<!-- n9 -->
<g id="node9" class="node"><title>n9</title>
<g id="a_node9"><a xlink:title="[[string &quot;h1 = nn.Linear(20, 20)()&quot;]]:1_">
<ellipse fill="none" stroke="black" cx="128" cy="-638" rx="128.54" ry="37.4533"/>
<text text-anchor="middle" x="128" y="-649.3" font-family="Times,serif" font-size="14.00">Node9</text>
<text text-anchor="start" x="45" y="-634.3" font-family="Times,serif" font-size="14.00">module = nn.Linear(20 &#45;&gt; 20)</text>
<text text-anchor="middle" x="128" y="-619.3" font-family="Times,serif" font-size="14.00">reverseMap = {}</text>
</a>
</g>
</g>
<!-- n9&#45;&gt;n7 -->
<g id="edge9" class="edge"><title>n9&#45;&gt;n7</title>
<path fill="none" stroke="black" d="M129.332,-600.372C129.639,-591.927 129.97,-582.829 130.291,-574.011"/>
<polygon fill="black" stroke="black" points="133.794,-573.964 130.66,-563.844 126.799,-573.71 133.794,-573.964"/>
</g>
<!-- n10 -->
<g id="node10" class="node"><title>n10</title>
<g id="a_node10"><a xlink:title="[[string &quot;h2 = nn.Linear(20, 20)()&quot;]]:1_">
<ellipse fill="none" stroke="black" cx="403" cy="-638" rx="128.54" ry="37.4533"/>
<text text-anchor="middle" x="403" y="-649.3" font-family="Times,serif" font-size="14.00">Node10</text>
<text text-anchor="start" x="320" y="-634.3" font-family="Times,serif" font-size="14.00">module = nn.Linear(20 &#45;&gt; 20)</text>
<text text-anchor="middle" x="403" y="-619.3" font-family="Times,serif" font-size="14.00">reverseMap = {}</text>
</a>
</g>
</g>
<!-- n10&#45;&gt;n8 -->
<g id="edge10" class="edge"><title>n10&#45;&gt;n8</title>
<path fill="none" stroke="black" d="M402.667,-600.372C402.59,-591.927 402.508,-582.829 402.427,-574.011"/>
<polygon fill="black" stroke="black" points="405.926,-573.811 402.335,-563.844 398.926,-573.875 405.926,-573.811"/>
</g>
<!-- n11 -->
<g id="node11" class="node"><title>n11</title>
<g id="a_node11"><a xlink:title="[[C]]:&#45;1_&#45;1">
<ellipse fill="none" stroke="black" cx="153" cy="-760" rx="77.1743" ry="48.1667"/>
<text text-anchor="middle" x="153" y="-778.8" font-family="Times,serif" font-size="14.00">Node11</text>
<text text-anchor="start" x="106" y="-763.8" font-family="Times,serif" font-size="14.00">input = {}</text>
<text text-anchor="start" x="106" y="-748.8" font-family="Times,serif" font-size="14.00">selectindex = 1</text>
<text text-anchor="middle" x="153" y="-733.8" font-family="Times,serif" font-size="14.00">reverseMap = {}</text>
</a>
</g>
</g>
<!-- n11&#45;&gt;n9 -->
<g id="edge11" class="edge"><title>n11&#45;&gt;n9</title>
<path fill="none" stroke="black" d="M143.263,-712.261C141.45,-703.558 139.555,-694.463 137.742,-685.759"/>
<polygon fill="black" stroke="black" points="141.126,-684.844 135.66,-675.768 134.273,-686.272 141.126,-684.844"/>
</g>
<!-- n12 -->
<g id="node12" class="node"><title>n12</title>
<g id="a_node12"><a xlink:title="[[C]]:&#45;1_&#45;2">
<ellipse fill="none" stroke="black" cx="377" cy="-760" rx="77.1743" ry="48.1667"/>
<text text-anchor="middle" x="377" y="-778.8" font-family="Times,serif" font-size="14.00">Node12</text>
<text text-anchor="start" x="330" y="-763.8" font-family="Times,serif" font-size="14.00">input = {}</text>
<text text-anchor="start" x="330" y="-748.8" font-family="Times,serif" font-size="14.00">selectindex = 2</text>
<text text-anchor="middle" x="377" y="-733.8" font-family="Times,serif" font-size="14.00">reverseMap = {}</text>
</a>
</g>
</g>
<!-- n12&#45;&gt;n10 -->
<g id="edge12" class="edge"><title>n12&#45;&gt;n10</title>
<path fill="none" stroke="black" d="M387.127,-712.261C389.012,-703.558 390.983,-694.463 392.869,-685.759"/>
<polygon fill="black" stroke="black" points="396.337,-686.283 395.034,-675.768 389.495,-684.8 396.337,-686.283"/>
</g>
<!-- n13 -->
<g id="node13" class="node"><title>n13</title>
<g id="a_node13"><a xlink:title="[[C]]:&#45;1_ split at [...e/da2412/torch/install/share/lua/5.1/nngraph/gmodule.lua]:96&#45;mnode">
<ellipse fill="none" stroke="black" cx="240" cy="-882" rx="80.415" ry="37.4533"/>
<text text-anchor="middle" x="240" y="-893.3" font-family="Times,serif" font-size="14.00">Node13</text>
<text text-anchor="start" x="191" y="-878.3" font-family="Times,serif" font-size="14.00">reverseMap = {}</text>
<text text-anchor="middle" x="240" y="-863.3" font-family="Times,serif" font-size="14.00">nSplitOutputs = 2</text>
</a>
</g>
</g>
<!-- n13&#45;&gt;n11 -->
<g id="edge13" class="edge"><title>n13&#45;&gt;n11</title>
<path fill="none" stroke="black" d="M214.836,-846.291C207.163,-835.708 198.559,-823.84 190.264,-812.398"/>
<polygon fill="black" stroke="black" points="192.999,-810.208 184.296,-804.166 187.332,-814.317 192.999,-810.208"/>
</g>
<!-- n13&#45;&gt;n12 -->
<g id="edge14" class="edge"><title>n13&#45;&gt;n12</title>
<path fill="none" stroke="black" d="M277.074,-848.526C291.784,-835.642 308.962,-820.595 324.885,-806.648"/>
<polygon fill="black" stroke="black" points="327.369,-809.125 332.585,-799.904 322.757,-803.86 327.369,-809.125"/>
</g>
<!-- n14 -->
<g id="node14" class="node"><title>n14</title>
<g id="a_node14"><a xlink:title="[[C]]:&#45;1_">
<ellipse fill="none" stroke="black" cx="240" cy="-994" rx="77.1743" ry="37.4533"/>
<text text-anchor="middle" x="240" y="-1005.3" font-family="Times,serif" font-size="14.00">Node14</text>
<text text-anchor="start" x="193" y="-990.3" font-family="Times,serif" font-size="14.00">input = {}</text>
<text text-anchor="middle" x="240" y="-975.3" font-family="Times,serif" font-size="14.00">reverseMap = {}</text>
</a>
</g>
</g>
<!-- n14&#45;&gt;n13 -->
<g id="edge15" class="edge"><title>n14&#45;&gt;n13</title>
<path fill="none" stroke="black" d="M240,-956.372C240,-947.927 240,-938.829 240,-930.011"/>
<polygon fill="black" stroke="black" points="243.5,-929.843 240,-919.844 236.5,-929.844 243.5,-929.843"/>
</g>
</g>
</svg>
