<?xml version="1.0" encoding="UTF-8" standalone="no"?>
<!DOCTYPE svg PUBLIC "-//W3C//DTD SVG 1.1//EN"
 "http://www.w3.org/Graphics/SVG/1.1/DTD/svg11.dtd">
<!-- Generated by graphviz version 2.36.0 (20140111.2315)
 -->
<!-- Title: G Pages: 1 -->
<svg width="664pt" height="1396pt"
 viewBox="0.00 0.00 664.00 1396.00" xmlns="http://www.w3.org/2000/svg" xmlns:xlink="http://www.w3.org/1999/xlink">
<g id="graph0" class="graph" transform="scale(1 1) rotate(0) translate(4 1392)">
<title>G</title>
<polygon fill="white" stroke="none" points="-4,4 -4,-1392 660,-1392 660,4 -4,4"/>
<!-- n1 -->
<g id="node1" class="node"><title>n1</title>
<g id="a_node1"><a xlink:title="[topologyTest.lua]:54_">
<ellipse fill="none" stroke="red" cx="278" cy="-150" rx="119.252" ry="37.4533"/>
<text text-anchor="middle" x="278" y="-161.3" font-family="Times,serif" font-size="14.00">OUTPUT LAYER (1)</text>
<text text-anchor="start" x="201.5" y="-146.3" font-family="Times,serif" font-size="14.00">module = nn.Linear(8 &#45;&gt; 1)</text>
<text text-anchor="middle" x="278" y="-131.3" font-family="Times,serif" font-size="14.00">reverseMap = {}</text>
</a>
</g>
</g>
<!-- n2 -->
<g id="node2" class="node"><title>n2</title>
<g id="a_node2"><a xlink:title="[[C]]:&#45;1_">
<ellipse fill="none" stroke="black" cx="278" cy="-38" rx="77.1743" ry="37.4533"/>
<text text-anchor="middle" x="278" y="-49.3" font-family="Times,serif" font-size="14.00">Node2</text>
<text text-anchor="start" x="231" y="-34.3" font-family="Times,serif" font-size="14.00">input = {}</text>
<text text-anchor="middle" x="278" y="-19.3" font-family="Times,serif" font-size="14.00">reverseMap = {}</text>
</a>
</g>
</g>
<!-- n1&#45;&gt;n2 -->
<g id="edge1" class="edge"><title>n1&#45;&gt;n2</title>
<path fill="none" stroke="black" d="M278,-112.372C278,-103.927 278,-94.8286 278,-86.0106"/>
<polygon fill="black" stroke="black" points="281.5,-85.8435 278,-75.8435 274.5,-85.8435 281.5,-85.8435"/>
</g>
<!-- n3 -->
<g id="node3" class="node"><title>n3</title>
<g id="a_node3"><a xlink:title="[topologyTest.lua]:46_">
<ellipse fill="none" stroke="yellow" cx="278" cy="-272" rx="124.176" ry="48.1667"/>
<text text-anchor="middle" x="278" y="-290.8" font-family="Times,serif" font-size="14.00">Concatenation node (3)</text>
<text text-anchor="start" x="198" y="-275.8" font-family="Times,serif" font-size="14.00">module = nn.JoinTable</text>
<text text-anchor="start" x="198" y="-260.8" font-family="Times,serif" font-size="14.00">reverseMap = {}</text>
<text text-anchor="middle" x="278" y="-245.8" font-family="Times,serif" font-size="14.00">mapindex = {Node4,Node5}</text>
</a>
</g>
</g>
<!-- n3&#45;&gt;n1 -->
<g id="edge2" class="edge"><title>n3&#45;&gt;n1</title>
<path fill="none" stroke="black" d="M278,-223.573C278,-215.096 278,-206.269 278,-197.81"/>
<polygon fill="black" stroke="black" points="281.5,-197.722 278,-187.722 274.5,-197.722 281.5,-197.722"/>
</g>
<!-- n4 -->
<g id="node4" class="node"><title>n4</title>
<g id="a_node4"><a xlink:title="[topologyTest.lua]:46_">
<ellipse fill="none" stroke="yellow" cx="399" cy="-516" rx="124.176" ry="48.1667"/>
<text text-anchor="middle" x="399" y="-534.8" font-family="Times,serif" font-size="14.00">Concatenation node (4)</text>
<text text-anchor="start" x="319" y="-519.8" font-family="Times,serif" font-size="14.00">module = nn.JoinTable</text>
<text text-anchor="start" x="319" y="-504.8" font-family="Times,serif" font-size="14.00">reverseMap = {}</text>
<text text-anchor="middle" x="399" y="-489.8" font-family="Times,serif" font-size="14.00">mapindex = {Node6,Node7}</text>
</a>
</g>
</g>
<!-- n4&#45;&gt;n3 -->
<g id="edge3" class="edge"><title>n4&#45;&gt;n3</title>
<path fill="none" stroke="black" d="M375.813,-468.626C355.867,-428.733 327.043,-371.085 305.85,-328.699"/>
<polygon fill="black" stroke="black" points="308.917,-327.008 301.314,-319.629 302.656,-330.138 308.917,-327.008"/>
</g>
<!-- n5 -->
<g id="node5" class="node"><title>n5</title>
<g id="a_node5"><a xlink:title="[topologyTest.lua]:42_">
<ellipse fill="blue" stroke="blue" cx="189" cy="-394" rx="119.252" ry="37.4533"/>
<text text-anchor="middle" x="189" y="-405.3" font-family="Times,serif" font-size="14.00" fill="white">Dummy LSTM layer (5)</text>
<text text-anchor="start" x="112.5" y="-390.3" font-family="Times,serif" font-size="14.00" fill="white">module = nn.Linear(9 &#45;&gt; 8)</text>
<text text-anchor="middle" x="189" y="-375.3" font-family="Times,serif" font-size="14.00" fill="white">reverseMap = {}</text>
</a>
</g>
</g>
<!-- n5&#45;&gt;n3 -->
<g id="edge4" class="edge"><title>n5&#45;&gt;n3</title>
<path fill="none" stroke="black" d="M215.462,-357.321C222.578,-347.726 230.435,-337.133 238.107,-326.789"/>
<polygon fill="black" stroke="black" points="241.056,-328.687 244.202,-318.57 235.434,-324.517 241.056,-328.687"/>
</g>
<!-- n6 -->
<g id="node6" class="node"><title>n6</title>
<g id="a_node6"><a xlink:title="[topologyTest.lua]:46_">
<ellipse fill="none" stroke="yellow" cx="518" cy="-760" rx="128.54" ry="48.1667"/>
<text text-anchor="middle" x="518" y="-778.8" font-family="Times,serif" font-size="14.00">Concatenation node (6)</text>
<text text-anchor="start" x="435" y="-763.8" font-family="Times,serif" font-size="14.00">module = nn.JoinTable</text>
<text text-anchor="start" x="435" y="-748.8" font-family="Times,serif" font-size="14.00">reverseMap = {}</text>
<text text-anchor="middle" x="518" y="-733.8" font-family="Times,serif" font-size="14.00">mapindex = {Node9,Node10}</text>
</a>
</g>
</g>
<!-- n6&#45;&gt;n4 -->
<g id="edge5" class="edge"><title>n6&#45;&gt;n4</title>
<path fill="none" stroke="black" d="M495.196,-712.626C475.58,-672.733 447.232,-615.085 426.389,-572.699"/>
<polygon fill="black" stroke="black" points="429.483,-571.058 421.929,-563.629 423.201,-574.147 429.483,-571.058"/>
</g>
<!-- n7 -->
<g id="node7" class="node"><title>n7</title>
<g id="a_node7"><a xlink:title="[topologyTest.lua]:42_">
<ellipse fill="blue" stroke="blue" cx="238" cy="-638" rx="119.252" ry="37.4533"/>
<text text-anchor="middle" x="238" y="-649.3" font-family="Times,serif" font-size="14.00" fill="white">Dummy LSTM layer (7)</text>
<text text-anchor="start" x="161.5" y="-634.3" font-family="Times,serif" font-size="14.00" fill="white">module = nn.Linear(9 &#45;&gt; 8)</text>
<text text-anchor="middle" x="238" y="-619.3" font-family="Times,serif" font-size="14.00" fill="white">reverseMap = {}</text>
</a>
</g>
</g>
<!-- n7&#45;&gt;n4 -->
<g id="edge6" class="edge"><title>n7&#45;&gt;n4</title>
<path fill="none" stroke="black" d="M283.276,-603.254C299.102,-591.458 317.19,-577.976 334.289,-565.232"/>
<polygon fill="black" stroke="black" points="336.663,-567.828 342.589,-559.045 332.48,-562.215 336.663,-567.828"/>
</g>
<!-- n8 -->
<g id="node8" class="node"><title>n8</title>
<g id="a_node8"><a xlink:title="[topologyTest.lua]:42_">
<ellipse fill="none" stroke="black" cx="128" cy="-516" rx="128.54" ry="48.1667"/>
<text text-anchor="middle" x="128" y="-534.8" font-family="Times,serif" font-size="14.00">Node8</text>
<text text-anchor="start" x="45" y="-519.8" font-family="Times,serif" font-size="14.00">module = nn.JoinTable</text>
<text text-anchor="start" x="45" y="-504.8" font-family="Times,serif" font-size="14.00">reverseMap = {}</text>
<text text-anchor="middle" x="128" y="-489.8" font-family="Times,serif" font-size="14.00">mapindex = {Node7,Node12}</text>
</a>
</g>
</g>
<!-- n7&#45;&gt;n8 -->
<g id="edge11" class="edge"><title>n7&#45;&gt;n8</title>
<path fill="none" stroke="black" d="M205.591,-601.645C196.323,-591.534 186.019,-580.293 176.026,-569.392"/>
<polygon fill="black" stroke="black" points="178.512,-566.925 169.175,-561.918 173.352,-571.655 178.512,-566.925"/>
</g>
<!-- n8&#45;&gt;n5 -->
<g id="edge7" class="edge"><title>n8&#45;&gt;n5</title>
<path fill="none" stroke="black" d="M151.584,-468.605C156.311,-459.305 161.273,-449.546 165.98,-440.285"/>
<polygon fill="black" stroke="black" points="169.174,-441.726 170.586,-431.225 162.934,-438.554 169.174,-441.726"/>
</g>
<!-- n9 -->
<g id="node9" class="node"><title>n9</title>
<g id="a_node9"><a xlink:title="[topologyTest.lua]:36_">
<ellipse fill="none" stroke="yellow" cx="528" cy="-882" rx="128.54" ry="37.4533"/>
<text text-anchor="middle" x="528" y="-893.3" font-family="Times,serif" font-size="14.00">Concatenation node (First) (9)</text>
<text text-anchor="start" x="445" y="-878.3" font-family="Times,serif" font-size="14.00">module = nn.Identity</text>
<text text-anchor="middle" x="528" y="-863.3" font-family="Times,serif" font-size="14.00">reverseMap = {}</text>
</a>
</g>
</g>
<!-- n9&#45;&gt;n6 -->
<g id="edge8" class="edge"><title>n9&#45;&gt;n6</title>
<path fill="none" stroke="black" d="M524.945,-844.344C524.253,-836.031 523.501,-827.01 522.756,-818.075"/>
<polygon fill="black" stroke="black" points="526.241,-817.741 521.922,-808.067 519.265,-818.323 526.241,-817.741"/>
</g>
<!-- n10 -->
<g id="node10" class="node"><title>n10</title>
<g id="a_node10"><a xlink:title="[topologyTest.lua]:42_">
<ellipse fill="blue" stroke="blue" cx="262" cy="-882" rx="119.252" ry="37.4533"/>
<text text-anchor="middle" x="262" y="-893.3" font-family="Times,serif" font-size="14.00" fill="white">Dummy LSTM layer (10)</text>
<text text-anchor="start" x="185.5" y="-878.3" font-family="Times,serif" font-size="14.00" fill="white">module = nn.Linear(9 &#45;&gt; 8)</text>
<text text-anchor="middle" x="262" y="-863.3" font-family="Times,serif" font-size="14.00" fill="white">reverseMap = {}</text>
</a>
</g>
</g>
<!-- n10&#45;&gt;n6 -->
<g id="edge9" class="edge"><title>n10&#45;&gt;n6</title>
<path fill="none" stroke="black" d="M326.931,-850.564C358.073,-835.966 395.855,-818.255 429.574,-802.45"/>
<polygon fill="black" stroke="black" points="431.399,-805.46 438.968,-798.046 428.427,-799.122 431.399,-805.46"/>
</g>
<!-- n11 -->
<g id="node11" class="node"><title>n11</title>
<g id="a_node11"><a xlink:title="[topologyTest.lua]:42_">
<ellipse fill="none" stroke="black" cx="238" cy="-760" rx="133.465" ry="48.1667"/>
<text text-anchor="middle" x="238" y="-778.8" font-family="Times,serif" font-size="14.00">Node11</text>
<text text-anchor="start" x="151.5" y="-763.8" font-family="Times,serif" font-size="14.00">module = nn.JoinTable</text>
<text text-anchor="start" x="151.5" y="-748.8" font-family="Times,serif" font-size="14.00">reverseMap = {}</text>
<text text-anchor="middle" x="238" y="-733.8" font-family="Times,serif" font-size="14.00">mapindex = {Node10,Node12}</text>
</a>
</g>
</g>
<!-- n10&#45;&gt;n11 -->
<g id="edge15" class="edge"><title>n10&#45;&gt;n11</title>
<path fill="none" stroke="black" d="M254.669,-844.344C253.006,-836.031 251.202,-827.01 249.415,-818.075"/>
<polygon fill="black" stroke="black" points="252.807,-817.186 247.413,-808.067 245.943,-818.559 252.807,-817.186"/>
</g>
<!-- n11&#45;&gt;n7 -->
<g id="edge10" class="edge"><title>n11&#45;&gt;n7</title>
<path fill="none" stroke="black" d="M238,-711.573C238,-703.096 238,-694.269 238,-685.81"/>
<polygon fill="black" stroke="black" points="241.5,-685.722 238,-675.722 234.5,-685.722 241.5,-685.722"/>
</g>
<!-- n12 -->
<g id="node12" class="node"><title>n12</title>
<g id="a_node12"><a xlink:title="[topologyTest.lua]:20_">
<ellipse fill="none" stroke="red" cx="133" cy="-1238" rx="94.0678" ry="37.4533"/>
<text text-anchor="middle" x="133" y="-1249.3" font-family="Times,serif" font-size="14.00">INPUT LAYER (12)</text>
<text text-anchor="start" x="74.5" y="-1234.3" font-family="Times,serif" font-size="14.00">module = nn.Identity</text>
<text text-anchor="middle" x="133" y="-1219.3" font-family="Times,serif" font-size="14.00">reverseMap = {}</text>
</a>
</g>
</g>
<!-- n12&#45;&gt;n8 -->
<g id="edge12" class="edge"><title>n12&#45;&gt;n8</title>
<path fill="none" stroke="black" d="M114.357,-1200.99C109.021,-1189.43 103.664,-1176.41 100,-1164 79.7565,-1095.46 76,-1076.47 76,-1005 76,-1005 76,-1005 76,-759 76,-694.474 93.8898,-622.386 108.683,-573.807"/>
<polygon fill="black" stroke="black" points="112.071,-574.699 111.69,-564.111 105.385,-572.626 112.071,-574.699"/>
</g>
<!-- n12&#45;&gt;n11 -->
<g id="edge16" class="edge"><title>n12&#45;&gt;n11</title>
<path fill="none" stroke="black" d="M122.987,-1200.53C105.212,-1128.24 75.1647,-963.44 133,-844 139.604,-830.361 149.658,-818.285 160.974,-807.86"/>
<polygon fill="black" stroke="black" points="163.325,-810.454 168.57,-801.248 158.729,-805.174 163.325,-810.454"/>
</g>
<!-- n13 -->
<g id="node13" class="node"><title>n13</title>
<g id="a_node13"><a xlink:title="[topologyTest.lua]:32_">
<ellipse fill="blue" stroke="blue" cx="319" cy="-1126" rx="138.951" ry="37.4533"/>
<text text-anchor="middle" x="319" y="-1137.3" font-family="Times,serif" font-size="14.00" fill="white">Dummy LSTM layer (First) (13)</text>
<text text-anchor="start" x="228.5" y="-1122.3" font-family="Times,serif" font-size="14.00" fill="white">module = nn.Linear(9 &#45;&gt; 8)</text>
<text text-anchor="middle" x="319" y="-1107.3" font-family="Times,serif" font-size="14.00" fill="white">reverseMap = {}</text>
</a>
</g>
</g>
<!-- n12&#45;&gt;n13 -->
<g id="edge18" class="edge"><title>n12&#45;&gt;n13</title>
<path fill="none" stroke="black" d="M184.811,-1206.36C206.163,-1193.73 231.144,-1178.96 253.725,-1165.6"/>
<polygon fill="black" stroke="black" points="255.751,-1168.47 262.577,-1160.37 252.187,-1162.45 255.751,-1168.47"/>
</g>
<!-- n14 -->
<g id="node14" class="node"><title>n14</title>
<g id="a_node14"><a xlink:title="[topologyTest.lua]:42_">
<ellipse fill="none" stroke="black" cx="276" cy="-1004" rx="133.465" ry="48.1667"/>
<text text-anchor="middle" x="276" y="-1022.8" font-family="Times,serif" font-size="14.00">Node14</text>
<text text-anchor="start" x="189.5" y="-1007.8" font-family="Times,serif" font-size="14.00">module = nn.JoinTable</text>
<text text-anchor="start" x="189.5" y="-992.8" font-family="Times,serif" font-size="14.00">reverseMap = {}</text>
<text text-anchor="middle" x="276" y="-977.8" font-family="Times,serif" font-size="14.00">mapindex = {Node13,Node12}</text>
</a>
</g>
</g>
<!-- n12&#45;&gt;n14 -->
<g id="edge20" class="edge"><title>n12&#45;&gt;n14</title>
<path fill="none" stroke="black" d="M135.741,-1200.37C139.591,-1168.49 148.832,-1122.15 171,-1088 179.459,-1074.97 190.661,-1063.08 202.596,-1052.64"/>
<polygon fill="black" stroke="black" points="205.116,-1055.09 210.524,-1045.98 200.615,-1049.73 205.116,-1055.09"/>
</g>
<!-- n13&#45;&gt;n9 -->
<g id="edge13" class="edge"><title>n13&#45;&gt;n9</title>
<path fill="none" stroke="black" d="M371.979,-1091.29C387.762,-1079.89 404.446,-1066.37 418,-1052 453.432,-1014.44 484.551,-964.056 504.565,-928.098"/>
<polygon fill="black" stroke="black" points="507.66,-929.732 509.41,-919.283 501.526,-926.361 507.66,-929.732"/>
</g>
<!-- n13&#45;&gt;n14 -->
<g id="edge19" class="edge"><title>n13&#45;&gt;n14</title>
<path fill="none" stroke="black" d="M305.982,-1088.67C302.9,-1080.07 299.541,-1070.69 296.222,-1061.43"/>
<polygon fill="black" stroke="black" points="299.461,-1060.1 292.792,-1051.86 292.871,-1062.46 299.461,-1060.1"/>
</g>
<!-- n14&#45;&gt;n10 -->
<g id="edge14" class="edge"><title>n14&#45;&gt;n10</title>
<path fill="none" stroke="black" d="M270.507,-955.917C269.494,-947.234 268.437,-938.171 267.426,-929.504"/>
<polygon fill="black" stroke="black" points="270.901,-929.086 266.265,-919.559 263.948,-929.897 270.901,-929.086"/>
</g>
<!-- n15 -->
<g id="node15" class="node"><title>n15</title>
<g id="a_node15"><a xlink:title="[[C]]:&#45;1_">
<ellipse fill="none" stroke="black" cx="133" cy="-1350" rx="77.1743" ry="37.4533"/>
<text text-anchor="middle" x="133" y="-1361.3" font-family="Times,serif" font-size="14.00">Node15</text>
<text text-anchor="start" x="86" y="-1346.3" font-family="Times,serif" font-size="14.00">input = {}</text>
<text text-anchor="middle" x="133" y="-1331.3" font-family="Times,serif" font-size="14.00">reverseMap = {}</text>
</a>
</g>
</g>
<!-- n15&#45;&gt;n12 -->
<g id="edge17" class="edge"><title>n15&#45;&gt;n12</title>
<path fill="none" stroke="black" d="M133,-1312.37C133,-1303.93 133,-1294.83 133,-1286.01"/>
<polygon fill="black" stroke="black" points="136.5,-1285.84 133,-1275.84 129.5,-1285.84 136.5,-1285.84"/>
</g>
</g>
</svg>
