<?xml version="1.0" encoding="UTF-8" standalone="no"?>
<!DOCTYPE svg PUBLIC "-//W3C//DTD SVG 1.1//EN"
 "http://www.w3.org/Graphics/SVG/1.1/DTD/svg11.dtd">
<!-- Generated by graphviz version 2.36.0 (20140111.2315)
 -->
<!-- Title: G Pages: 1 -->
<svg width="1015pt" height="3592pt"
 viewBox="0.00 0.00 1015.00 3592.00" xmlns="http://www.w3.org/2000/svg" xmlns:xlink="http://www.w3.org/1999/xlink">
<g id="graph0" class="graph" transform="scale(1 1) rotate(0) translate(4 3588)">
<title>G</title>
<polygon fill="white" stroke="none" points="-4,4 -4,-3588 1011,-3588 1011,4 -4,4"/>
<!-- n1 -->
<g id="node1" class="node"><title>n1</title>
<g id="a_node1"><a xlink:title="[topologyTest.lua]:63_">
<ellipse fill="none" stroke="red" cx="278" cy="-150" rx="119.252" ry="37.4533"/>
<text text-anchor="middle" x="278" y="-161.3" font-family="Times,serif" font-size="14.00">OUTPUT LAYER (1)</text>
<text text-anchor="start" x="201.5" y="-146.3" font-family="Times,serif" font-size="14.00">module = nn.Linear(8 &#45;&gt; 1)</text>
<text text-anchor="middle" x="278" y="-131.3" font-family="Times,serif" font-size="14.00">reverseMap = {}</text>
</a>
</g>
</g>
<!-- n2 -->
<g id="node2" class="node"><title>n2</title>
<g id="a_node2"><a xlink:title="[[C]]:&#45;1_">
<ellipse fill="none" stroke="black" cx="278" cy="-38" rx="77.1743" ry="37.4533"/>
<text text-anchor="middle" x="278" y="-49.3" font-family="Times,serif" font-size="14.00">Node2</text>
<text text-anchor="start" x="231" y="-34.3" font-family="Times,serif" font-size="14.00">input = {}</text>
<text text-anchor="middle" x="278" y="-19.3" font-family="Times,serif" font-size="14.00">reverseMap = {}</text>
</a>
</g>
</g>
<!-- n1&#45;&gt;n2 -->
<g id="edge1" class="edge"><title>n1&#45;&gt;n2</title>
<path fill="none" stroke="black" d="M278,-112.372C278,-103.927 278,-94.8286 278,-86.0106"/>
<polygon fill="black" stroke="black" points="281.5,-85.8435 278,-75.8435 274.5,-85.8435 281.5,-85.8435"/>
</g>
<!-- n3 -->
<g id="node3" class="node"><title>n3</title>
<g id="a_node3"><a xlink:title="[topologyTest.lua]:55_">
<ellipse fill="none" stroke="yellow" cx="278" cy="-272" rx="124.176" ry="48.1667"/>
<text text-anchor="middle" x="278" y="-290.8" font-family="Times,serif" font-size="14.00">Concatenation node (3)</text>
<text text-anchor="start" x="198" y="-275.8" font-family="Times,serif" font-size="14.00">module = nn.JoinTable</text>
<text text-anchor="start" x="198" y="-260.8" font-family="Times,serif" font-size="14.00">reverseMap = {}</text>
<text text-anchor="middle" x="278" y="-245.8" font-family="Times,serif" font-size="14.00">mapindex = {Node4,Node5}</text>
</a>
</g>
</g>
<!-- n3&#45;&gt;n1 -->
<g id="edge2" class="edge"><title>n3&#45;&gt;n1</title>
<path fill="none" stroke="black" d="M278,-223.573C278,-215.096 278,-206.269 278,-197.81"/>
<polygon fill="black" stroke="black" points="281.5,-197.722 278,-187.722 274.5,-197.722 281.5,-197.722"/>
</g>
<!-- n4 -->
<g id="node4" class="node"><title>n4</title>
<g id="a_node4"><a xlink:title="[topologyTest.lua]:55_">
<ellipse fill="none" stroke="yellow" cx="399" cy="-516" rx="124.176" ry="48.1667"/>
<text text-anchor="middle" x="399" y="-534.8" font-family="Times,serif" font-size="14.00">Concatenation node (4)</text>
<text text-anchor="start" x="319" y="-519.8" font-family="Times,serif" font-size="14.00">module = nn.JoinTable</text>
<text text-anchor="start" x="319" y="-504.8" font-family="Times,serif" font-size="14.00">reverseMap = {}</text>
<text text-anchor="middle" x="399" y="-489.8" font-family="Times,serif" font-size="14.00">mapindex = {Node6,Node7}</text>
</a>
</g>
</g>
<!-- n4&#45;&gt;n3 -->
<g id="edge3" class="edge"><title>n4&#45;&gt;n3</title>
<path fill="none" stroke="black" d="M375.813,-468.626C355.867,-428.733 327.043,-371.085 305.85,-328.699"/>
<polygon fill="black" stroke="black" points="308.917,-327.008 301.314,-319.629 302.656,-330.138 308.917,-327.008"/>
</g>
<!-- n5 -->
<g id="node5" class="node"><title>n5</title>
<g id="a_node5"><a xlink:title="[topologyTest.lua]:51_">
<ellipse fill="none" stroke="blue" cx="189" cy="-394" rx="119.252" ry="37.4533"/>
<text text-anchor="middle" x="189" y="-405.3" font-family="Times,serif" font-size="14.00">Dummy LSTM layer (5)</text>
<text text-anchor="start" x="112.5" y="-390.3" font-family="Times,serif" font-size="14.00">module = nn.Linear(9 &#45;&gt; 8)</text>
<text text-anchor="middle" x="189" y="-375.3" font-family="Times,serif" font-size="14.00">reverseMap = {}</text>
</a>
</g>
</g>
<!-- n5&#45;&gt;n3 -->
<g id="edge4" class="edge"><title>n5&#45;&gt;n3</title>
<path fill="none" stroke="black" d="M215.462,-357.321C222.578,-347.726 230.435,-337.133 238.107,-326.789"/>
<polygon fill="black" stroke="black" points="241.056,-328.687 244.202,-318.57 235.434,-324.517 241.056,-328.687"/>
</g>
<!-- n6 -->
<g id="node6" class="node"><title>n6</title>
<g id="a_node6"><a xlink:title="[topologyTest.lua]:55_">
<ellipse fill="none" stroke="yellow" cx="518" cy="-760" rx="128.54" ry="48.1667"/>
<text text-anchor="middle" x="518" y="-778.8" font-family="Times,serif" font-size="14.00">Concatenation node (6)</text>
<text text-anchor="start" x="435" y="-763.8" font-family="Times,serif" font-size="14.00">module = nn.JoinTable</text>
<text text-anchor="start" x="435" y="-748.8" font-family="Times,serif" font-size="14.00">reverseMap = {}</text>
<text text-anchor="middle" x="518" y="-733.8" font-family="Times,serif" font-size="14.00">mapindex = {Node9,Node10}</text>
</a>
</g>
</g>
<!-- n6&#45;&gt;n4 -->
<g id="edge5" class="edge"><title>n6&#45;&gt;n4</title>
<path fill="none" stroke="black" d="M495.196,-712.626C475.58,-672.733 447.232,-615.085 426.389,-572.699"/>
<polygon fill="black" stroke="black" points="429.483,-571.058 421.929,-563.629 423.201,-574.147 429.483,-571.058"/>
</g>
<!-- n7 -->
<g id="node7" class="node"><title>n7</title>
<g id="a_node7"><a xlink:title="[topologyTest.lua]:51_">
<ellipse fill="none" stroke="blue" cx="238" cy="-638" rx="119.252" ry="37.4533"/>
<text text-anchor="middle" x="238" y="-649.3" font-family="Times,serif" font-size="14.00">Dummy LSTM layer (7)</text>
<text text-anchor="start" x="161.5" y="-634.3" font-family="Times,serif" font-size="14.00">module = nn.Linear(9 &#45;&gt; 8)</text>
<text text-anchor="middle" x="238" y="-619.3" font-family="Times,serif" font-size="14.00">reverseMap = {}</text>
</a>
</g>
</g>
<!-- n7&#45;&gt;n4 -->
<g id="edge6" class="edge"><title>n7&#45;&gt;n4</title>
<path fill="none" stroke="black" d="M283.276,-603.254C299.102,-591.458 317.19,-577.976 334.289,-565.232"/>
<polygon fill="black" stroke="black" points="336.663,-567.828 342.589,-559.045 332.48,-562.215 336.663,-567.828"/>
</g>
<!-- n8 -->
<g id="node8" class="node"><title>n8</title>
<g id="a_node8"><a xlink:title="[topologyTest.lua]:51_">
<ellipse fill="none" stroke="black" cx="128" cy="-516" rx="128.54" ry="48.1667"/>
<text text-anchor="middle" x="128" y="-534.8" font-family="Times,serif" font-size="14.00">Node8</text>
<text text-anchor="start" x="45" y="-519.8" font-family="Times,serif" font-size="14.00">module = nn.JoinTable</text>
<text text-anchor="start" x="45" y="-504.8" font-family="Times,serif" font-size="14.00">reverseMap = {}</text>
<text text-anchor="middle" x="128" y="-489.8" font-family="Times,serif" font-size="14.00">mapindex = {Node7,Node12}</text>
</a>
</g>
</g>
<!-- n7&#45;&gt;n8 -->
<g id="edge11" class="edge"><title>n7&#45;&gt;n8</title>
<path fill="none" stroke="black" d="M205.591,-601.645C196.323,-591.534 186.019,-580.293 176.026,-569.392"/>
<polygon fill="black" stroke="black" points="178.512,-566.925 169.175,-561.918 173.352,-571.655 178.512,-566.925"/>
</g>
<!-- n8&#45;&gt;n5 -->
<g id="edge7" class="edge"><title>n8&#45;&gt;n5</title>
<path fill="none" stroke="black" d="M151.584,-468.605C156.311,-459.305 161.273,-449.546 165.98,-440.285"/>
<polygon fill="black" stroke="black" points="169.174,-441.726 170.586,-431.225 162.934,-438.554 169.174,-441.726"/>
</g>
<!-- n9 -->
<g id="node9" class="node"><title>n9</title>
<g id="a_node9"><a xlink:title="[topologyTest.lua]:55_">
<ellipse fill="none" stroke="yellow" cx="561" cy="-1004" rx="133.465" ry="48.1667"/>
<text text-anchor="middle" x="561" y="-1022.8" font-family="Times,serif" font-size="14.00">Concatenation node (9)</text>
<text text-anchor="start" x="474.5" y="-1007.8" font-family="Times,serif" font-size="14.00">module = nn.JoinTable</text>
<text text-anchor="start" x="474.5" y="-992.8" font-family="Times,serif" font-size="14.00">reverseMap = {}</text>
<text text-anchor="middle" x="561" y="-977.8" font-family="Times,serif" font-size="14.00">mapindex = {Node13,Node14}</text>
</a>
</g>
</g>
<!-- n9&#45;&gt;n6 -->
<g id="edge8" class="edge"><title>n9&#45;&gt;n6</title>
<path fill="none" stroke="black" d="M552.607,-955.765C545.608,-916.373 535.611,-860.112 528.16,-818.178"/>
<polygon fill="black" stroke="black" points="531.567,-817.349 526.372,-808.115 524.675,-818.574 531.567,-817.349"/>
</g>
<!-- n10 -->
<g id="node10" class="node"><title>n10</title>
<g id="a_node10"><a xlink:title="[topologyTest.lua]:51_">
<ellipse fill="none" stroke="blue" cx="276" cy="-882" rx="119.252" ry="37.4533"/>
<text text-anchor="middle" x="276" y="-893.3" font-family="Times,serif" font-size="14.00">Dummy LSTM layer (10)</text>
<text text-anchor="start" x="199.5" y="-878.3" font-family="Times,serif" font-size="14.00">module = nn.Linear(9 &#45;&gt; 8)</text>
<text text-anchor="middle" x="276" y="-863.3" font-family="Times,serif" font-size="14.00">reverseMap = {}</text>
</a>
</g>
</g>
<!-- n10&#45;&gt;n6 -->
<g id="edge9" class="edge"><title>n10&#45;&gt;n6</title>
<path fill="none" stroke="black" d="M338.636,-849.941C367.315,-835.72 401.747,-818.646 432.741,-803.277"/>
<polygon fill="black" stroke="black" points="434.406,-806.358 441.81,-798.78 431.297,-800.087 434.406,-806.358"/>
</g>
<!-- n11 -->
<g id="node11" class="node"><title>n11</title>
<g id="a_node11"><a xlink:title="[topologyTest.lua]:51_">
<ellipse fill="none" stroke="black" cx="238" cy="-760" rx="133.465" ry="48.1667"/>
<text text-anchor="middle" x="238" y="-778.8" font-family="Times,serif" font-size="14.00">Node11</text>
<text text-anchor="start" x="151.5" y="-763.8" font-family="Times,serif" font-size="14.00">module = nn.JoinTable</text>
<text text-anchor="start" x="151.5" y="-748.8" font-family="Times,serif" font-size="14.00">reverseMap = {}</text>
<text text-anchor="middle" x="238" y="-733.8" font-family="Times,serif" font-size="14.00">mapindex = {Node10,Node12}</text>
</a>
</g>
</g>
<!-- n10&#45;&gt;n11 -->
<g id="edge16" class="edge"><title>n10&#45;&gt;n11</title>
<path fill="none" stroke="black" d="M264.496,-844.67C261.772,-836.069 258.803,-826.695 255.871,-817.434"/>
<polygon fill="black" stroke="black" points="259.195,-816.339 252.84,-807.862 252.522,-818.452 259.195,-816.339"/>
</g>
<!-- n11&#45;&gt;n7 -->
<g id="edge10" class="edge"><title>n11&#45;&gt;n7</title>
<path fill="none" stroke="black" d="M238,-711.573C238,-703.096 238,-694.269 238,-685.81"/>
<polygon fill="black" stroke="black" points="241.5,-685.722 238,-675.722 234.5,-685.722 241.5,-685.722"/>
</g>
<!-- n12 -->
<g id="node12" class="node"><title>n12</title>
<g id="a_node12"><a xlink:title="[topologyTest.lua]:20_">
<ellipse fill="none" stroke="red" cx="304" cy="-3434" rx="94.0678" ry="37.4533"/>
<text text-anchor="middle" x="304" y="-3445.3" font-family="Times,serif" font-size="14.00">INPUT LAYER (12)</text>
<text text-anchor="start" x="245.5" y="-3430.3" font-family="Times,serif" font-size="14.00">module = nn.Identity</text>
<text text-anchor="middle" x="304" y="-3415.3" font-family="Times,serif" font-size="14.00">reverseMap = {}</text>
</a>
</g>
</g>
<!-- n12&#45;&gt;n8 -->
<g id="edge12" class="edge"><title>n12&#45;&gt;n8</title>
<path fill="none" stroke="black" d="M217.934,-3418.82C180.742,-3408.47 139.715,-3390.63 113,-3360 65.3124,-3305.32 76,-3273.55 76,-3201 76,-3201 76,-3201 76,-759 76,-694.474 93.8898,-622.386 108.683,-573.807"/>
<polygon fill="black" stroke="black" points="112.071,-574.699 111.69,-564.111 105.385,-572.626 112.071,-574.699"/>
</g>
<!-- n12&#45;&gt;n11 -->
<g id="edge17" class="edge"><title>n12&#45;&gt;n11</title>
<path fill="none" stroke="black" d="M228.626,-3411.24C201.579,-3399.97 173.081,-3383.49 154,-3360 108.058,-3303.44 114,-3273.87 114,-3201 114,-3201 114,-3201 114,-1003 114,-930.827 111.265,-906.705 147,-844 153.816,-832.04 162.958,-820.847 172.826,-810.791"/>
<polygon fill="black" stroke="black" points="175.405,-813.165 180.116,-803.675 170.515,-808.155 175.405,-813.165"/>
</g>
<!-- n15 -->
<g id="node15" class="node"><title>n15</title>
<g id="a_node15"><a xlink:title="[topologyTest.lua]:51_">
<ellipse fill="none" stroke="black" cx="276" cy="-1004" rx="133.465" ry="48.1667"/>
<text text-anchor="middle" x="276" y="-1022.8" font-family="Times,serif" font-size="14.00">Node15</text>
<text text-anchor="start" x="189.5" y="-1007.8" font-family="Times,serif" font-size="14.00">module = nn.JoinTable</text>
<text text-anchor="start" x="189.5" y="-992.8" font-family="Times,serif" font-size="14.00">reverseMap = {}</text>
<text text-anchor="middle" x="276" y="-977.8" font-family="Times,serif" font-size="14.00">mapindex = {Node14,Node12}</text>
</a>
</g>
</g>
<!-- n12&#45;&gt;n15 -->
<g id="edge23" class="edge"><title>n12&#45;&gt;n15</title>
<path fill="none" stroke="black" d="M245.874,-3404.31C227.613,-3392.78 208.878,-3377.92 196,-3360 153.207,-3300.46 152,-3274.32 152,-3201 152,-3201 152,-3201 152,-1247 152,-1174.83 149.265,-1150.7 185,-1088 191.816,-1076.04 200.958,-1064.85 210.826,-1054.79"/>
<polygon fill="black" stroke="black" points="213.405,-1057.16 218.116,-1047.68 208.515,-1052.16 213.405,-1057.16"/>
</g>
<!-- n19 -->
<g id="node19" class="node"><title>n19</title>
<g id="a_node19"><a xlink:title="[topologyTest.lua]:51_">
<ellipse fill="none" stroke="black" cx="314" cy="-1248" rx="133.465" ry="48.1667"/>
<text text-anchor="middle" x="314" y="-1266.8" font-family="Times,serif" font-size="14.00">Node19</text>
<text text-anchor="start" x="227.5" y="-1251.8" font-family="Times,serif" font-size="14.00">module = nn.JoinTable</text>
<text text-anchor="start" x="227.5" y="-1236.8" font-family="Times,serif" font-size="14.00">reverseMap = {}</text>
<text text-anchor="middle" x="314" y="-1221.8" font-family="Times,serif" font-size="14.00">mapindex = {Node18,Node12}</text>
</a>
</g>
</g>
<!-- n12&#45;&gt;n19 -->
<g id="edge28" class="edge"><title>n12&#45;&gt;n19</title>
<path fill="none" stroke="black" d="M267.034,-3399.21C256.113,-3387.65 244.964,-3374.07 237,-3360 200.706,-3295.87 190,-3274.69 190,-3201 190,-3201 190,-3201 190,-1491 190,-1418.83 187.265,-1394.7 223,-1332 229.816,-1320.04 238.958,-1308.85 248.826,-1298.79"/>
<polygon fill="black" stroke="black" points="251.405,-1301.16 256.116,-1291.68 246.515,-1296.16 251.405,-1301.16"/>
</g>
<!-- n22 -->
<g id="node22" class="node"><title>n22</title>
<g id="a_node22"><a xlink:title="[topologyTest.lua]:51_">
<ellipse fill="none" stroke="black" cx="352" cy="-1492" rx="133.465" ry="48.1667"/>
<text text-anchor="middle" x="352" y="-1510.8" font-family="Times,serif" font-size="14.00">Node22</text>
<text text-anchor="start" x="265.5" y="-1495.8" font-family="Times,serif" font-size="14.00">module = nn.JoinTable</text>
<text text-anchor="start" x="265.5" y="-1480.8" font-family="Times,serif" font-size="14.00">reverseMap = {}</text>
<text text-anchor="middle" x="352" y="-1465.8" font-family="Times,serif" font-size="14.00">mapindex = {Node21,Node12}</text>
</a>
</g>
</g>
<!-- n12&#45;&gt;n22 -->
<g id="edge33" class="edge"><title>n12&#45;&gt;n22</title>
<path fill="none" stroke="black" d="M284.428,-3397.22C261.91,-3352.64 228,-3273.48 228,-3201 228,-3201 228,-3201 228,-1735 228,-1662.83 225.265,-1638.7 261,-1576 267.816,-1564.04 276.958,-1552.85 286.826,-1542.79"/>
<polygon fill="black" stroke="black" points="289.405,-1545.16 294.116,-1535.68 284.515,-1540.16 289.405,-1545.16"/>
</g>
<!-- n25 -->
<g id="node25" class="node"><title>n25</title>
<g id="a_node25"><a xlink:title="[topologyTest.lua]:51_">
<ellipse fill="none" stroke="black" cx="390" cy="-1736" rx="133.465" ry="48.1667"/>
<text text-anchor="middle" x="390" y="-1754.8" font-family="Times,serif" font-size="14.00">Node25</text>
<text text-anchor="start" x="303.5" y="-1739.8" font-family="Times,serif" font-size="14.00">module = nn.JoinTable</text>
<text text-anchor="start" x="303.5" y="-1724.8" font-family="Times,serif" font-size="14.00">reverseMap = {}</text>
<text text-anchor="middle" x="390" y="-1709.8" font-family="Times,serif" font-size="14.00">mapindex = {Node24,Node12}</text>
</a>
</g>
</g>
<!-- n12&#45;&gt;n25 -->
<g id="edge38" class="edge"><title>n12&#45;&gt;n25</title>
<path fill="none" stroke="black" d="M294.214,-3396.34C282.955,-3350.86 266,-3270.79 266,-3201 266,-3201 266,-3201 266,-1979 266,-1906.83 263.265,-1882.7 299,-1820 305.816,-1808.04 314.958,-1796.85 324.826,-1786.79"/>
<polygon fill="black" stroke="black" points="327.405,-1789.16 332.116,-1779.68 322.515,-1784.16 327.405,-1789.16"/>
</g>
<!-- n28 -->
<g id="node28" class="node"><title>n28</title>
<g id="a_node28"><a xlink:title="[topologyTest.lua]:51_">
<ellipse fill="none" stroke="black" cx="428" cy="-1980" rx="133.465" ry="48.1667"/>
<text text-anchor="middle" x="428" y="-1998.8" font-family="Times,serif" font-size="14.00">Node28</text>
<text text-anchor="start" x="341.5" y="-1983.8" font-family="Times,serif" font-size="14.00">module = nn.JoinTable</text>
<text text-anchor="start" x="341.5" y="-1968.8" font-family="Times,serif" font-size="14.00">reverseMap = {}</text>
<text text-anchor="middle" x="428" y="-1953.8" font-family="Times,serif" font-size="14.00">mapindex = {Node27,Node12}</text>
</a>
</g>
</g>
<!-- n12&#45;&gt;n28 -->
<g id="edge43" class="edge"><title>n12&#45;&gt;n28</title>
<path fill="none" stroke="black" d="M304,-3396.43C304,-3350.72 304,-3270.08 304,-3201 304,-3201 304,-3201 304,-2223 304,-2150.83 301.265,-2126.7 337,-2064 343.816,-2052.04 352.958,-2040.85 362.826,-2030.79"/>
<polygon fill="black" stroke="black" points="365.405,-2033.16 370.116,-2023.68 360.515,-2028.16 365.405,-2033.16"/>
</g>
<!-- n31 -->
<g id="node31" class="node"><title>n31</title>
<g id="a_node31"><a xlink:title="[topologyTest.lua]:51_">
<ellipse fill="none" stroke="black" cx="466" cy="-2224" rx="133.465" ry="48.1667"/>
<text text-anchor="middle" x="466" y="-2242.8" font-family="Times,serif" font-size="14.00">Node31</text>
<text text-anchor="start" x="379.5" y="-2227.8" font-family="Times,serif" font-size="14.00">module = nn.JoinTable</text>
<text text-anchor="start" x="379.5" y="-2212.8" font-family="Times,serif" font-size="14.00">reverseMap = {}</text>
<text text-anchor="middle" x="466" y="-2197.8" font-family="Times,serif" font-size="14.00">mapindex = {Node30,Node12}</text>
</a>
</g>
</g>
<!-- n12&#45;&gt;n31 -->
<g id="edge48" class="edge"><title>n12&#45;&gt;n31</title>
<path fill="none" stroke="black" d="M313.786,-3396.34C325.045,-3350.86 342,-3270.79 342,-3201 342,-3201 342,-3201 342,-2467 342,-2394.83 339.265,-2370.7 375,-2308 381.816,-2296.04 390.958,-2284.85 400.826,-2274.79"/>
<polygon fill="black" stroke="black" points="403.405,-2277.16 408.116,-2267.68 398.515,-2272.16 403.405,-2277.16"/>
</g>
<!-- n34 -->
<g id="node34" class="node"><title>n34</title>
<g id="a_node34"><a xlink:title="[topologyTest.lua]:51_">
<ellipse fill="none" stroke="black" cx="504" cy="-2468" rx="133.465" ry="48.1667"/>
<text text-anchor="middle" x="504" y="-2486.8" font-family="Times,serif" font-size="14.00">Node34</text>
<text text-anchor="start" x="417.5" y="-2471.8" font-family="Times,serif" font-size="14.00">module = nn.JoinTable</text>
<text text-anchor="start" x="417.5" y="-2456.8" font-family="Times,serif" font-size="14.00">reverseMap = {}</text>
<text text-anchor="middle" x="504" y="-2441.8" font-family="Times,serif" font-size="14.00">mapindex = {Node33,Node12}</text>
</a>
</g>
</g>
<!-- n12&#45;&gt;n34 -->
<g id="edge53" class="edge"><title>n12&#45;&gt;n34</title>
<path fill="none" stroke="black" d="M333.798,-3398.22C342.227,-3386.72 350.574,-3373.42 356,-3360 382.799,-3293.75 380,-3272.47 380,-3201 380,-3201 380,-3201 380,-2711 380,-2638.83 377.265,-2614.7 413,-2552 419.816,-2540.04 428.958,-2528.85 438.826,-2518.79"/>
<polygon fill="black" stroke="black" points="441.405,-2521.16 446.116,-2511.68 436.515,-2516.16 441.405,-2521.16"/>
</g>
<!-- n37 -->
<g id="node37" class="node"><title>n37</title>
<g id="a_node37"><a xlink:title="[topologyTest.lua]:51_">
<ellipse fill="none" stroke="black" cx="542" cy="-2712" rx="133.465" ry="48.1667"/>
<text text-anchor="middle" x="542" y="-2730.8" font-family="Times,serif" font-size="14.00">Node37</text>
<text text-anchor="start" x="455.5" y="-2715.8" font-family="Times,serif" font-size="14.00">module = nn.JoinTable</text>
<text text-anchor="start" x="455.5" y="-2700.8" font-family="Times,serif" font-size="14.00">reverseMap = {}</text>
<text text-anchor="middle" x="542" y="-2685.8" font-family="Times,serif" font-size="14.00">mapindex = {Node36,Node12}</text>
</a>
</g>
</g>
<!-- n12&#45;&gt;n37 -->
<g id="edge58" class="edge"><title>n12&#45;&gt;n37</title>
<path fill="none" stroke="black" d="M354.757,-3402.38C369.67,-3390.92 384.51,-3376.59 394,-3360 429.484,-3297.96 418,-3272.47 418,-3201 418,-3201 418,-3201 418,-2955 418,-2882.83 415.265,-2858.7 451,-2796 457.816,-2784.04 466.958,-2772.85 476.826,-2762.79"/>
<polygon fill="black" stroke="black" points="479.405,-2765.16 484.116,-2755.68 474.515,-2760.16 479.405,-2765.16"/>
</g>
<!-- n40 -->
<g id="node40" class="node"><title>n40</title>
<g id="a_node40"><a xlink:title="[topologyTest.lua]:51_">
<ellipse fill="none" stroke="black" cx="580" cy="-2956" rx="133.465" ry="48.1667"/>
<text text-anchor="middle" x="580" y="-2974.8" font-family="Times,serif" font-size="14.00">Node40</text>
<text text-anchor="start" x="493.5" y="-2959.8" font-family="Times,serif" font-size="14.00">module = nn.JoinTable</text>
<text text-anchor="start" x="493.5" y="-2944.8" font-family="Times,serif" font-size="14.00">reverseMap = {}</text>
<text text-anchor="middle" x="580" y="-2929.8" font-family="Times,serif" font-size="14.00">mapindex = {Node39,Node12}</text>
</a>
</g>
</g>
<!-- n12&#45;&gt;n40 -->
<g id="edge62" class="edge"><title>n12&#45;&gt;n40</title>
<path fill="none" stroke="black" d="M372.738,-3408.35C395.044,-3396.99 417.703,-3381.21 432,-3360 512.199,-3241 403.98,-3164.69 475,-3040 482.594,-3026.67 493.257,-3014.69 504.9,-3004.26"/>
<polygon fill="black" stroke="black" points="507.336,-3006.78 512.67,-2997.62 502.792,-3001.45 507.336,-3006.78"/>
</g>
<!-- n41 -->
<g id="node41" class="node"><title>n41</title>
<g id="a_node41"><a xlink:title="[topologyTest.lua]:40_">
<ellipse fill="none" stroke="blue" cx="661" cy="-3322" rx="138.951" ry="37.4533"/>
<text text-anchor="middle" x="661" y="-3333.3" font-family="Times,serif" font-size="14.00">Dummy LSTM layer (First) (41)</text>
<text text-anchor="start" x="570.5" y="-3318.3" font-family="Times,serif" font-size="14.00">module = nn.Linear(9 &#45;&gt; 8)</text>
<text text-anchor="middle" x="661" y="-3303.3" font-family="Times,serif" font-size="14.00">reverseMap = {}</text>
</a>
</g>
</g>
<!-- n12&#45;&gt;n41 -->
<g id="edge63" class="edge"><title>n12&#45;&gt;n41</title>
<path fill="none" stroke="black" d="M377.538,-3410.34C430.709,-3393.96 503.153,-3371.64 561.494,-3353.66"/>
<polygon fill="black" stroke="black" points="562.574,-3356.99 571.1,-3350.7 560.513,-3350.3 562.574,-3356.99"/>
</g>
<!-- n42 -->
<g id="node42" class="node"><title>n42</title>
<g id="a_node42"><a xlink:title="[topologyTest.lua]:51_">
<ellipse fill="none" stroke="black" cx="618" cy="-3200" rx="133.465" ry="48.1667"/>
<text text-anchor="middle" x="618" y="-3218.8" font-family="Times,serif" font-size="14.00">Node42</text>
<text text-anchor="start" x="531.5" y="-3203.8" font-family="Times,serif" font-size="14.00">module = nn.JoinTable</text>
<text text-anchor="start" x="531.5" y="-3188.8" font-family="Times,serif" font-size="14.00">reverseMap = {}</text>
<text text-anchor="middle" x="618" y="-3173.8" font-family="Times,serif" font-size="14.00">mapindex = {Node41,Node12}</text>
</a>
</g>
</g>
<!-- n12&#45;&gt;n42 -->
<g id="edge65" class="edge"><title>n12&#45;&gt;n42</title>
<path fill="none" stroke="black" d="M379.327,-3411.51C410.051,-3399.97 444.312,-3383.23 470,-3360 498.787,-3333.97 487.75,-3313.47 513,-3284 523.579,-3271.65 536.22,-3259.85 549.005,-3249.23"/>
<polygon fill="black" stroke="black" points="551.407,-3251.78 556.967,-3242.76 546.997,-3246.35 551.407,-3251.78"/>
</g>
<!-- n13 -->
<g id="node13" class="node"><title>n13</title>
<g id="a_node13"><a xlink:title="[topologyTest.lua]:55_">
<ellipse fill="none" stroke="yellow" cx="599" cy="-1248" rx="133.465" ry="48.1667"/>
<text text-anchor="middle" x="599" y="-1266.8" font-family="Times,serif" font-size="14.00">Concatenation node (13)</text>
<text text-anchor="start" x="512.5" y="-1251.8" font-family="Times,serif" font-size="14.00">module = nn.JoinTable</text>
<text text-anchor="start" x="512.5" y="-1236.8" font-family="Times,serif" font-size="14.00">reverseMap = {}</text>
<text text-anchor="middle" x="599" y="-1221.8" font-family="Times,serif" font-size="14.00">mapindex = {Node17,Node18}</text>
</a>
</g>
</g>
<!-- n13&#45;&gt;n9 -->
<g id="edge13" class="edge"><title>n13&#45;&gt;n9</title>
<path fill="none" stroke="black" d="M591.583,-1199.77C585.397,-1160.37 576.563,-1104.11 569.978,-1062.18"/>
<polygon fill="black" stroke="black" points="573.407,-1061.45 568.398,-1052.12 566.492,-1062.54 573.407,-1061.45"/>
</g>
<!-- n14 -->
<g id="node14" class="node"><title>n14</title>
<g id="a_node14"><a xlink:title="[topologyTest.lua]:51_">
<ellipse fill="none" stroke="blue" cx="314" cy="-1126" rx="119.252" ry="37.4533"/>
<text text-anchor="middle" x="314" y="-1137.3" font-family="Times,serif" font-size="14.00">Dummy LSTM layer (14)</text>
<text text-anchor="start" x="237.5" y="-1122.3" font-family="Times,serif" font-size="14.00">module = nn.Linear(9 &#45;&gt; 8)</text>
<text text-anchor="middle" x="314" y="-1107.3" font-family="Times,serif" font-size="14.00">reverseMap = {}</text>
</a>
</g>
</g>
<!-- n14&#45;&gt;n9 -->
<g id="edge14" class="edge"><title>n14&#45;&gt;n9</title>
<path fill="none" stroke="black" d="M377.609,-1094.1C406.75,-1079.94 441.762,-1062.93 473.348,-1047.58"/>
<polygon fill="black" stroke="black" points="475.128,-1050.61 482.593,-1043.09 472.069,-1044.31 475.128,-1050.61"/>
</g>
<!-- n14&#45;&gt;n15 -->
<g id="edge22" class="edge"><title>n14&#45;&gt;n15</title>
<path fill="none" stroke="black" d="M302.496,-1088.67C299.772,-1080.07 296.803,-1070.69 293.871,-1061.43"/>
<polygon fill="black" stroke="black" points="297.195,-1060.34 290.84,-1051.86 290.522,-1062.45 297.195,-1060.34"/>
</g>
<!-- n15&#45;&gt;n10 -->
<g id="edge15" class="edge"><title>n15&#45;&gt;n10</title>
<path fill="none" stroke="black" d="M276,-955.573C276,-947.096 276,-938.269 276,-929.81"/>
<polygon fill="black" stroke="black" points="279.5,-929.722 276,-919.722 272.5,-929.722 279.5,-929.722"/>
</g>
<!-- n16 -->
<g id="node16" class="node"><title>n16</title>
<g id="a_node16"><a xlink:title="[[C]]:&#45;1_">
<ellipse fill="none" stroke="black" cx="304" cy="-3546" rx="77.1743" ry="37.4533"/>
<text text-anchor="middle" x="304" y="-3557.3" font-family="Times,serif" font-size="14.00">Node16</text>
<text text-anchor="start" x="257" y="-3542.3" font-family="Times,serif" font-size="14.00">input = {}</text>
<text text-anchor="middle" x="304" y="-3527.3" font-family="Times,serif" font-size="14.00">reverseMap = {}</text>
</a>
</g>
</g>
<!-- n16&#45;&gt;n12 -->
<g id="edge18" class="edge"><title>n16&#45;&gt;n12</title>
<path fill="none" stroke="black" d="M304,-3508.37C304,-3499.93 304,-3490.83 304,-3482.01"/>
<polygon fill="black" stroke="black" points="307.5,-3481.84 304,-3471.84 300.5,-3481.84 307.5,-3481.84"/>
</g>
<!-- n17 -->
<g id="node17" class="node"><title>n17</title>
<g id="a_node17"><a xlink:title="[topologyTest.lua]:55_">
<ellipse fill="none" stroke="yellow" cx="637" cy="-1492" rx="133.465" ry="48.1667"/>
<text text-anchor="middle" x="637" y="-1510.8" font-family="Times,serif" font-size="14.00">Concatenation node (17)</text>
<text text-anchor="start" x="550.5" y="-1495.8" font-family="Times,serif" font-size="14.00">module = nn.JoinTable</text>
<text text-anchor="start" x="550.5" y="-1480.8" font-family="Times,serif" font-size="14.00">reverseMap = {}</text>
<text text-anchor="middle" x="637" y="-1465.8" font-family="Times,serif" font-size="14.00">mapindex = {Node20,Node21}</text>
</a>
</g>
</g>
<!-- n17&#45;&gt;n13 -->
<g id="edge19" class="edge"><title>n17&#45;&gt;n13</title>
<path fill="none" stroke="black" d="M629.583,-1443.77C623.397,-1404.37 614.563,-1348.11 607.978,-1306.18"/>
<polygon fill="black" stroke="black" points="611.407,-1305.45 606.398,-1296.12 604.492,-1306.54 611.407,-1305.45"/>
</g>
<!-- n18 -->
<g id="node18" class="node"><title>n18</title>
<g id="a_node18"><a xlink:title="[topologyTest.lua]:51_">
<ellipse fill="none" stroke="blue" cx="352" cy="-1370" rx="119.252" ry="37.4533"/>
<text text-anchor="middle" x="352" y="-1381.3" font-family="Times,serif" font-size="14.00">Dummy LSTM layer (18)</text>
<text text-anchor="start" x="275.5" y="-1366.3" font-family="Times,serif" font-size="14.00">module = nn.Linear(9 &#45;&gt; 8)</text>
<text text-anchor="middle" x="352" y="-1351.3" font-family="Times,serif" font-size="14.00">reverseMap = {}</text>
</a>
</g>
</g>
<!-- n18&#45;&gt;n13 -->
<g id="edge20" class="edge"><title>n18&#45;&gt;n13</title>
<path fill="none" stroke="black" d="M415.609,-1338.1C444.75,-1323.94 479.762,-1306.93 511.348,-1291.58"/>
<polygon fill="black" stroke="black" points="513.128,-1294.61 520.593,-1287.09 510.069,-1288.31 513.128,-1294.61"/>
</g>
<!-- n18&#45;&gt;n19 -->
<g id="edge27" class="edge"><title>n18&#45;&gt;n19</title>
<path fill="none" stroke="black" d="M340.496,-1332.67C337.772,-1324.07 334.803,-1314.69 331.871,-1305.43"/>
<polygon fill="black" stroke="black" points="335.195,-1304.34 328.84,-1295.86 328.522,-1306.45 335.195,-1304.34"/>
</g>
<!-- n19&#45;&gt;n14 -->
<g id="edge21" class="edge"><title>n19&#45;&gt;n14</title>
<path fill="none" stroke="black" d="M314,-1199.57C314,-1191.1 314,-1182.27 314,-1173.81"/>
<polygon fill="black" stroke="black" points="317.5,-1173.72 314,-1163.72 310.5,-1173.72 317.5,-1173.72"/>
</g>
<!-- n20 -->
<g id="node20" class="node"><title>n20</title>
<g id="a_node20"><a xlink:title="[topologyTest.lua]:55_">
<ellipse fill="none" stroke="yellow" cx="675" cy="-1736" rx="133.465" ry="48.1667"/>
<text text-anchor="middle" x="675" y="-1754.8" font-family="Times,serif" font-size="14.00">Concatenation node (20)</text>
<text text-anchor="start" x="588.5" y="-1739.8" font-family="Times,serif" font-size="14.00">module = nn.JoinTable</text>
<text text-anchor="start" x="588.5" y="-1724.8" font-family="Times,serif" font-size="14.00">reverseMap = {}</text>
<text text-anchor="middle" x="675" y="-1709.8" font-family="Times,serif" font-size="14.00">mapindex = {Node23,Node24}</text>
</a>
</g>
</g>
<!-- n20&#45;&gt;n17 -->
<g id="edge24" class="edge"><title>n20&#45;&gt;n17</title>
<path fill="none" stroke="black" d="M667.583,-1687.77C661.397,-1648.37 652.563,-1592.11 645.978,-1550.18"/>
<polygon fill="black" stroke="black" points="649.407,-1549.45 644.398,-1540.12 642.492,-1550.54 649.407,-1549.45"/>
</g>
<!-- n21 -->
<g id="node21" class="node"><title>n21</title>
<g id="a_node21"><a xlink:title="[topologyTest.lua]:51_">
<ellipse fill="none" stroke="blue" cx="390" cy="-1614" rx="119.252" ry="37.4533"/>
<text text-anchor="middle" x="390" y="-1625.3" font-family="Times,serif" font-size="14.00">Dummy LSTM layer (21)</text>
<text text-anchor="start" x="313.5" y="-1610.3" font-family="Times,serif" font-size="14.00">module = nn.Linear(9 &#45;&gt; 8)</text>
<text text-anchor="middle" x="390" y="-1595.3" font-family="Times,serif" font-size="14.00">reverseMap = {}</text>
</a>
</g>
</g>
<!-- n21&#45;&gt;n17 -->
<g id="edge25" class="edge"><title>n21&#45;&gt;n17</title>
<path fill="none" stroke="black" d="M453.609,-1582.1C482.75,-1567.94 517.762,-1550.93 549.348,-1535.58"/>
<polygon fill="black" stroke="black" points="551.128,-1538.61 558.593,-1531.09 548.069,-1532.31 551.128,-1538.61"/>
</g>
<!-- n21&#45;&gt;n22 -->
<g id="edge32" class="edge"><title>n21&#45;&gt;n22</title>
<path fill="none" stroke="black" d="M378.496,-1576.67C375.772,-1568.07 372.803,-1558.69 369.871,-1549.43"/>
<polygon fill="black" stroke="black" points="373.195,-1548.34 366.84,-1539.86 366.522,-1550.45 373.195,-1548.34"/>
</g>
<!-- n22&#45;&gt;n18 -->
<g id="edge26" class="edge"><title>n22&#45;&gt;n18</title>
<path fill="none" stroke="black" d="M352,-1443.57C352,-1435.1 352,-1426.27 352,-1417.81"/>
<polygon fill="black" stroke="black" points="355.5,-1417.72 352,-1407.72 348.5,-1417.72 355.5,-1417.72"/>
</g>
<!-- n23 -->
<g id="node23" class="node"><title>n23</title>
<g id="a_node23"><a xlink:title="[topologyTest.lua]:55_">
<ellipse fill="none" stroke="yellow" cx="713" cy="-1980" rx="133.465" ry="48.1667"/>
<text text-anchor="middle" x="713" y="-1998.8" font-family="Times,serif" font-size="14.00">Concatenation node (23)</text>
<text text-anchor="start" x="626.5" y="-1983.8" font-family="Times,serif" font-size="14.00">module = nn.JoinTable</text>
<text text-anchor="start" x="626.5" y="-1968.8" font-family="Times,serif" font-size="14.00">reverseMap = {}</text>
<text text-anchor="middle" x="713" y="-1953.8" font-family="Times,serif" font-size="14.00">mapindex = {Node26,Node27}</text>
</a>
</g>
</g>
<!-- n23&#45;&gt;n20 -->
<g id="edge29" class="edge"><title>n23&#45;&gt;n20</title>
<path fill="none" stroke="black" d="M705.583,-1931.77C699.397,-1892.37 690.563,-1836.11 683.978,-1794.18"/>
<polygon fill="black" stroke="black" points="687.407,-1793.45 682.398,-1784.12 680.492,-1794.54 687.407,-1793.45"/>
</g>
<!-- n24 -->
<g id="node24" class="node"><title>n24</title>
<g id="a_node24"><a xlink:title="[topologyTest.lua]:51_">
<ellipse fill="none" stroke="blue" cx="428" cy="-1858" rx="119.252" ry="37.4533"/>
<text text-anchor="middle" x="428" y="-1869.3" font-family="Times,serif" font-size="14.00">Dummy LSTM layer (24)</text>
<text text-anchor="start" x="351.5" y="-1854.3" font-family="Times,serif" font-size="14.00">module = nn.Linear(9 &#45;&gt; 8)</text>
<text text-anchor="middle" x="428" y="-1839.3" font-family="Times,serif" font-size="14.00">reverseMap = {}</text>
</a>
</g>
</g>
<!-- n24&#45;&gt;n20 -->
<g id="edge30" class="edge"><title>n24&#45;&gt;n20</title>
<path fill="none" stroke="black" d="M491.609,-1826.1C520.75,-1811.94 555.762,-1794.93 587.348,-1779.58"/>
<polygon fill="black" stroke="black" points="589.128,-1782.61 596.593,-1775.09 586.069,-1776.31 589.128,-1782.61"/>
</g>
<!-- n24&#45;&gt;n25 -->
<g id="edge37" class="edge"><title>n24&#45;&gt;n25</title>
<path fill="none" stroke="black" d="M416.496,-1820.67C413.772,-1812.07 410.803,-1802.69 407.871,-1793.43"/>
<polygon fill="black" stroke="black" points="411.195,-1792.34 404.84,-1783.86 404.522,-1794.45 411.195,-1792.34"/>
</g>
<!-- n25&#45;&gt;n21 -->
<g id="edge31" class="edge"><title>n25&#45;&gt;n21</title>
<path fill="none" stroke="black" d="M390,-1687.57C390,-1679.1 390,-1670.27 390,-1661.81"/>
<polygon fill="black" stroke="black" points="393.5,-1661.72 390,-1651.72 386.5,-1661.72 393.5,-1661.72"/>
</g>
<!-- n26 -->
<g id="node26" class="node"><title>n26</title>
<g id="a_node26"><a xlink:title="[topologyTest.lua]:55_">
<ellipse fill="none" stroke="yellow" cx="751" cy="-2224" rx="133.465" ry="48.1667"/>
<text text-anchor="middle" x="751" y="-2242.8" font-family="Times,serif" font-size="14.00">Concatenation node (26)</text>
<text text-anchor="start" x="664.5" y="-2227.8" font-family="Times,serif" font-size="14.00">module = nn.JoinTable</text>
<text text-anchor="start" x="664.5" y="-2212.8" font-family="Times,serif" font-size="14.00">reverseMap = {}</text>
<text text-anchor="middle" x="751" y="-2197.8" font-family="Times,serif" font-size="14.00">mapindex = {Node29,Node30}</text>
</a>
</g>
</g>
<!-- n26&#45;&gt;n23 -->
<g id="edge34" class="edge"><title>n26&#45;&gt;n23</title>
<path fill="none" stroke="black" d="M743.583,-2175.77C737.397,-2136.37 728.563,-2080.11 721.978,-2038.18"/>
<polygon fill="black" stroke="black" points="725.407,-2037.45 720.398,-2028.12 718.492,-2038.54 725.407,-2037.45"/>
</g>
<!-- n27 -->
<g id="node27" class="node"><title>n27</title>
<g id="a_node27"><a xlink:title="[topologyTest.lua]:51_">
<ellipse fill="none" stroke="blue" cx="466" cy="-2102" rx="119.252" ry="37.4533"/>
<text text-anchor="middle" x="466" y="-2113.3" font-family="Times,serif" font-size="14.00">Dummy LSTM layer (27)</text>
<text text-anchor="start" x="389.5" y="-2098.3" font-family="Times,serif" font-size="14.00">module = nn.Linear(9 &#45;&gt; 8)</text>
<text text-anchor="middle" x="466" y="-2083.3" font-family="Times,serif" font-size="14.00">reverseMap = {}</text>
</a>
</g>
</g>
<!-- n27&#45;&gt;n23 -->
<g id="edge35" class="edge"><title>n27&#45;&gt;n23</title>
<path fill="none" stroke="black" d="M529.609,-2070.1C558.75,-2055.94 593.762,-2038.93 625.348,-2023.58"/>
<polygon fill="black" stroke="black" points="627.128,-2026.61 634.593,-2019.09 624.069,-2020.31 627.128,-2026.61"/>
</g>
<!-- n27&#45;&gt;n28 -->
<g id="edge42" class="edge"><title>n27&#45;&gt;n28</title>
<path fill="none" stroke="black" d="M454.496,-2064.67C451.772,-2056.07 448.803,-2046.69 445.871,-2037.43"/>
<polygon fill="black" stroke="black" points="449.195,-2036.34 442.84,-2027.86 442.522,-2038.45 449.195,-2036.34"/>
</g>
<!-- n28&#45;&gt;n24 -->
<g id="edge36" class="edge"><title>n28&#45;&gt;n24</title>
<path fill="none" stroke="black" d="M428,-1931.57C428,-1923.1 428,-1914.27 428,-1905.81"/>
<polygon fill="black" stroke="black" points="431.5,-1905.72 428,-1895.72 424.5,-1905.72 431.5,-1905.72"/>
</g>
<!-- n29 -->
<g id="node29" class="node"><title>n29</title>
<g id="a_node29"><a xlink:title="[topologyTest.lua]:55_">
<ellipse fill="none" stroke="yellow" cx="789" cy="-2468" rx="133.465" ry="48.1667"/>
<text text-anchor="middle" x="789" y="-2486.8" font-family="Times,serif" font-size="14.00">Concatenation node (29)</text>
<text text-anchor="start" x="702.5" y="-2471.8" font-family="Times,serif" font-size="14.00">module = nn.JoinTable</text>
<text text-anchor="start" x="702.5" y="-2456.8" font-family="Times,serif" font-size="14.00">reverseMap = {}</text>
<text text-anchor="middle" x="789" y="-2441.8" font-family="Times,serif" font-size="14.00">mapindex = {Node32,Node33}</text>
</a>
</g>
</g>
<!-- n29&#45;&gt;n26 -->
<g id="edge39" class="edge"><title>n29&#45;&gt;n26</title>
<path fill="none" stroke="black" d="M781.583,-2419.77C775.397,-2380.37 766.563,-2324.11 759.978,-2282.18"/>
<polygon fill="black" stroke="black" points="763.407,-2281.45 758.398,-2272.12 756.492,-2282.54 763.407,-2281.45"/>
</g>
<!-- n30 -->
<g id="node30" class="node"><title>n30</title>
<g id="a_node30"><a xlink:title="[topologyTest.lua]:51_">
<ellipse fill="none" stroke="blue" cx="504" cy="-2346" rx="119.252" ry="37.4533"/>
<text text-anchor="middle" x="504" y="-2357.3" font-family="Times,serif" font-size="14.00">Dummy LSTM layer (30)</text>
<text text-anchor="start" x="427.5" y="-2342.3" font-family="Times,serif" font-size="14.00">module = nn.Linear(9 &#45;&gt; 8)</text>
<text text-anchor="middle" x="504" y="-2327.3" font-family="Times,serif" font-size="14.00">reverseMap = {}</text>
</a>
</g>
</g>
<!-- n30&#45;&gt;n26 -->
<g id="edge40" class="edge"><title>n30&#45;&gt;n26</title>
<path fill="none" stroke="black" d="M567.609,-2314.1C596.75,-2299.94 631.762,-2282.93 663.348,-2267.58"/>
<polygon fill="black" stroke="black" points="665.128,-2270.61 672.593,-2263.09 662.069,-2264.31 665.128,-2270.61"/>
</g>
<!-- n30&#45;&gt;n31 -->
<g id="edge47" class="edge"><title>n30&#45;&gt;n31</title>
<path fill="none" stroke="black" d="M492.496,-2308.67C489.772,-2300.07 486.803,-2290.69 483.871,-2281.43"/>
<polygon fill="black" stroke="black" points="487.195,-2280.34 480.84,-2271.86 480.522,-2282.45 487.195,-2280.34"/>
</g>
<!-- n31&#45;&gt;n27 -->
<g id="edge41" class="edge"><title>n31&#45;&gt;n27</title>
<path fill="none" stroke="black" d="M466,-2175.57C466,-2167.1 466,-2158.27 466,-2149.81"/>
<polygon fill="black" stroke="black" points="469.5,-2149.72 466,-2139.72 462.5,-2149.72 469.5,-2149.72"/>
</g>
<!-- n32 -->
<g id="node32" class="node"><title>n32</title>
<g id="a_node32"><a xlink:title="[topologyTest.lua]:55_">
<ellipse fill="none" stroke="yellow" cx="827" cy="-2712" rx="133.465" ry="48.1667"/>
<text text-anchor="middle" x="827" y="-2730.8" font-family="Times,serif" font-size="14.00">Concatenation node (32)</text>
<text text-anchor="start" x="740.5" y="-2715.8" font-family="Times,serif" font-size="14.00">module = nn.JoinTable</text>
<text text-anchor="start" x="740.5" y="-2700.8" font-family="Times,serif" font-size="14.00">reverseMap = {}</text>
<text text-anchor="middle" x="827" y="-2685.8" font-family="Times,serif" font-size="14.00">mapindex = {Node35,Node36}</text>
</a>
</g>
</g>
<!-- n32&#45;&gt;n29 -->
<g id="edge44" class="edge"><title>n32&#45;&gt;n29</title>
<path fill="none" stroke="black" d="M819.583,-2663.77C813.397,-2624.37 804.563,-2568.11 797.978,-2526.18"/>
<polygon fill="black" stroke="black" points="801.407,-2525.45 796.398,-2516.12 794.492,-2526.54 801.407,-2525.45"/>
</g>
<!-- n33 -->
<g id="node33" class="node"><title>n33</title>
<g id="a_node33"><a xlink:title="[topologyTest.lua]:51_">
<ellipse fill="none" stroke="blue" cx="542" cy="-2590" rx="119.252" ry="37.4533"/>
<text text-anchor="middle" x="542" y="-2601.3" font-family="Times,serif" font-size="14.00">Dummy LSTM layer (33)</text>
<text text-anchor="start" x="465.5" y="-2586.3" font-family="Times,serif" font-size="14.00">module = nn.Linear(9 &#45;&gt; 8)</text>
<text text-anchor="middle" x="542" y="-2571.3" font-family="Times,serif" font-size="14.00">reverseMap = {}</text>
</a>
</g>
</g>
<!-- n33&#45;&gt;n29 -->
<g id="edge45" class="edge"><title>n33&#45;&gt;n29</title>
<path fill="none" stroke="black" d="M605.609,-2558.1C634.75,-2543.94 669.762,-2526.93 701.348,-2511.58"/>
<polygon fill="black" stroke="black" points="703.128,-2514.61 710.593,-2507.09 700.069,-2508.31 703.128,-2514.61"/>
</g>
<!-- n33&#45;&gt;n34 -->
<g id="edge52" class="edge"><title>n33&#45;&gt;n34</title>
<path fill="none" stroke="black" d="M530.496,-2552.67C527.772,-2544.07 524.803,-2534.69 521.871,-2525.43"/>
<polygon fill="black" stroke="black" points="525.195,-2524.34 518.84,-2515.86 518.522,-2526.45 525.195,-2524.34"/>
</g>
<!-- n34&#45;&gt;n30 -->
<g id="edge46" class="edge"><title>n34&#45;&gt;n30</title>
<path fill="none" stroke="black" d="M504,-2419.57C504,-2411.1 504,-2402.27 504,-2393.81"/>
<polygon fill="black" stroke="black" points="507.5,-2393.72 504,-2383.72 500.5,-2393.72 507.5,-2393.72"/>
</g>
<!-- n35 -->
<g id="node35" class="node"><title>n35</title>
<g id="a_node35"><a xlink:title="[topologyTest.lua]:55_">
<ellipse fill="none" stroke="yellow" cx="865" cy="-2956" rx="133.465" ry="48.1667"/>
<text text-anchor="middle" x="865" y="-2974.8" font-family="Times,serif" font-size="14.00">Concatenation node (35)</text>
<text text-anchor="start" x="778.5" y="-2959.8" font-family="Times,serif" font-size="14.00">module = nn.JoinTable</text>
<text text-anchor="start" x="778.5" y="-2944.8" font-family="Times,serif" font-size="14.00">reverseMap = {}</text>
<text text-anchor="middle" x="865" y="-2929.8" font-family="Times,serif" font-size="14.00">mapindex = {Node38,Node39}</text>
</a>
</g>
</g>
<!-- n35&#45;&gt;n32 -->
<g id="edge49" class="edge"><title>n35&#45;&gt;n32</title>
<path fill="none" stroke="black" d="M857.583,-2907.77C851.397,-2868.37 842.563,-2812.11 835.978,-2770.18"/>
<polygon fill="black" stroke="black" points="839.407,-2769.45 834.398,-2760.12 832.492,-2770.54 839.407,-2769.45"/>
</g>
<!-- n36 -->
<g id="node36" class="node"><title>n36</title>
<g id="a_node36"><a xlink:title="[topologyTest.lua]:51_">
<ellipse fill="none" stroke="blue" cx="580" cy="-2834" rx="119.252" ry="37.4533"/>
<text text-anchor="middle" x="580" y="-2845.3" font-family="Times,serif" font-size="14.00">Dummy LSTM layer (36)</text>
<text text-anchor="start" x="503.5" y="-2830.3" font-family="Times,serif" font-size="14.00">module = nn.Linear(9 &#45;&gt; 8)</text>
<text text-anchor="middle" x="580" y="-2815.3" font-family="Times,serif" font-size="14.00">reverseMap = {}</text>
</a>
</g>
</g>
<!-- n36&#45;&gt;n32 -->
<g id="edge50" class="edge"><title>n36&#45;&gt;n32</title>
<path fill="none" stroke="black" d="M643.609,-2802.1C672.75,-2787.94 707.762,-2770.93 739.348,-2755.58"/>
<polygon fill="black" stroke="black" points="741.128,-2758.61 748.593,-2751.09 738.069,-2752.31 741.128,-2758.61"/>
</g>
<!-- n36&#45;&gt;n37 -->
<g id="edge57" class="edge"><title>n36&#45;&gt;n37</title>
<path fill="none" stroke="black" d="M568.496,-2796.67C565.772,-2788.07 562.803,-2778.69 559.871,-2769.43"/>
<polygon fill="black" stroke="black" points="563.195,-2768.34 556.84,-2759.86 556.522,-2770.45 563.195,-2768.34"/>
</g>
<!-- n37&#45;&gt;n33 -->
<g id="edge51" class="edge"><title>n37&#45;&gt;n33</title>
<path fill="none" stroke="black" d="M542,-2663.57C542,-2655.1 542,-2646.27 542,-2637.81"/>
<polygon fill="black" stroke="black" points="545.5,-2637.72 542,-2627.72 538.5,-2637.72 545.5,-2637.72"/>
</g>
<!-- n38 -->
<g id="node38" class="node"><title>n38</title>
<g id="a_node38"><a xlink:title="[topologyTest.lua]:44_">
<ellipse fill="none" stroke="yellow" cx="874" cy="-3078" rx="132.404" ry="37.4533"/>
<text text-anchor="middle" x="874" y="-3089.3" font-family="Times,serif" font-size="14.00">Concatenation node (First) (38)</text>
<text text-anchor="start" x="788" y="-3074.3" font-family="Times,serif" font-size="14.00">module = nn.Identity</text>
<text text-anchor="middle" x="874" y="-3059.3" font-family="Times,serif" font-size="14.00">reverseMap = {}</text>
</a>
</g>
</g>
<!-- n38&#45;&gt;n35 -->
<g id="edge54" class="edge"><title>n38&#45;&gt;n35</title>
<path fill="none" stroke="black" d="M871.251,-3040.34C870.627,-3032.03 869.951,-3023.01 869.281,-3014.07"/>
<polygon fill="black" stroke="black" points="872.768,-3013.78 868.53,-3004.07 865.788,-3014.3 872.768,-3013.78"/>
</g>
<!-- n39 -->
<g id="node39" class="node"><title>n39</title>
<g id="a_node39"><a xlink:title="[topologyTest.lua]:51_">
<ellipse fill="none" stroke="blue" cx="604" cy="-3078" rx="119.252" ry="37.4533"/>
<text text-anchor="middle" x="604" y="-3089.3" font-family="Times,serif" font-size="14.00">Dummy LSTM layer (39)</text>
<text text-anchor="start" x="527.5" y="-3074.3" font-family="Times,serif" font-size="14.00">module = nn.Linear(9 &#45;&gt; 8)</text>
<text text-anchor="middle" x="604" y="-3059.3" font-family="Times,serif" font-size="14.00">reverseMap = {}</text>
</a>
</g>
</g>
<!-- n39&#45;&gt;n35 -->
<g id="edge55" class="edge"><title>n39&#45;&gt;n35</title>
<path fill="none" stroke="black" d="M669.861,-3046.72C701.607,-3032.12 740.179,-3014.39 774.622,-2998.55"/>
<polygon fill="black" stroke="black" points="776.125,-3001.71 783.748,-2994.36 773.2,-2995.35 776.125,-3001.71"/>
</g>
<!-- n39&#45;&gt;n40 -->
<g id="edge61" class="edge"><title>n39&#45;&gt;n40</title>
<path fill="none" stroke="black" d="M596.669,-3040.34C595.006,-3032.03 593.202,-3023.01 591.415,-3014.07"/>
<polygon fill="black" stroke="black" points="594.807,-3013.19 589.413,-3004.07 587.943,-3014.56 594.807,-3013.19"/>
</g>
<!-- n40&#45;&gt;n36 -->
<g id="edge56" class="edge"><title>n40&#45;&gt;n36</title>
<path fill="none" stroke="black" d="M580,-2907.57C580,-2899.1 580,-2890.27 580,-2881.81"/>
<polygon fill="black" stroke="black" points="583.5,-2881.72 580,-2871.72 576.5,-2881.72 583.5,-2881.72"/>
</g>
<!-- n41&#45;&gt;n38 -->
<g id="edge59" class="edge"><title>n41&#45;&gt;n38</title>
<path fill="none" stroke="black" d="M713.835,-3287.15C729.611,-3275.74 746.328,-3262.26 760,-3248 796.131,-3210.32 828.472,-3159.96 849.395,-3124.04"/>
<polygon fill="black" stroke="black" points="852.508,-3125.64 854.464,-3115.23 846.442,-3122.15 852.508,-3125.64"/>
</g>
<!-- n41&#45;&gt;n42 -->
<g id="edge64" class="edge"><title>n41&#45;&gt;n42</title>
<path fill="none" stroke="black" d="M647.982,-3284.67C644.9,-3276.07 641.541,-3266.69 638.222,-3257.43"/>
<polygon fill="black" stroke="black" points="641.461,-3256.1 634.792,-3247.86 634.871,-3258.46 641.461,-3256.1"/>
</g>
<!-- n42&#45;&gt;n39 -->
<g id="edge60" class="edge"><title>n42&#45;&gt;n39</title>
<path fill="none" stroke="black" d="M612.507,-3151.92C611.494,-3143.23 610.437,-3134.17 609.426,-3125.5"/>
<polygon fill="black" stroke="black" points="612.901,-3125.09 608.265,-3115.56 605.948,-3125.9 612.901,-3125.09"/>
</g>
</g>
</svg>
